<svg xmlns="http://www.w3.org/2000/svg" xmlns:xlink="http://www.w3.org/1999/xlink" width="600" height="400" viewBox="0 0 2400 1600">
<defs>
  <clipPath id="clip600">
    <rect x="0" y="0" width="2400" height="1600"></rect>
  </clipPath>
</defs>
<path clip-path="url(#clip600)" d="
M0 1600 L2400 1600 L2400 0 L0 0  Z
  " fill="#ffffff" fill-rule="evenodd" fill-opacity="1"></path>
<defs>
  <clipPath id="clip601">
    <rect x="480" y="0" width="1681" height="1600"></rect>
  </clipPath>
</defs>
<path clip-path="url(#clip600)" d="
M309.519 1423.18 L2352.76 1423.18 L2352.76 123.472 L309.519 123.472  Z
  " fill="#ffffff" fill-rule="evenodd" fill-opacity="1"></path>
<defs>
  <clipPath id="clip602">
    <rect x="309" y="123" width="2044" height="1301"></rect>
  </clipPath>
</defs>
<polyline clip-path="url(#clip602)" style="stroke:#000000; stroke-linecap:round; stroke-linejoin:round; stroke-width:2; stroke-opacity:0.1; fill:none" points="
  633.219,1423.18 633.219,123.472 
  "></polyline>
<polyline clip-path="url(#clip602)" style="stroke:#000000; stroke-linecap:round; stroke-linejoin:round; stroke-width:2; stroke-opacity:0.1; fill:none" points="
  965.561,1423.18 965.561,123.472 
  "></polyline>
<polyline clip-path="url(#clip602)" style="stroke:#000000; stroke-linecap:round; stroke-linejoin:round; stroke-width:2; stroke-opacity:0.1; fill:none" points="
  1297.9,1423.18 1297.9,123.472 
  "></polyline>
<polyline clip-path="url(#clip602)" style="stroke:#000000; stroke-linecap:round; stroke-linejoin:round; stroke-width:2; stroke-opacity:0.1; fill:none" points="
  1630.24,1423.18 1630.24,123.472 
  "></polyline>
<polyline clip-path="url(#clip602)" style="stroke:#000000; stroke-linecap:round; stroke-linejoin:round; stroke-width:2; stroke-opacity:0.1; fill:none" points="
  1962.59,1423.18 1962.59,123.472 
  "></polyline>
<polyline clip-path="url(#clip602)" style="stroke:#000000; stroke-linecap:round; stroke-linejoin:round; stroke-width:2; stroke-opacity:0.1; fill:none" points="
  2294.93,1423.18 2294.93,123.472 
  "></polyline>
<polyline clip-path="url(#clip600)" style="stroke:#000000; stroke-linecap:round; stroke-linejoin:round; stroke-width:4; stroke-opacity:1; fill:none" points="
  309.519,1423.18 2352.76,1423.18 
  "></polyline>
<polyline clip-path="url(#clip600)" style="stroke:#000000; stroke-linecap:round; stroke-linejoin:round; stroke-width:4; stroke-opacity:1; fill:none" points="
  633.219,1423.18 633.219,1404.28 
  "></polyline>
<polyline clip-path="url(#clip600)" style="stroke:#000000; stroke-linecap:round; stroke-linejoin:round; stroke-width:4; stroke-opacity:1; fill:none" points="
  965.561,1423.18 965.561,1404.28 
  "></polyline>
<polyline clip-path="url(#clip600)" style="stroke:#000000; stroke-linecap:round; stroke-linejoin:round; stroke-width:4; stroke-opacity:1; fill:none" points="
  1297.9,1423.18 1297.9,1404.28 
  "></polyline>
<polyline clip-path="url(#clip600)" style="stroke:#000000; stroke-linecap:round; stroke-linejoin:round; stroke-width:4; stroke-opacity:1; fill:none" points="
  1630.24,1423.18 1630.24,1404.28 
  "></polyline>
<polyline clip-path="url(#clip600)" style="stroke:#000000; stroke-linecap:round; stroke-linejoin:round; stroke-width:4; stroke-opacity:1; fill:none" points="
  1962.59,1423.18 1962.59,1404.28 
  "></polyline>
<polyline clip-path="url(#clip600)" style="stroke:#000000; stroke-linecap:round; stroke-linejoin:round; stroke-width:4; stroke-opacity:1; fill:none" points="
  2294.93,1423.18 2294.93,1404.28 
  "></polyline>
<path clip-path="url(#clip600)" d="M623.497 1451.02 L641.854 1451.02 L641.854 1454.96 L627.78 1454.96 L627.78 1463.43 Q628.798 1463.08 629.817 1462.92 Q630.835 1462.73 631.854 1462.73 Q637.641 1462.73 641.02 1465.9 Q644.4 1469.08 644.4 1474.49 Q644.4 1480.07 640.928 1483.17 Q637.456 1486.25 631.136 1486.25 Q628.96 1486.25 626.692 1485.88 Q624.446 1485.51 622.039 1484.77 L622.039 1480.07 Q624.122 1481.2 626.345 1481.76 Q628.567 1482.32 631.044 1482.32 Q635.048 1482.32 637.386 1480.21 Q639.724 1478.1 639.724 1474.49 Q639.724 1470.88 637.386 1468.77 Q635.048 1466.67 631.044 1466.67 Q629.169 1466.67 627.294 1467.08 Q625.442 1467.5 623.497 1468.38 L623.497 1451.02 Z" fill="#000000" fill-rule="evenodd" fill-opacity="1"></path><path clip-path="url(#clip600)" d="M940.249 1481.64 L947.888 1481.64 L947.888 1455.28 L939.578 1456.95 L939.578 1452.69 L947.841 1451.02 L952.517 1451.02 L952.517 1481.64 L960.156 1481.64 L960.156 1485.58 L940.249 1485.58 L940.249 1481.64 Z" fill="#000000" fill-rule="evenodd" fill-opacity="1"></path><path clip-path="url(#clip600)" d="M979.601 1454.1 Q975.989 1454.1 974.161 1457.66 Q972.355 1461.2 972.355 1468.33 Q972.355 1475.44 974.161 1479.01 Q975.989 1482.55 979.601 1482.55 Q983.235 1482.55 985.04 1479.01 Q986.869 1475.44 986.869 1468.33 Q986.869 1461.2 985.04 1457.66 Q983.235 1454.1 979.601 1454.1 M979.601 1450.39 Q985.411 1450.39 988.466 1455 Q991.545 1459.58 991.545 1468.33 Q991.545 1477.06 988.466 1481.67 Q985.411 1486.25 979.601 1486.25 Q973.79 1486.25 970.712 1481.67 Q967.656 1477.06 967.656 1468.33 Q967.656 1459.58 970.712 1455 Q973.79 1450.39 979.601 1450.39 Z" fill="#000000" fill-rule="evenodd" fill-opacity="1"></path><path clip-path="url(#clip600)" d="M1273.09 1481.64 L1280.73 1481.64 L1280.73 1455.28 L1272.42 1456.95 L1272.42 1452.69 L1280.68 1451.02 L1285.36 1451.02 L1285.36 1481.64 L1293 1481.64 L1293 1485.58 L1273.09 1485.58 L1273.09 1481.64 Z" fill="#000000" fill-rule="evenodd" fill-opacity="1"></path><path clip-path="url(#clip600)" d="M1302.49 1451.02 L1320.84 1451.02 L1320.84 1454.96 L1306.77 1454.96 L1306.77 1463.43 Q1307.79 1463.08 1308.81 1462.92 Q1309.82 1462.73 1310.84 1462.73 Q1316.63 1462.73 1320.01 1465.9 Q1323.39 1469.08 1323.39 1474.49 Q1323.39 1480.07 1319.92 1483.17 Q1316.44 1486.25 1310.13 1486.25 Q1307.95 1486.25 1305.68 1485.88 Q1303.44 1485.51 1301.03 1484.77 L1301.03 1480.07 Q1303.11 1481.2 1305.33 1481.76 Q1307.56 1482.32 1310.03 1482.32 Q1314.04 1482.32 1316.38 1480.21 Q1318.71 1478.1 1318.71 1474.49 Q1318.71 1470.88 1316.38 1468.77 Q1314.04 1466.67 1310.03 1466.67 Q1308.16 1466.67 1306.28 1467.08 Q1304.43 1467.5 1302.49 1468.38 L1302.49 1451.02 Z" fill="#000000" fill-rule="evenodd" fill-opacity="1"></path><path clip-path="url(#clip600)" d="M1609.02 1481.64 L1625.34 1481.64 L1625.34 1485.58 L1603.39 1485.58 L1603.39 1481.64 Q1606.06 1478.89 1610.64 1474.26 Q1615.24 1469.61 1616.43 1468.27 Q1618.67 1465.74 1619.55 1464.01 Q1620.45 1462.25 1620.45 1460.56 Q1620.45 1457.8 1618.51 1456.07 Q1616.59 1454.33 1613.49 1454.33 Q1611.29 1454.33 1608.83 1455.09 Q1606.4 1455.86 1603.62 1457.41 L1603.62 1452.69 Q1606.45 1451.55 1608.9 1450.97 Q1611.36 1450.39 1613.39 1450.39 Q1618.76 1450.39 1621.96 1453.08 Q1625.15 1455.77 1625.15 1460.26 Q1625.15 1462.39 1624.34 1464.31 Q1623.56 1466.2 1621.45 1468.8 Q1620.87 1469.47 1617.77 1472.69 Q1614.67 1475.88 1609.02 1481.64 Z" fill="#000000" fill-rule="evenodd" fill-opacity="1"></path><path clip-path="url(#clip600)" d="M1645.15 1454.1 Q1641.54 1454.1 1639.71 1457.66 Q1637.91 1461.2 1637.91 1468.33 Q1637.91 1475.44 1639.71 1479.01 Q1641.54 1482.55 1645.15 1482.55 Q1648.79 1482.55 1650.59 1479.01 Q1652.42 1475.44 1652.42 1468.33 Q1652.42 1461.2 1650.59 1457.66 Q1648.79 1454.1 1645.15 1454.1 M1645.15 1450.39 Q1650.96 1450.39 1654.02 1455 Q1657.1 1459.58 1657.1 1468.33 Q1657.1 1477.06 1654.02 1481.67 Q1650.96 1486.25 1645.15 1486.25 Q1639.34 1486.25 1636.26 1481.67 Q1633.21 1477.06 1633.21 1468.33 Q1633.21 1459.58 1636.26 1455 Q1639.34 1450.39 1645.15 1450.39 Z" fill="#000000" fill-rule="evenodd" fill-opacity="1"></path><path clip-path="url(#clip600)" d="M1941.86 1481.64 L1958.18 1481.64 L1958.18 1485.58 L1936.23 1485.58 L1936.23 1481.64 Q1938.89 1478.89 1943.48 1474.26 Q1948.08 1469.61 1949.26 1468.27 Q1951.51 1465.74 1952.39 1464.01 Q1953.29 1462.25 1953.29 1460.56 Q1953.29 1457.8 1951.35 1456.07 Q1949.43 1454.33 1946.33 1454.33 Q1944.13 1454.33 1941.67 1455.09 Q1939.24 1455.86 1936.46 1457.41 L1936.46 1452.69 Q1939.29 1451.55 1941.74 1450.97 Q1944.2 1450.39 1946.23 1450.39 Q1951.6 1450.39 1954.8 1453.08 Q1957.99 1455.77 1957.99 1460.26 Q1957.99 1462.39 1957.18 1464.31 Q1956.39 1466.2 1954.29 1468.8 Q1953.71 1469.47 1950.61 1472.69 Q1947.51 1475.88 1941.86 1481.64 Z" fill="#000000" fill-rule="evenodd" fill-opacity="1"></path><path clip-path="url(#clip600)" d="M1968.04 1451.02 L1986.39 1451.02 L1986.39 1454.96 L1972.32 1454.96 L1972.32 1463.43 Q1973.34 1463.08 1974.36 1462.92 Q1975.38 1462.73 1976.39 1462.73 Q1982.18 1462.73 1985.56 1465.9 Q1988.94 1469.08 1988.94 1474.49 Q1988.94 1480.07 1985.47 1483.17 Q1982 1486.25 1975.68 1486.25 Q1973.5 1486.25 1971.23 1485.88 Q1968.99 1485.51 1966.58 1484.77 L1966.58 1480.07 Q1968.66 1481.2 1970.89 1481.76 Q1973.11 1482.32 1975.58 1482.32 Q1979.59 1482.32 1981.93 1480.21 Q1984.26 1478.1 1984.26 1474.49 Q1984.26 1470.88 1981.93 1468.77 Q1979.59 1466.67 1975.58 1466.67 Q1973.71 1466.67 1971.83 1467.08 Q1969.98 1467.5 1968.04 1468.38 L1968.04 1451.02 Z" fill="#000000" fill-rule="evenodd" fill-opacity="1"></path><path clip-path="url(#clip600)" d="M2283.77 1466.95 Q2287.13 1467.66 2289 1469.93 Q2290.9 1472.2 2290.9 1475.53 Q2290.9 1480.65 2287.38 1483.45 Q2283.86 1486.25 2277.38 1486.25 Q2275.21 1486.25 2272.89 1485.81 Q2270.6 1485.39 2268.15 1484.54 L2268.15 1480.02 Q2270.09 1481.16 2272.41 1481.74 Q2274.72 1482.32 2277.24 1482.32 Q2281.64 1482.32 2283.93 1480.58 Q2286.25 1478.84 2286.25 1475.53 Q2286.25 1472.48 2284.1 1470.77 Q2281.97 1469.03 2278.15 1469.03 L2274.12 1469.03 L2274.12 1465.19 L2278.33 1465.19 Q2281.78 1465.19 2283.61 1463.82 Q2285.44 1462.43 2285.44 1459.84 Q2285.44 1457.18 2283.54 1455.77 Q2281.66 1454.33 2278.15 1454.33 Q2276.22 1454.33 2274.03 1454.75 Q2271.83 1455.16 2269.19 1456.04 L2269.19 1451.88 Q2271.85 1451.14 2274.16 1450.77 Q2276.5 1450.39 2278.56 1450.39 Q2283.89 1450.39 2286.99 1452.83 Q2290.09 1455.23 2290.09 1459.35 Q2290.09 1462.22 2288.45 1464.21 Q2286.8 1466.18 2283.77 1466.95 Z" fill="#000000" fill-rule="evenodd" fill-opacity="1"></path><path clip-path="url(#clip600)" d="M2309.77 1454.1 Q2306.16 1454.1 2304.33 1457.66 Q2302.52 1461.2 2302.52 1468.33 Q2302.52 1475.44 2304.33 1479.01 Q2306.16 1482.55 2309.77 1482.55 Q2313.4 1482.55 2315.21 1479.01 Q2317.03 1475.44 2317.03 1468.33 Q2317.03 1461.2 2315.21 1457.66 Q2313.4 1454.1 2309.77 1454.1 M2309.77 1450.39 Q2315.58 1450.39 2318.63 1455 Q2321.71 1459.58 2321.71 1468.33 Q2321.71 1477.06 2318.63 1481.67 Q2315.58 1486.25 2309.77 1486.25 Q2303.96 1486.25 2300.88 1481.67 Q2297.82 1477.06 2297.82 1468.33 Q2297.82 1459.58 2300.88 1455 Q2303.96 1450.39 2309.77 1450.39 Z" fill="#000000" fill-rule="evenodd" fill-opacity="1"></path><path clip-path="url(#clip600)" d="M1201.31 1520.52 L1241.51 1520.52 L1241.51 1525.93 L1224.64 1525.93 L1224.64 1568.04 L1218.18 1568.04 L1218.18 1525.93 L1201.31 1525.93 L1201.31 1520.52 Z" fill="#000000" fill-rule="evenodd" fill-opacity="1"></path><path clip-path="url(#clip600)" d="M1245.45 1532.4 L1251.31 1532.4 L1251.31 1568.04 L1245.45 1568.04 L1245.45 1532.4 M1245.45 1518.52 L1251.31 1518.52 L1251.31 1525.93 L1245.45 1525.93 L1245.45 1518.52 Z" fill="#000000" fill-rule="evenodd" fill-opacity="1"></path><path clip-path="url(#clip600)" d="M1291.32 1539.24 Q1293.52 1535.29 1296.57 1533.41 Q1299.63 1531.54 1303.76 1531.54 Q1309.33 1531.54 1312.36 1535.45 Q1315.38 1539.33 1315.38 1546.53 L1315.38 1568.04 L1309.49 1568.04 L1309.49 1546.72 Q1309.49 1541.59 1307.68 1539.11 Q1305.87 1536.63 1302.14 1536.63 Q1297.59 1536.63 1294.95 1539.65 Q1292.31 1542.68 1292.31 1547.9 L1292.31 1568.04 L1286.42 1568.04 L1286.42 1546.72 Q1286.42 1541.56 1284.6 1539.11 Q1282.79 1536.63 1279 1536.63 Q1274.51 1536.63 1271.87 1539.68 Q1269.23 1542.71 1269.23 1547.9 L1269.23 1568.04 L1263.34 1568.04 L1263.34 1532.4 L1269.23 1532.4 L1269.23 1537.93 Q1271.24 1534.66 1274.04 1533.1 Q1276.84 1531.54 1280.69 1531.54 Q1284.57 1531.54 1287.28 1533.51 Q1290.01 1535.48 1291.32 1539.24 Z" fill="#000000" fill-rule="evenodd" fill-opacity="1"></path><path clip-path="url(#clip600)" d="M1357.55 1548.76 L1357.55 1551.62 L1330.63 1551.62 Q1331.01 1557.67 1334.26 1560.85 Q1337.53 1564 1343.36 1564 Q1346.73 1564 1349.88 1563.17 Q1353.07 1562.35 1356.19 1560.69 L1356.19 1566.23 Q1353.04 1567.57 1349.73 1568.27 Q1346.41 1568.97 1343.01 1568.97 Q1334.48 1568.97 1329.48 1564 Q1324.52 1559.04 1324.52 1550.57 Q1324.52 1541.82 1329.23 1536.69 Q1333.97 1531.54 1341.99 1531.54 Q1349.18 1531.54 1353.35 1536.18 Q1357.55 1540.8 1357.55 1548.76 M1351.7 1547.04 Q1351.63 1542.23 1348.99 1539.37 Q1346.38 1536.5 1342.05 1536.5 Q1337.15 1536.5 1334.19 1539.27 Q1331.26 1542.04 1330.82 1547.07 L1351.7 1547.04 Z" fill="#000000" fill-rule="evenodd" fill-opacity="1"></path><path clip-path="url(#clip600)" d="M1401.96 1518.58 Q1397.69 1525.9 1395.62 1533.06 Q1393.55 1540.23 1393.55 1547.58 Q1393.55 1554.93 1395.62 1562.16 Q1397.72 1569.35 1401.96 1576.64 L1396.86 1576.64 Q1392.09 1569.16 1389.7 1561.93 Q1387.35 1554.71 1387.35 1547.58 Q1387.35 1540.48 1389.7 1533.29 Q1392.06 1526.09 1396.86 1518.58 L1401.96 1518.58 Z" fill="#000000" fill-rule="evenodd" fill-opacity="1"></path><path clip-path="url(#clip600)" d="M1436.04 1533.45 L1436.04 1538.98 Q1433.56 1537.71 1430.89 1537.07 Q1428.21 1536.44 1425.35 1536.44 Q1420.99 1536.44 1418.79 1537.77 Q1416.63 1539.11 1416.63 1541.79 Q1416.63 1543.82 1418.19 1545 Q1419.75 1546.15 1424.46 1547.2 L1426.46 1547.64 Q1432.7 1548.98 1435.31 1551.43 Q1437.95 1553.85 1437.95 1558.21 Q1437.95 1563.17 1434.01 1566.07 Q1430.09 1568.97 1423.22 1568.97 Q1420.35 1568.97 1417.23 1568.39 Q1414.15 1567.85 1410.71 1566.74 L1410.71 1560.69 Q1413.96 1562.38 1417.11 1563.24 Q1420.26 1564.07 1423.34 1564.07 Q1427.48 1564.07 1429.71 1562.66 Q1431.94 1561.23 1431.94 1558.65 Q1431.94 1556.27 1430.31 1554.99 Q1428.72 1553.72 1423.28 1552.54 L1421.24 1552.07 Q1415.8 1550.92 1413.38 1548.56 Q1410.96 1546.18 1410.96 1542.04 Q1410.96 1537.01 1414.53 1534.27 Q1418.09 1531.54 1424.65 1531.54 Q1427.9 1531.54 1430.76 1532.01 Q1433.63 1532.49 1436.04 1533.45 Z" fill="#000000" fill-rule="evenodd" fill-opacity="1"></path><path clip-path="url(#clip600)" d="M1446.36 1518.58 L1451.45 1518.58 Q1456.22 1526.09 1458.58 1533.29 Q1460.97 1540.48 1460.97 1547.58 Q1460.97 1554.71 1458.58 1561.93 Q1456.22 1569.16 1451.45 1576.64 L1446.36 1576.64 Q1450.59 1569.35 1452.66 1562.16 Q1454.76 1554.93 1454.76 1547.58 Q1454.76 1540.23 1452.66 1533.06 Q1450.59 1525.9 1446.36 1518.58 Z" fill="#000000" fill-rule="evenodd" fill-opacity="1"></path><polyline clip-path="url(#clip602)" style="stroke:#000000; stroke-linecap:round; stroke-linejoin:round; stroke-width:2; stroke-opacity:0.1; fill:none" points="
  309.519,1354.8 2352.76,1354.8 
  "></polyline>
<polyline clip-path="url(#clip602)" style="stroke:#000000; stroke-linecap:round; stroke-linejoin:round; stroke-width:2; stroke-opacity:0.1; fill:none" points="
  309.519,1001.84 2352.76,1001.84 
  "></polyline>
<polyline clip-path="url(#clip602)" style="stroke:#000000; stroke-linecap:round; stroke-linejoin:round; stroke-width:2; stroke-opacity:0.1; fill:none" points="
  309.519,648.879 2352.76,648.879 
  "></polyline>
<polyline clip-path="url(#clip602)" style="stroke:#000000; stroke-linecap:round; stroke-linejoin:round; stroke-width:2; stroke-opacity:0.1; fill:none" points="
  309.519,295.916 2352.76,295.916 
  "></polyline>
<polyline clip-path="url(#clip600)" style="stroke:#000000; stroke-linecap:round; stroke-linejoin:round; stroke-width:4; stroke-opacity:1; fill:none" points="
  309.519,1423.18 309.519,123.472 
  "></polyline>
<polyline clip-path="url(#clip600)" style="stroke:#000000; stroke-linecap:round; stroke-linejoin:round; stroke-width:4; stroke-opacity:1; fill:none" points="
  309.519,1354.8 328.416,1354.8 
  "></polyline>
<polyline clip-path="url(#clip600)" style="stroke:#000000; stroke-linecap:round; stroke-linejoin:round; stroke-width:4; stroke-opacity:1; fill:none" points="
  309.519,1001.84 328.416,1001.84 
  "></polyline>
<polyline clip-path="url(#clip600)" style="stroke:#000000; stroke-linecap:round; stroke-linejoin:round; stroke-width:4; stroke-opacity:1; fill:none" points="
  309.519,648.879 328.416,648.879 
  "></polyline>
<polyline clip-path="url(#clip600)" style="stroke:#000000; stroke-linecap:round; stroke-linejoin:round; stroke-width:4; stroke-opacity:1; fill:none" points="
  309.519,295.916 328.416,295.916 
  "></polyline>
<path clip-path="url(#clip600)" d="M120.88 1368.15 L137.2 1368.15 L137.2 1372.08 L115.256 1372.08 L115.256 1368.15 Q117.918 1365.39 122.501 1360.76 Q127.107 1356.11 128.288 1354.77 Q130.533 1352.25 131.413 1350.51 Q132.316 1348.75 132.316 1347.06 Q132.316 1344.31 130.371 1342.57 Q128.45 1340.83 125.348 1340.83 Q123.149 1340.83 120.695 1341.6 Q118.265 1342.36 115.487 1343.91 L115.487 1339.19 Q118.311 1338.06 120.765 1337.48 Q123.218 1336.9 125.255 1336.9 Q130.626 1336.9 133.82 1339.58 Q137.015 1342.27 137.015 1346.76 Q137.015 1348.89 136.204 1350.81 Q135.417 1352.71 133.311 1355.3 Q132.732 1355.97 129.63 1359.19 Q126.529 1362.38 120.88 1368.15 Z" fill="#000000" fill-rule="evenodd" fill-opacity="1"></path><path clip-path="url(#clip600)" d="M157.593 1352.94 Q154.445 1352.94 152.593 1355.09 Q150.765 1357.25 150.765 1361 Q150.765 1364.72 152.593 1366.9 Q154.445 1369.05 157.593 1369.05 Q160.741 1369.05 162.57 1366.9 Q164.422 1364.72 164.422 1361 Q164.422 1357.25 162.57 1355.09 Q160.741 1352.94 157.593 1352.94 M166.876 1338.29 L166.876 1342.55 Q165.116 1341.71 163.311 1341.27 Q161.528 1340.83 159.769 1340.83 Q155.14 1340.83 152.686 1343.96 Q150.255 1347.08 149.908 1353.4 Q151.274 1351.39 153.334 1350.32 Q155.394 1349.24 157.871 1349.24 Q163.079 1349.24 166.089 1352.41 Q169.121 1355.56 169.121 1361 Q169.121 1366.32 165.973 1369.54 Q162.825 1372.75 157.593 1372.75 Q151.598 1372.75 148.427 1368.17 Q145.255 1363.56 145.255 1354.84 Q145.255 1346.64 149.144 1341.78 Q153.033 1336.9 159.584 1336.9 Q161.343 1336.9 163.126 1337.25 Q164.931 1337.59 166.876 1338.29 Z" fill="#000000" fill-rule="evenodd" fill-opacity="1"></path><path clip-path="url(#clip600)" d="M177.176 1366.2 L182.061 1366.2 L182.061 1372.08 L177.176 1372.08 L177.176 1366.2 Z" fill="#000000" fill-rule="evenodd" fill-opacity="1"></path><path clip-path="url(#clip600)" d="M205.093 1341.6 L193.288 1360.05 L205.093 1360.05 L205.093 1341.6 M203.866 1337.52 L209.746 1337.52 L209.746 1360.05 L214.676 1360.05 L214.676 1363.94 L209.746 1363.94 L209.746 1372.08 L205.093 1372.08 L205.093 1363.94 L189.491 1363.94 L189.491 1359.42 L203.866 1337.52 Z" fill="#000000" fill-rule="evenodd" fill-opacity="1"></path><path clip-path="url(#clip600)" d="M235.255 1341.6 L223.449 1360.05 L235.255 1360.05 L235.255 1341.6 M234.028 1337.52 L239.908 1337.52 L239.908 1360.05 L244.838 1360.05 L244.838 1363.94 L239.908 1363.94 L239.908 1372.08 L235.255 1372.08 L235.255 1363.94 L219.653 1363.94 L219.653 1359.42 L234.028 1337.52 Z" fill="#000000" fill-rule="evenodd" fill-opacity="1"></path><path clip-path="url(#clip600)" d="M252.616 1337.52 L270.972 1337.52 L270.972 1341.46 L256.898 1341.46 L256.898 1349.93 Q257.917 1349.58 258.935 1349.42 Q259.954 1349.24 260.972 1349.24 Q266.759 1349.24 270.139 1352.41 Q273.519 1355.58 273.519 1361 Q273.519 1366.57 270.046 1369.68 Q266.574 1372.75 260.255 1372.75 Q258.079 1372.75 255.81 1372.38 Q253.565 1372.01 251.158 1371.27 L251.158 1366.57 Q253.241 1367.71 255.463 1368.26 Q257.685 1368.82 260.162 1368.82 Q264.167 1368.82 266.505 1366.71 Q268.843 1364.61 268.843 1361 Q268.843 1357.38 266.505 1355.28 Q264.167 1353.17 260.162 1353.17 Q258.287 1353.17 256.412 1353.59 Q254.56 1354 252.616 1354.88 L252.616 1337.52 Z" fill="#000000" fill-rule="evenodd" fill-opacity="1"></path><path clip-path="url(#clip600)" d="M119.885 1015.19 L136.204 1015.19 L136.204 1019.12 L114.26 1019.12 L114.26 1015.19 Q116.922 1012.43 121.505 1007.8 Q126.112 1003.15 127.292 1001.81 Q129.538 999.283 130.417 997.547 Q131.32 995.788 131.32 994.098 Q131.32 991.343 129.376 989.607 Q127.455 987.871 124.353 987.871 Q122.154 987.871 119.7 988.635 Q117.269 989.399 114.492 990.95 L114.492 986.228 Q117.316 985.093 119.769 984.515 Q122.223 983.936 124.26 983.936 Q129.63 983.936 132.825 986.621 Q136.019 989.306 136.019 993.797 Q136.019 995.927 135.209 997.848 Q134.422 999.746 132.316 1002.34 Q131.737 1003.01 128.635 1006.23 Q125.533 1009.42 119.885 1015.19 Z" fill="#000000" fill-rule="evenodd" fill-opacity="1"></path><path clip-path="url(#clip600)" d="M156.598 999.978 Q153.45 999.978 151.598 1002.13 Q149.769 1004.28 149.769 1008.03 Q149.769 1011.76 151.598 1013.94 Q153.45 1016.09 156.598 1016.09 Q159.746 1016.09 161.575 1013.94 Q163.427 1011.76 163.427 1008.03 Q163.427 1004.28 161.575 1002.13 Q159.746 999.978 156.598 999.978 M165.88 985.325 L165.88 989.584 Q164.121 988.751 162.315 988.311 Q160.533 987.871 158.774 987.871 Q154.144 987.871 151.691 990.996 Q149.26 994.121 148.913 1000.44 Q150.278 998.427 152.339 997.362 Q154.399 996.274 156.876 996.274 Q162.084 996.274 165.093 999.445 Q168.126 1002.59 168.126 1008.03 Q168.126 1013.36 164.977 1016.57 Q161.829 1019.79 156.598 1019.79 Q150.603 1019.79 147.431 1015.21 Q144.26 1010.6 144.26 1001.88 Q144.26 993.681 148.149 988.82 Q152.038 983.936 158.589 983.936 Q160.348 983.936 162.13 984.283 Q163.936 984.63 165.88 985.325 Z" fill="#000000" fill-rule="evenodd" fill-opacity="1"></path><path clip-path="url(#clip600)" d="M176.181 1013.24 L181.065 1013.24 L181.065 1019.12 L176.181 1019.12 L176.181 1013.24 Z" fill="#000000" fill-rule="evenodd" fill-opacity="1"></path><path clip-path="url(#clip600)" d="M204.098 988.635 L192.292 1007.08 L204.098 1007.08 L204.098 988.635 M202.871 984.561 L208.75 984.561 L208.75 1007.08 L213.681 1007.08 L213.681 1010.97 L208.75 1010.97 L208.75 1019.12 L204.098 1019.12 L204.098 1010.97 L188.496 1010.97 L188.496 1006.46 L202.871 984.561 Z" fill="#000000" fill-rule="evenodd" fill-opacity="1"></path><path clip-path="url(#clip600)" d="M221.459 984.561 L239.815 984.561 L239.815 988.496 L225.741 988.496 L225.741 996.968 Q226.76 996.621 227.778 996.459 Q228.797 996.274 229.815 996.274 Q235.602 996.274 238.982 999.445 Q242.361 1002.62 242.361 1008.03 Q242.361 1013.61 238.889 1016.71 Q235.417 1019.79 229.098 1019.79 Q226.922 1019.79 224.653 1019.42 Q222.408 1019.05 220 1018.31 L220 1013.61 Q222.084 1014.75 224.306 1015.3 Q226.528 1015.86 229.005 1015.86 Q233.01 1015.86 235.347 1013.75 Q237.685 1011.64 237.685 1008.03 Q237.685 1004.42 235.347 1002.32 Q233.01 1000.21 229.005 1000.21 Q227.13 1000.21 225.255 1000.63 Q223.403 1001.04 221.459 1001.92 L221.459 984.561 Z" fill="#000000" fill-rule="evenodd" fill-opacity="1"></path><path clip-path="url(#clip600)" d="M261.574 987.64 Q257.963 987.64 256.134 991.204 Q254.329 994.746 254.329 1001.88 Q254.329 1008.98 256.134 1012.55 Q257.963 1016.09 261.574 1016.09 Q265.208 1016.09 267.014 1012.55 Q268.843 1008.98 268.843 1001.88 Q268.843 994.746 267.014 991.204 Q265.208 987.64 261.574 987.64 M261.574 983.936 Q267.384 983.936 270.44 988.542 Q273.519 993.126 273.519 1001.88 Q273.519 1010.6 270.44 1015.21 Q267.384 1019.79 261.574 1019.79 Q255.764 1019.79 252.685 1015.21 Q249.63 1010.6 249.63 1001.88 Q249.63 993.126 252.685 988.542 Q255.764 983.936 261.574 983.936 Z" fill="#000000" fill-rule="evenodd" fill-opacity="1"></path><path clip-path="url(#clip600)" d="M120.88 662.224 L137.2 662.224 L137.2 666.159 L115.256 666.159 L115.256 662.224 Q117.918 659.469 122.501 654.839 Q127.107 650.187 128.288 648.844 Q130.533 646.321 131.413 644.585 Q132.316 642.826 132.316 641.136 Q132.316 638.381 130.371 636.645 Q128.45 634.909 125.348 634.909 Q123.149 634.909 120.695 635.673 Q118.265 636.437 115.487 637.988 L115.487 633.265 Q118.311 632.131 120.765 631.552 Q123.218 630.974 125.255 630.974 Q130.626 630.974 133.82 633.659 Q137.015 636.344 137.015 640.835 Q137.015 642.964 136.204 644.886 Q135.417 646.784 133.311 649.376 Q132.732 650.048 129.63 653.265 Q126.529 656.46 120.88 662.224 Z" fill="#000000" fill-rule="evenodd" fill-opacity="1"></path><path clip-path="url(#clip600)" d="M157.593 647.015 Q154.445 647.015 152.593 649.168 Q150.765 651.321 150.765 655.071 Q150.765 658.798 152.593 660.974 Q154.445 663.126 157.593 663.126 Q160.741 663.126 162.57 660.974 Q164.422 658.798 164.422 655.071 Q164.422 651.321 162.57 649.168 Q160.741 647.015 157.593 647.015 M166.876 632.363 L166.876 636.622 Q165.116 635.789 163.311 635.349 Q161.528 634.909 159.769 634.909 Q155.14 634.909 152.686 638.034 Q150.255 641.159 149.908 647.478 Q151.274 645.464 153.334 644.4 Q155.394 643.312 157.871 643.312 Q163.079 643.312 166.089 646.483 Q169.121 649.631 169.121 655.071 Q169.121 660.395 165.973 663.612 Q162.825 666.83 157.593 666.83 Q151.598 666.83 148.427 662.247 Q145.255 657.64 145.255 648.913 Q145.255 640.719 149.144 635.858 Q153.033 630.974 159.584 630.974 Q161.343 630.974 163.126 631.321 Q164.931 631.668 166.876 632.363 Z" fill="#000000" fill-rule="evenodd" fill-opacity="1"></path><path clip-path="url(#clip600)" d="M177.176 660.279 L182.061 660.279 L182.061 666.159 L177.176 666.159 L177.176 660.279 Z" fill="#000000" fill-rule="evenodd" fill-opacity="1"></path><path clip-path="url(#clip600)" d="M205.093 635.673 L193.288 654.122 L205.093 654.122 L205.093 635.673 M203.866 631.599 L209.746 631.599 L209.746 654.122 L214.676 654.122 L214.676 658.011 L209.746 658.011 L209.746 666.159 L205.093 666.159 L205.093 658.011 L189.491 658.011 L189.491 653.497 L203.866 631.599 Z" fill="#000000" fill-rule="evenodd" fill-opacity="1"></path><path clip-path="url(#clip600)" d="M222.454 631.599 L240.81 631.599 L240.81 635.534 L226.736 635.534 L226.736 644.006 Q227.755 643.659 228.773 643.497 Q229.792 643.312 230.81 643.312 Q236.597 643.312 239.977 646.483 Q243.357 649.654 243.357 655.071 Q243.357 660.65 239.884 663.751 Q236.412 666.83 230.093 666.83 Q227.917 666.83 225.648 666.46 Q223.403 666.089 220.996 665.349 L220.996 660.65 Q223.079 661.784 225.301 662.339 Q227.523 662.895 230 662.895 Q234.005 662.895 236.343 660.788 Q238.681 658.682 238.681 655.071 Q238.681 651.46 236.343 649.353 Q234.005 647.247 230 647.247 Q228.125 647.247 226.25 647.663 Q224.398 648.08 222.454 648.96 L222.454 631.599 Z" fill="#000000" fill-rule="evenodd" fill-opacity="1"></path><path clip-path="url(#clip600)" d="M252.616 631.599 L270.972 631.599 L270.972 635.534 L256.898 635.534 L256.898 644.006 Q257.917 643.659 258.935 643.497 Q259.954 643.312 260.972 643.312 Q266.759 643.312 270.139 646.483 Q273.519 649.654 273.519 655.071 Q273.519 660.65 270.046 663.751 Q266.574 666.83 260.255 666.83 Q258.079 666.83 255.81 666.46 Q253.565 666.089 251.158 665.349 L251.158 660.65 Q253.241 661.784 255.463 662.339 Q257.685 662.895 260.162 662.895 Q264.167 662.895 266.505 660.788 Q268.843 658.682 268.843 655.071 Q268.843 651.46 266.505 649.353 Q264.167 647.247 260.162 647.247 Q258.287 647.247 256.412 647.663 Q254.56 648.08 252.616 648.96 L252.616 631.599 Z" fill="#000000" fill-rule="evenodd" fill-opacity="1"></path><path clip-path="url(#clip600)" d="M119.885 309.261 L136.204 309.261 L136.204 313.196 L114.26 313.196 L114.26 309.261 Q116.922 306.507 121.505 301.877 Q126.112 297.224 127.292 295.882 Q129.538 293.359 130.417 291.623 Q131.32 289.863 131.32 288.173 Q131.32 285.419 129.376 283.683 Q127.455 281.947 124.353 281.947 Q122.154 281.947 119.7 282.711 Q117.269 283.474 114.492 285.025 L114.492 280.303 Q117.316 279.169 119.769 278.59 Q122.223 278.011 124.26 278.011 Q129.63 278.011 132.825 280.697 Q136.019 283.382 136.019 287.873 Q136.019 290.002 135.209 291.923 Q134.422 293.822 132.316 296.414 Q131.737 297.085 128.635 300.303 Q125.533 303.497 119.885 309.261 Z" fill="#000000" fill-rule="evenodd" fill-opacity="1"></path><path clip-path="url(#clip600)" d="M156.598 294.053 Q153.45 294.053 151.598 296.206 Q149.769 298.359 149.769 302.109 Q149.769 305.835 151.598 308.011 Q153.45 310.164 156.598 310.164 Q159.746 310.164 161.575 308.011 Q163.427 305.835 163.427 302.109 Q163.427 298.359 161.575 296.206 Q159.746 294.053 156.598 294.053 M165.88 279.4 L165.88 283.66 Q164.121 282.826 162.315 282.386 Q160.533 281.947 158.774 281.947 Q154.144 281.947 151.691 285.072 Q149.26 288.197 148.913 294.516 Q150.278 292.502 152.339 291.437 Q154.399 290.349 156.876 290.349 Q162.084 290.349 165.093 293.521 Q168.126 296.669 168.126 302.109 Q168.126 307.433 164.977 310.65 Q161.829 313.868 156.598 313.868 Q150.603 313.868 147.431 309.284 Q144.26 304.678 144.26 295.951 Q144.26 287.757 148.149 282.896 Q152.038 278.011 158.589 278.011 Q160.348 278.011 162.13 278.359 Q163.936 278.706 165.88 279.4 Z" fill="#000000" fill-rule="evenodd" fill-opacity="1"></path><path clip-path="url(#clip600)" d="M176.181 307.317 L181.065 307.317 L181.065 313.196 L176.181 313.196 L176.181 307.317 Z" fill="#000000" fill-rule="evenodd" fill-opacity="1"></path><path clip-path="url(#clip600)" d="M204.098 282.711 L192.292 301.159 L204.098 301.159 L204.098 282.711 M202.871 278.636 L208.75 278.636 L208.75 301.159 L213.681 301.159 L213.681 305.048 L208.75 305.048 L208.75 313.196 L204.098 313.196 L204.098 305.048 L188.496 305.048 L188.496 300.534 L202.871 278.636 Z" fill="#000000" fill-rule="evenodd" fill-opacity="1"></path><path clip-path="url(#clip600)" d="M231.991 294.053 Q228.843 294.053 226.991 296.206 Q225.162 298.359 225.162 302.109 Q225.162 305.835 226.991 308.011 Q228.843 310.164 231.991 310.164 Q235.139 310.164 236.968 308.011 Q238.82 305.835 238.82 302.109 Q238.82 298.359 236.968 296.206 Q235.139 294.053 231.991 294.053 M241.273 279.4 L241.273 283.66 Q239.514 282.826 237.709 282.386 Q235.926 281.947 234.167 281.947 Q229.537 281.947 227.084 285.072 Q224.653 288.197 224.306 294.516 Q225.672 292.502 227.732 291.437 Q229.792 290.349 232.269 290.349 Q237.477 290.349 240.486 293.521 Q243.519 296.669 243.519 302.109 Q243.519 307.433 240.371 310.65 Q237.222 313.868 231.991 313.868 Q225.996 313.868 222.824 309.284 Q219.653 304.678 219.653 295.951 Q219.653 287.757 223.542 282.896 Q227.431 278.011 233.982 278.011 Q235.741 278.011 237.523 278.359 Q239.329 278.706 241.273 279.4 Z" fill="#000000" fill-rule="evenodd" fill-opacity="1"></path><path clip-path="url(#clip600)" d="M261.574 281.715 Q257.963 281.715 256.134 285.28 Q254.329 288.822 254.329 295.951 Q254.329 303.058 256.134 306.622 Q257.963 310.164 261.574 310.164 Q265.208 310.164 267.014 306.622 Q268.843 303.058 268.843 295.951 Q268.843 288.822 267.014 285.28 Q265.208 281.715 261.574 281.715 M261.574 278.011 Q267.384 278.011 270.44 282.618 Q273.519 287.201 273.519 295.951 Q273.519 304.678 270.44 309.284 Q267.384 313.868 261.574 313.868 Q255.764 313.868 252.685 309.284 Q249.63 304.678 249.63 295.951 Q249.63 287.201 252.685 282.618 Q255.764 278.011 261.574 278.011 Z" fill="#000000" fill-rule="evenodd" fill-opacity="1"></path><path clip-path="url(#clip600)" d="M18.0438 935.461 L24.314 935.461 Q22.5634 939.121 21.704 942.367 Q20.8447 945.614 20.8447 948.638 Q20.8447 953.889 22.8817 956.754 Q24.9187 959.587 28.6745 959.587 Q31.8255 959.587 33.4488 957.709 Q35.0402 955.799 36.0269 950.515 L36.8226 946.632 Q38.1912 939.439 41.6605 936.033 Q45.098 932.596 50.8908 932.596 Q57.7976 932.596 61.3624 937.243 Q64.9272 941.858 64.9272 950.802 Q64.9272 954.176 64.1633 957.995 Q63.3994 961.783 61.9035 965.857 L55.2831 965.857 Q57.4793 961.942 58.5933 958.186 Q59.7073 954.43 59.7073 950.802 Q59.7073 945.296 57.543 942.304 Q55.3786 939.312 51.3682 939.312 Q47.8671 939.312 45.8937 941.476 Q43.9204 943.609 42.9337 948.51 L42.1698 952.425 Q40.7375 959.618 37.682 962.833 Q34.6264 966.048 29.1837 966.048 Q22.8817 966.048 19.2532 961.624 Q15.6248 957.168 15.6248 949.37 Q15.6248 946.028 16.2295 942.558 Q16.8343 939.089 18.0438 935.461 Z" fill="#000000" fill-rule="evenodd" fill-opacity="1"></path><path clip-path="url(#clip600)" d="M58.657 917.159 L77.5631 917.159 L77.5631 923.047 L28.3562 923.047 L28.3562 917.159 L33.7671 917.159 Q30.5842 915.313 29.0564 912.512 Q27.4968 909.679 27.4968 905.765 Q27.4968 899.271 32.6531 895.229 Q37.8093 891.155 46.212 891.155 Q54.6147 891.155 59.771 895.229 Q64.9272 899.271 64.9272 905.765 Q64.9272 909.679 63.3994 912.512 Q61.8398 915.313 58.657 917.159 M46.212 897.234 Q39.7508 897.234 36.0905 899.908 Q32.3984 902.55 32.3984 907.197 Q32.3984 911.844 36.0905 914.517 Q39.7508 917.159 46.212 917.159 Q52.6732 917.159 56.3653 914.517 Q60.0256 911.844 60.0256 907.197 Q60.0256 902.55 56.3653 899.908 Q52.6732 897.234 46.212 897.234 Z" fill="#000000" fill-rule="evenodd" fill-opacity="1"></path><path clip-path="url(#clip600)" d="M44.7161 850.956 L47.5806 850.956 L47.5806 877.883 Q53.6281 877.501 56.8109 874.254 Q59.9619 870.976 59.9619 865.151 Q59.9619 861.777 59.1344 858.626 Q58.3069 855.444 56.6518 852.324 L62.1899 852.324 Q63.5267 855.475 64.227 858.786 Q64.9272 862.096 64.9272 865.501 Q64.9272 874.031 59.9619 879.029 Q54.9967 883.994 46.5303 883.994 Q37.7774 883.994 32.6531 879.283 Q27.4968 874.541 27.4968 866.52 Q27.4968 859.327 32.1438 855.157 Q36.7589 850.956 44.7161 850.956 M42.9973 856.812 Q38.1912 856.876 35.3266 859.518 Q32.4621 862.128 32.4621 866.456 Q32.4621 871.358 35.2312 874.318 Q38.0002 877.246 43.0292 877.692 L42.9973 856.812 Z" fill="#000000" fill-rule="evenodd" fill-opacity="1"></path><path clip-path="url(#clip600)" d="M44.7161 810.852 L47.5806 810.852 L47.5806 837.779 Q53.6281 837.397 56.8109 834.15 Q59.9619 830.872 59.9619 825.047 Q59.9619 821.674 59.1344 818.523 Q58.3069 815.34 56.6518 812.22 L62.1899 812.22 Q63.5267 815.371 64.227 818.682 Q64.9272 821.992 64.9272 825.397 Q64.9272 833.928 59.9619 838.925 Q54.9967 843.89 46.5303 843.89 Q37.7774 843.89 32.6531 839.179 Q27.4968 834.437 27.4968 826.416 Q27.4968 819.223 32.1438 815.053 Q36.7589 810.852 44.7161 810.852 M42.9973 816.708 Q38.1912 816.772 35.3266 819.414 Q32.4621 822.024 32.4621 826.352 Q32.4621 831.254 35.2312 834.214 Q38.0002 837.142 43.0292 837.588 L42.9973 816.708 Z" fill="#000000" fill-rule="evenodd" fill-opacity="1"></path><path clip-path="url(#clip600)" d="M33.7671 777.782 L14.479 777.782 L14.479 771.926 L64.0042 771.926 L64.0042 777.782 L58.657 777.782 Q61.8398 779.628 63.3994 782.461 Q64.9272 785.262 64.9272 789.208 Q64.9272 795.67 59.771 799.744 Q54.6147 803.786 46.212 803.786 Q37.8093 803.786 32.6531 799.744 Q27.4968 795.67 27.4968 789.208 Q27.4968 785.262 29.0564 782.461 Q30.5842 779.628 33.7671 777.782 M46.212 797.738 Q52.6732 797.738 56.3653 795.097 Q60.0256 792.423 60.0256 787.776 Q60.0256 783.129 56.3653 780.456 Q52.6732 777.782 46.212 777.782 Q39.7508 777.782 36.0905 780.456 Q32.3984 783.129 32.3984 787.776 Q32.3984 792.423 36.0905 795.097 Q39.7508 797.738 46.212 797.738 Z" fill="#000000" fill-rule="evenodd" fill-opacity="1"></path><path clip-path="url(#clip600)" d="M14.5426 725.074 Q21.8632 729.339 29.0246 731.408 Q36.186 733.477 43.5384 733.477 Q50.8908 733.477 58.1159 731.408 Q65.3091 729.307 72.5979 725.074 L72.5979 730.166 Q65.1182 734.941 57.8931 737.328 Q50.668 739.683 43.5384 739.683 Q36.4406 739.683 29.2474 737.328 Q22.0542 734.973 14.5426 730.166 L14.5426 725.074 Z" fill="#000000" fill-rule="evenodd" fill-opacity="1"></path><path clip-path="url(#clip600)" d="M35.1993 685.957 Q31.2526 683.76 29.3747 680.705 Q27.4968 677.649 27.4968 673.512 Q27.4968 667.942 31.4117 664.918 Q35.2948 661.894 42.4881 661.894 L64.0042 661.894 L64.0042 667.783 L42.679 667.783 Q37.5546 667.783 35.072 669.597 Q32.5894 671.411 32.5894 675.135 Q32.5894 679.686 35.6131 682.328 Q38.6368 684.97 43.8567 684.97 L64.0042 684.97 L64.0042 690.858 L42.679 690.858 Q37.5228 690.858 35.072 692.672 Q32.5894 694.487 32.5894 698.274 Q32.5894 702.762 35.6449 705.404 Q38.6686 708.046 43.8567 708.046 L64.0042 708.046 L64.0042 713.934 L28.3562 713.934 L28.3562 708.046 L33.8944 708.046 Q30.616 706.04 29.0564 703.24 Q27.4968 700.439 27.4968 696.587 Q27.4968 692.704 29.4702 689.999 Q31.4436 687.262 35.1993 685.957 Z" fill="#000000" fill-rule="evenodd" fill-opacity="1"></path><path clip-path="url(#clip600)" d="M16.4842 639.805 L16.4842 634.394 L70.0516 650.945 L70.0516 656.356 L16.4842 639.805 Z" fill="#000000" fill-rule="evenodd" fill-opacity="1"></path><path clip-path="url(#clip600)" d="M29.4065 605.526 L34.9447 605.526 Q33.6716 608.009 33.035 610.682 Q32.3984 613.356 32.3984 616.22 Q32.3984 620.581 33.7352 622.777 Q35.072 624.941 37.7456 624.941 Q39.7826 624.941 40.9603 623.382 Q42.1061 621.822 43.1565 617.112 L43.6021 615.106 Q44.9389 608.868 47.3897 606.258 Q49.8086 603.616 54.1691 603.616 Q59.1344 603.616 62.0308 607.563 Q64.9272 611.478 64.9272 618.353 Q64.9272 621.217 64.3543 624.337 Q63.8132 627.424 62.6992 630.861 L56.6518 630.861 Q58.3387 627.615 59.198 624.464 Q60.0256 621.313 60.0256 618.226 Q60.0256 614.088 58.6251 611.86 Q57.1929 609.632 54.6147 609.632 Q52.2276 609.632 50.9545 611.255 Q49.6813 612.847 48.5037 618.289 L48.0262 620.326 Q46.8804 625.769 44.5251 628.188 Q42.138 630.607 38.0002 630.607 Q32.9713 630.607 30.2341 627.042 Q27.4968 623.477 27.4968 616.921 Q27.4968 613.674 27.9743 610.809 Q28.4517 607.945 29.4065 605.526 Z" fill="#000000" fill-rule="evenodd" fill-opacity="1"></path><path clip-path="url(#clip600)" d="M14.5426 595.214 L14.5426 590.121 Q22.0542 585.347 29.2474 582.991 Q36.4406 580.604 43.5384 580.604 Q50.668 580.604 57.8931 582.991 Q65.1182 585.347 72.5979 590.121 L72.5979 595.214 Q65.3091 590.98 58.1159 588.911 Q50.8908 586.811 43.5384 586.811 Q36.186 586.811 29.0246 588.911 Q21.8632 590.98 14.5426 595.214 Z" fill="#000000" fill-rule="evenodd" fill-opacity="1"></path><path clip-path="url(#clip600)" d="M619.596 14.0809 L619.596 22.0612 Q614.937 19.8332 610.805 18.7395 Q606.674 17.6457 602.825 17.6457 Q596.141 17.6457 592.495 20.2383 Q588.89 22.8309 588.89 27.611 Q588.89 31.6214 591.28 33.6873 Q593.711 35.7128 600.435 36.9686 L605.377 37.9813 Q614.532 39.7232 618.867 44.1387 Q623.242 48.5136 623.242 55.8863 Q623.242 64.6767 617.327 69.2137 Q611.454 73.7508 600.071 73.7508 Q595.777 73.7508 590.916 72.7785 Q586.095 71.8063 580.91 69.9024 L580.91 61.4765 Q585.892 64.2716 590.672 65.6895 Q595.453 67.1073 600.071 67.1073 Q607.079 67.1073 610.886 64.3527 Q614.694 61.598 614.694 56.4939 Q614.694 52.0379 611.94 49.5264 Q609.226 47.0148 602.987 45.759 L598.005 44.7868 Q588.85 42.9639 584.758 39.075 Q580.667 35.1862 580.667 28.2591 Q580.667 20.2383 586.297 15.6203 Q591.969 11.0023 601.893 11.0023 Q606.147 11.0023 610.562 11.7719 Q614.978 12.5416 619.596 14.0809 Z" fill="#000000" fill-rule="evenodd" fill-opacity="1"></path><path clip-path="url(#clip600)" d="M642.889 65.7705 L642.889 89.8329 L635.394 89.8329 L635.394 27.2059 L642.889 27.2059 L642.889 34.0924 Q645.238 30.0415 648.803 28.0971 Q652.408 26.1121 657.391 26.1121 Q665.655 26.1121 670.799 32.6746 Q675.984 39.2371 675.984 49.9314 Q675.984 60.6258 670.799 67.1883 Q665.655 73.7508 657.391 73.7508 Q652.408 73.7508 648.803 71.8063 Q645.238 69.8214 642.889 65.7705 M668.247 49.9314 Q668.247 41.7081 664.845 37.0496 Q661.482 32.3505 655.568 32.3505 Q649.654 32.3505 646.251 37.0496 Q642.889 41.7081 642.889 49.9314 Q642.889 58.1548 646.251 62.8538 Q649.654 67.5124 655.568 67.5124 Q661.482 67.5124 664.845 62.8538 Q668.247 58.1548 668.247 49.9314 Z" fill="#000000" fill-rule="evenodd" fill-opacity="1"></path><path clip-path="url(#clip600)" d="M727.147 48.0275 L727.147 51.6733 L692.877 51.6733 Q693.363 59.3701 697.495 63.421 Q701.667 67.4314 709.08 67.4314 Q713.374 67.4314 717.385 66.3781 Q721.436 65.3249 725.406 63.2184 L725.406 70.267 Q721.395 71.9684 717.182 72.8596 Q712.969 73.7508 708.635 73.7508 Q697.778 73.7508 691.418 67.4314 Q685.099 61.1119 685.099 50.3365 Q685.099 39.1965 691.094 32.6746 Q697.13 26.1121 707.338 26.1121 Q716.494 26.1121 721.8 32.0264 Q727.147 37.9003 727.147 48.0275 M719.694 45.84 Q719.613 39.7232 716.25 36.0774 Q712.929 32.4315 707.42 32.4315 Q701.181 32.4315 697.414 35.9558 Q693.687 39.4801 693.12 45.8805 L719.694 45.84 Z" fill="#000000" fill-rule="evenodd" fill-opacity="1"></path><path clip-path="url(#clip600)" d="M778.189 48.0275 L778.189 51.6733 L743.918 51.6733 Q744.404 59.3701 748.536 63.421 Q752.709 67.4314 760.122 67.4314 Q764.416 67.4314 768.426 66.3781 Q772.477 65.3249 776.447 63.2184 L776.447 70.267 Q772.437 71.9684 768.224 72.8596 Q764.011 73.7508 759.676 73.7508 Q748.82 73.7508 742.46 67.4314 Q736.14 61.1119 736.14 50.3365 Q736.14 39.1965 742.136 32.6746 Q748.172 26.1121 758.38 26.1121 Q767.535 26.1121 772.842 32.0264 Q778.189 37.9003 778.189 48.0275 M770.735 45.84 Q770.654 39.7232 767.292 36.0774 Q763.97 32.4315 758.461 32.4315 Q752.223 32.4315 748.455 35.9558 Q744.728 39.4801 744.161 45.8805 L770.735 45.84 Z" fill="#000000" fill-rule="evenodd" fill-opacity="1"></path><path clip-path="url(#clip600)" d="M820.278 34.0924 L820.278 9.54393 L827.731 9.54393 L827.731 72.576 L820.278 72.576 L820.278 65.7705 Q817.928 69.8214 814.323 71.8063 Q810.758 73.7508 805.735 73.7508 Q797.512 73.7508 792.326 67.1883 Q787.182 60.6258 787.182 49.9314 Q787.182 39.2371 792.326 32.6746 Q797.512 26.1121 805.735 26.1121 Q810.758 26.1121 814.323 28.0971 Q817.928 30.0415 820.278 34.0924 M794.879 49.9314 Q794.879 58.1548 798.241 62.8538 Q801.644 67.5124 807.558 67.5124 Q813.472 67.5124 816.875 62.8538 Q820.278 58.1548 820.278 49.9314 Q820.278 41.7081 816.875 37.0496 Q813.472 32.3505 807.558 32.3505 Q801.644 32.3505 798.241 37.0496 Q794.879 41.7081 794.879 49.9314 Z" fill="#000000" fill-rule="evenodd" fill-opacity="1"></path><path clip-path="url(#clip600)" d="M864.108 27.2059 L872.008 27.2059 L886.186 65.2844 L900.364 27.2059 L908.263 27.2059 L891.25 72.576 L881.122 72.576 L864.108 27.2059 Z" fill="#000000" fill-rule="evenodd" fill-opacity="1"></path><path clip-path="url(#clip600)" d="M947.476 28.5427 L947.476 35.5912 Q944.316 33.9709 940.914 33.1607 Q937.511 32.3505 933.865 32.3505 Q928.315 32.3505 925.52 34.0519 Q922.766 35.7533 922.766 39.156 Q922.766 41.7486 924.751 43.2475 Q926.735 44.7058 932.731 46.0426 L935.283 46.6097 Q943.223 48.3111 946.544 51.4303 Q949.907 54.509 949.907 60.0587 Q949.907 66.3781 944.884 70.0644 Q939.901 73.7508 931.151 73.7508 Q927.505 73.7508 923.535 73.0216 Q919.606 72.3329 915.231 70.9151 L915.231 63.2184 Q919.363 65.3654 923.373 66.4591 Q927.384 67.5124 931.313 67.5124 Q936.579 67.5124 939.415 65.73 Q942.25 63.9071 942.25 60.6258 Q942.25 57.5877 940.184 55.9673 Q938.159 54.3469 931.232 52.8481 L928.639 52.2405 Q921.712 50.7821 918.634 47.7845 Q915.555 44.7463 915.555 39.4801 Q915.555 33.0797 920.092 29.5959 Q924.629 26.1121 932.974 26.1121 Q937.106 26.1121 940.752 26.7198 Q944.397 27.3274 947.476 28.5427 Z" fill="#000000" fill-rule="evenodd" fill-opacity="1"></path><path clip-path="url(#clip600)" d="M962.829 62.2867 L971.376 62.2867 L971.376 72.576 L962.829 72.576 L962.829 62.2867 Z" fill="#000000" fill-rule="evenodd" fill-opacity="1"></path><path clip-path="url(#clip600)" d="M1006.46 12.096 L1057.62 12.096 L1057.62 18.9825 L1036.15 18.9825 L1036.15 72.576 L1027.93 72.576 L1027.93 18.9825 L1006.46 18.9825 L1006.46 12.096 Z" fill="#000000" fill-rule="evenodd" fill-opacity="1"></path><path clip-path="url(#clip600)" d="M1062.64 27.2059 L1070.1 27.2059 L1070.1 72.576 L1062.64 72.576 L1062.64 27.2059 M1062.64 9.54393 L1070.1 9.54393 L1070.1 18.9825 L1062.64 18.9825 L1062.64 9.54393 Z" fill="#000000" fill-rule="evenodd" fill-opacity="1"></path><path clip-path="url(#clip600)" d="M1121.02 35.9153 Q1123.81 30.8922 1127.7 28.5022 Q1131.59 26.1121 1136.86 26.1121 Q1143.94 26.1121 1147.79 31.0947 Q1151.64 36.0368 1151.64 45.1919 L1151.64 72.576 L1144.15 72.576 L1144.15 45.4349 Q1144.15 38.913 1141.84 35.7533 Q1139.53 32.5936 1134.79 32.5936 Q1129 32.5936 1125.63 36.4419 Q1122.27 40.2903 1122.27 46.9338 L1122.27 72.576 L1114.78 72.576 L1114.78 45.4349 Q1114.78 38.8725 1112.47 35.7533 Q1110.16 32.5936 1105.34 32.5936 Q1099.63 32.5936 1096.27 36.4824 Q1092.9 40.3308 1092.9 46.9338 L1092.9 72.576 L1085.41 72.576 L1085.41 27.2059 L1092.9 27.2059 L1092.9 34.2544 Q1095.46 30.082 1099.02 28.0971 Q1102.59 26.1121 1107.49 26.1121 Q1112.43 26.1121 1115.87 28.6237 Q1119.36 31.1352 1121.02 35.9153 Z" fill="#000000" fill-rule="evenodd" fill-opacity="1"></path><path clip-path="url(#clip600)" d="M1205.32 48.0275 L1205.32 51.6733 L1171.05 51.6733 Q1171.53 59.3701 1175.66 63.421 Q1179.84 67.4314 1187.25 67.4314 Q1191.54 67.4314 1195.55 66.3781 Q1199.6 65.3249 1203.57 63.2184 L1203.57 70.267 Q1199.56 71.9684 1195.35 72.8596 Q1191.14 73.7508 1186.8 73.7508 Q1175.95 73.7508 1169.59 67.4314 Q1163.27 61.1119 1163.27 50.3365 Q1163.27 39.1965 1169.26 32.6746 Q1175.3 26.1121 1185.51 26.1121 Q1194.66 26.1121 1199.97 32.0264 Q1205.32 37.9003 1205.32 48.0275 M1197.86 45.84 Q1197.78 39.7232 1194.42 36.0774 Q1191.1 32.4315 1185.59 32.4315 Q1179.35 32.4315 1175.58 35.9558 Q1171.86 39.4801 1171.29 45.8805 L1197.86 45.84 Z" fill="#000000" fill-rule="evenodd" fill-opacity="1"></path><path clip-path="url(#clip600)" d="M1252.43 18.8205 L1252.43 65.8515 L1262.31 65.8515 Q1274.83 65.8515 1280.62 60.1802 Q1286.46 54.509 1286.46 42.2752 Q1286.46 30.1225 1280.62 24.4918 Q1274.83 18.8205 1262.31 18.8205 L1252.43 18.8205 M1244.25 12.096 L1261.06 12.096 Q1278.64 12.096 1286.86 19.4281 Q1295.08 26.7198 1295.08 42.2752 Q1295.08 57.9117 1286.82 65.2439 Q1278.56 72.576 1261.06 72.576 L1244.25 72.576 L1244.25 12.096 Z" fill="#000000" fill-rule="evenodd" fill-opacity="1"></path><path clip-path="url(#clip600)" d="M1307.03 54.671 L1307.03 27.2059 L1314.49 27.2059 L1314.49 54.3874 Q1314.49 60.8284 1317 64.0691 Q1319.51 67.2693 1324.53 67.2693 Q1330.57 67.2693 1334.05 63.421 Q1337.58 59.5726 1337.58 52.9291 L1337.58 27.2059 L1345.03 27.2059 L1345.03 72.576 L1337.58 72.576 L1337.58 65.6084 Q1334.86 69.7404 1331.26 71.7658 Q1327.69 73.7508 1322.95 73.7508 Q1315.14 73.7508 1311.09 68.8897 Q1307.03 64.0286 1307.03 54.671 M1325.79 26.1121 L1325.79 26.1121 Z" fill="#000000" fill-rule="evenodd" fill-opacity="1"></path><path clip-path="url(#clip600)" d="M1386.68 34.1734 Q1385.42 33.4443 1383.92 33.1202 Q1382.46 32.7556 1380.68 32.7556 Q1374.36 32.7556 1370.96 36.8875 Q1367.6 40.9789 1367.6 48.6757 L1367.6 72.576 L1360.1 72.576 L1360.1 27.2059 L1367.6 27.2059 L1367.6 34.2544 Q1369.94 30.1225 1373.71 28.1376 Q1377.48 26.1121 1382.87 26.1121 Q1383.64 26.1121 1384.57 26.2337 Q1385.5 26.3147 1386.63 26.5172 L1386.68 34.1734 Z" fill="#000000" fill-rule="evenodd" fill-opacity="1"></path><path clip-path="url(#clip600)" d="M1394.49 27.2059 L1401.95 27.2059 L1401.95 72.576 L1394.49 72.576 L1394.49 27.2059 M1394.49 9.54393 L1401.95 9.54393 L1401.95 18.9825 L1394.49 18.9825 L1394.49 9.54393 Z" fill="#000000" fill-rule="evenodd" fill-opacity="1"></path><path clip-path="url(#clip600)" d="M1455.26 45.1919 L1455.26 72.576 L1447.8 72.576 L1447.8 45.4349 Q1447.8 38.994 1445.29 35.7938 Q1442.78 32.5936 1437.76 32.5936 Q1431.72 32.5936 1428.24 36.4419 Q1424.75 40.2903 1424.75 46.9338 L1424.75 72.576 L1417.26 72.576 L1417.26 27.2059 L1424.75 27.2059 L1424.75 34.2544 Q1427.43 30.163 1431.03 28.1376 Q1434.68 26.1121 1439.42 26.1121 Q1447.24 26.1121 1451.25 30.9732 Q1455.26 35.7938 1455.26 45.1919 Z" fill="#000000" fill-rule="evenodd" fill-opacity="1"></path><path clip-path="url(#clip600)" d="M1499.98 49.3643 Q1499.98 41.2625 1496.62 36.8065 Q1493.29 32.3505 1487.26 32.3505 Q1481.26 32.3505 1477.9 36.8065 Q1474.58 41.2625 1474.58 49.3643 Q1474.58 57.4256 1477.9 61.8816 Q1481.26 66.3376 1487.26 66.3376 Q1493.29 66.3376 1496.62 61.8816 Q1499.98 57.4256 1499.98 49.3643 M1507.43 66.9452 Q1507.43 78.5308 1502.29 84.1616 Q1497.14 89.8329 1486.53 89.8329 Q1482.6 89.8329 1479.12 89.2252 Q1475.63 88.6581 1472.35 87.4428 L1472.35 80.1917 Q1475.63 81.9741 1478.83 82.8248 Q1482.03 83.6755 1485.36 83.6755 Q1492.69 83.6755 1496.33 79.8271 Q1499.98 76.0193 1499.98 68.282 L1499.98 64.5957 Q1497.67 68.6061 1494.06 70.5911 Q1490.46 72.576 1485.44 72.576 Q1477.09 72.576 1471.99 66.2161 Q1466.88 59.8562 1466.88 49.3643 Q1466.88 38.832 1471.99 32.472 Q1477.09 26.1121 1485.44 26.1121 Q1490.46 26.1121 1494.06 28.0971 Q1497.67 30.082 1499.98 34.0924 L1499.98 27.2059 L1507.43 27.2059 L1507.43 66.9452 Z" fill="#000000" fill-rule="evenodd" fill-opacity="1"></path><path clip-path="url(#clip600)" d="M1549.48 12.096 L1557.66 12.096 L1557.66 65.6895 L1587.11 65.6895 L1587.11 72.576 L1549.48 72.576 L1549.48 12.096 Z" fill="#000000" fill-rule="evenodd" fill-opacity="1"></path><path clip-path="url(#clip600)" d="M1616 49.7694 Q1606.96 49.7694 1603.48 51.8354 Q1600 53.9013 1600 58.8839 Q1600 62.8538 1602.59 65.2034 Q1605.22 67.5124 1609.72 67.5124 Q1615.92 67.5124 1619.64 63.1374 Q1623.41 58.7219 1623.41 51.4303 L1623.41 49.7694 L1616 49.7694 M1630.86 46.6907 L1630.86 72.576 L1623.41 72.576 L1623.41 65.6895 Q1620.86 69.8214 1617.05 71.8063 Q1613.24 73.7508 1607.73 73.7508 Q1600.77 73.7508 1596.63 69.8619 Q1592.54 65.9325 1592.54 59.3701 Q1592.54 51.7138 1597.65 47.825 Q1602.79 43.9361 1612.96 43.9361 L1623.41 43.9361 L1623.41 43.2069 Q1623.41 38.0623 1620.01 35.2672 Q1616.64 32.4315 1610.53 32.4315 Q1606.64 32.4315 1602.95 33.3632 Q1599.27 34.295 1595.86 36.1584 L1595.86 29.2718 Q1599.96 27.692 1603.8 26.9223 Q1607.65 26.1121 1611.3 26.1121 Q1621.14 26.1121 1626 31.2163 Q1630.86 36.3204 1630.86 46.6907 Z" fill="#000000" fill-rule="evenodd" fill-opacity="1"></path><path clip-path="url(#clip600)" d="M1683.93 45.1919 L1683.93 72.576 L1676.48 72.576 L1676.48 45.4349 Q1676.48 38.994 1673.97 35.7938 Q1671.45 32.5936 1666.43 32.5936 Q1660.39 32.5936 1656.91 36.4419 Q1653.43 40.2903 1653.43 46.9338 L1653.43 72.576 L1645.93 72.576 L1645.93 27.2059 L1653.43 27.2059 L1653.43 34.2544 Q1656.1 30.163 1659.71 28.1376 Q1663.35 26.1121 1668.09 26.1121 Q1675.91 26.1121 1679.92 30.9732 Q1683.93 35.7938 1683.93 45.1919 Z" fill="#000000" fill-rule="evenodd" fill-opacity="1"></path><path clip-path="url(#clip600)" d="M1737.6 48.0275 L1737.6 51.6733 L1703.33 51.6733 Q1703.82 59.3701 1707.95 63.421 Q1712.12 67.4314 1719.54 67.4314 Q1723.83 67.4314 1727.84 66.3781 Q1731.89 65.3249 1735.86 63.2184 L1735.86 70.267 Q1731.85 71.9684 1727.64 72.8596 Q1723.43 73.7508 1719.09 73.7508 Q1708.24 73.7508 1701.88 67.4314 Q1695.56 61.1119 1695.56 50.3365 Q1695.56 39.1965 1701.55 32.6746 Q1707.59 26.1121 1717.8 26.1121 Q1726.95 26.1121 1732.26 32.0264 Q1737.6 37.9003 1737.6 48.0275 M1730.15 45.84 Q1730.07 39.7232 1726.71 36.0774 Q1723.39 32.4315 1717.88 32.4315 Q1711.64 32.4315 1707.87 35.9558 Q1704.14 39.4801 1703.58 45.8805 L1730.15 45.84 Z" fill="#000000" fill-rule="evenodd" fill-opacity="1"></path><path clip-path="url(#clip600)" d="M1821.82 16.7545 L1821.82 25.383 Q1817.69 21.5346 1812.99 19.6307 Q1808.33 17.7268 1803.07 17.7268 Q1792.7 17.7268 1787.19 24.0867 Q1781.68 30.4061 1781.68 42.3968 Q1781.68 54.3469 1787.19 60.7069 Q1792.7 67.0263 1803.07 67.0263 Q1808.33 67.0263 1812.99 65.1223 Q1817.69 63.2184 1821.82 59.3701 L1821.82 67.9175 Q1817.53 70.8341 1812.71 72.2924 Q1807.93 73.7508 1802.58 73.7508 Q1788.85 73.7508 1780.95 65.3654 Q1773.05 56.9395 1773.05 42.3968 Q1773.05 27.8135 1780.95 19.4281 Q1788.85 11.0023 1802.58 11.0023 Q1808.01 11.0023 1812.79 12.4606 Q1817.61 13.8784 1821.82 16.7545 Z" fill="#000000" fill-rule="evenodd" fill-opacity="1"></path><path clip-path="url(#clip600)" d="M1871.85 45.1919 L1871.85 72.576 L1864.4 72.576 L1864.4 45.4349 Q1864.4 38.994 1861.89 35.7938 Q1859.38 32.5936 1854.35 32.5936 Q1848.32 32.5936 1844.83 36.4419 Q1841.35 40.2903 1841.35 46.9338 L1841.35 72.576 L1833.85 72.576 L1833.85 9.54393 L1841.35 9.54393 L1841.35 34.2544 Q1844.02 30.163 1847.63 28.1376 Q1851.27 26.1121 1856.01 26.1121 Q1863.83 26.1121 1867.84 30.9732 Q1871.85 35.7938 1871.85 45.1919 Z" fill="#000000" fill-rule="evenodd" fill-opacity="1"></path><path clip-path="url(#clip600)" d="M1907.34 49.7694 Q1898.3 49.7694 1894.82 51.8354 Q1891.34 53.9013 1891.34 58.8839 Q1891.34 62.8538 1893.93 65.2034 Q1896.56 67.5124 1901.06 67.5124 Q1907.26 67.5124 1910.98 63.1374 Q1914.75 58.7219 1914.75 51.4303 L1914.75 49.7694 L1907.34 49.7694 M1922.2 46.6907 L1922.2 72.576 L1914.75 72.576 L1914.75 65.6895 Q1912.2 69.8214 1908.39 71.8063 Q1904.58 73.7508 1899.07 73.7508 Q1892.11 73.7508 1887.97 69.8619 Q1883.88 65.9325 1883.88 59.3701 Q1883.88 51.7138 1888.99 47.825 Q1894.13 43.9361 1904.3 43.9361 L1914.75 43.9361 L1914.75 43.2069 Q1914.75 38.0623 1911.35 35.2672 Q1907.99 32.4315 1901.87 32.4315 Q1897.98 32.4315 1894.29 33.3632 Q1890.61 34.295 1887.2 36.1584 L1887.2 29.2718 Q1891.3 27.692 1895.14 26.9223 Q1898.99 26.1121 1902.64 26.1121 Q1912.48 26.1121 1917.34 31.2163 Q1922.2 36.3204 1922.2 46.6907 Z" fill="#000000" fill-rule="evenodd" fill-opacity="1"></path><path clip-path="url(#clip600)" d="M1975.27 45.1919 L1975.27 72.576 L1967.82 72.576 L1967.82 45.4349 Q1967.82 38.994 1965.31 35.7938 Q1962.79 32.5936 1957.77 32.5936 Q1951.74 32.5936 1948.25 36.4419 Q1944.77 40.2903 1944.77 46.9338 L1944.77 72.576 L1937.27 72.576 L1937.27 27.2059 L1944.77 27.2059 L1944.77 34.2544 Q1947.44 30.163 1951.05 28.1376 Q1954.69 26.1121 1959.43 26.1121 Q1967.25 26.1121 1971.26 30.9732 Q1975.27 35.7938 1975.27 45.1919 Z" fill="#000000" fill-rule="evenodd" fill-opacity="1"></path><path clip-path="url(#clip600)" d="M2019.99 49.3643 Q2019.99 41.2625 2016.63 36.8065 Q2013.31 32.3505 2007.27 32.3505 Q2001.28 32.3505 1997.92 36.8065 Q1994.59 41.2625 1994.59 49.3643 Q1994.59 57.4256 1997.92 61.8816 Q2001.28 66.3376 2007.27 66.3376 Q2013.31 66.3376 2016.63 61.8816 Q2019.99 57.4256 2019.99 49.3643 M2027.45 66.9452 Q2027.45 78.5308 2022.3 84.1616 Q2017.16 89.8329 2006.54 89.8329 Q2002.62 89.8329 1999.13 89.2252 Q1995.65 88.6581 1992.37 87.4428 L1992.37 80.1917 Q1995.65 81.9741 1998.85 82.8248 Q2002.05 83.6755 2005.37 83.6755 Q2012.7 83.6755 2016.35 79.8271 Q2019.99 76.0193 2019.99 68.282 L2019.99 64.5957 Q2017.68 68.6061 2014.08 70.5911 Q2010.47 72.576 2005.45 72.576 Q1997.11 72.576 1992 66.2161 Q1986.9 59.8562 1986.9 49.3643 Q1986.9 38.832 1992 32.472 Q1997.11 26.1121 2005.45 26.1121 Q2010.47 26.1121 2014.08 28.0971 Q2017.68 30.082 2019.99 34.0924 L2019.99 27.2059 L2027.45 27.2059 L2027.45 66.9452 Z" fill="#000000" fill-rule="evenodd" fill-opacity="1"></path><path clip-path="url(#clip600)" d="M2081.61 48.0275 L2081.61 51.6733 L2047.34 51.6733 Q2047.82 59.3701 2051.96 63.421 Q2056.13 67.4314 2063.54 67.4314 Q2067.83 67.4314 2071.85 66.3781 Q2075.9 65.3249 2079.87 63.2184 L2079.87 70.267 Q2075.86 71.9684 2071.64 72.8596 Q2067.43 73.7508 2063.1 73.7508 Q2052.24 73.7508 2045.88 67.4314 Q2039.56 61.1119 2039.56 50.3365 Q2039.56 39.1965 2045.55 32.6746 Q2051.59 26.1121 2061.8 26.1121 Q2070.95 26.1121 2076.26 32.0264 Q2081.61 37.9003 2081.61 48.0275 M2074.15 45.84 Q2074.07 39.7232 2070.71 36.0774 Q2067.39 32.4315 2061.88 32.4315 Q2055.64 32.4315 2051.87 35.9558 Q2048.15 39.4801 2047.58 45.8805 L2074.15 45.84 Z" fill="#000000" fill-rule="evenodd" fill-opacity="1"></path><polyline clip-path="url(#clip602)" style="stroke:#009af9; stroke-linecap:round; stroke-linejoin:round; stroke-width:4; stroke-opacity:1; fill:none" points="
  367.346,1386.4 433.814,1380.64 500.283,1369.02 566.751,1353.81 633.219,1338.19 699.688,1325.88 766.156,1319.13 832.625,1318.19 899.093,1322.18 965.561,1331.16 
  1032.03,1342.58 1098.5,1353.11 1164.97,1361.89 1231.43,1368.62 1297.9,1000.06 1364.37,418.433 1430.84,160.256 1497.31,405.969 1563.78,978.466 1630.24,1341.23 
  1696.71,1332.12 1763.18,1325.8 1829.65,1321.96 1896.12,1322.68 1962.59,1328.61 2029.05,1339.94 2095.52,1353.98 2161.99,1366.63 2228.46,1375.34 2294.93,1379.27 
  
  "></polyline>
</svg>