<svg xmlns="http://www.w3.org/2000/svg" xmlns:xlink="http://www.w3.org/1999/xlink" width="600" height="400" viewBox="0 0 2400 1600">
<defs>
  <clipPath id="clip400">
    <rect x="0" y="0" width="2400" height="1600"></rect>
  </clipPath>
</defs>
<path clip-path="url(#clip400)" d="
M0 1600 L2400 1600 L2400 0 L0 0  Z
  " fill="#ffffff" fill-rule="evenodd" fill-opacity="1"></path>
<defs>
  <clipPath id="clip401">
    <rect x="480" y="0" width="1681" height="1600"></rect>
  </clipPath>
</defs>
<path clip-path="url(#clip400)" d="
M174.149 1423.18 L2352.76 1423.18 L2352.76 123.472 L174.149 123.472  Z
  " fill="#ffffff" fill-rule="evenodd" fill-opacity="1"></path>
<defs>
  <clipPath id="clip402">
    <rect x="174" y="123" width="2180" height="1301"></rect>
  </clipPath>
</defs>
<polyline clip-path="url(#clip402)" style="stroke:#000000; stroke-linecap:round; stroke-linejoin:round; stroke-width:2; stroke-opacity:0.1; fill:none" points="
  235.808,1423.18 235.808,123.472 
  "></polyline>
<polyline clip-path="url(#clip402)" style="stroke:#000000; stroke-linecap:round; stroke-linejoin:round; stroke-width:2; stroke-opacity:0.1; fill:none" points="
  753.935,1423.18 753.935,123.472 
  "></polyline>
<polyline clip-path="url(#clip402)" style="stroke:#000000; stroke-linecap:round; stroke-linejoin:round; stroke-width:2; stroke-opacity:0.1; fill:none" points="
  1272.06,1423.18 1272.06,123.472 
  "></polyline>
<polyline clip-path="url(#clip402)" style="stroke:#000000; stroke-linecap:round; stroke-linejoin:round; stroke-width:2; stroke-opacity:0.1; fill:none" points="
  1790.19,1423.18 1790.19,123.472 
  "></polyline>
<polyline clip-path="url(#clip402)" style="stroke:#000000; stroke-linecap:round; stroke-linejoin:round; stroke-width:2; stroke-opacity:0.1; fill:none" points="
  2308.32,1423.18 2308.32,123.472 
  "></polyline>
<polyline clip-path="url(#clip400)" style="stroke:#000000; stroke-linecap:round; stroke-linejoin:round; stroke-width:4; stroke-opacity:1; fill:none" points="
  174.149,1423.18 2352.76,1423.18 
  "></polyline>
<polyline clip-path="url(#clip400)" style="stroke:#000000; stroke-linecap:round; stroke-linejoin:round; stroke-width:4; stroke-opacity:1; fill:none" points="
  235.808,1423.18 235.808,1404.28 
  "></polyline>
<polyline clip-path="url(#clip400)" style="stroke:#000000; stroke-linecap:round; stroke-linejoin:round; stroke-width:4; stroke-opacity:1; fill:none" points="
  753.935,1423.18 753.935,1404.28 
  "></polyline>
<polyline clip-path="url(#clip400)" style="stroke:#000000; stroke-linecap:round; stroke-linejoin:round; stroke-width:4; stroke-opacity:1; fill:none" points="
  1272.06,1423.18 1272.06,1404.28 
  "></polyline>
<polyline clip-path="url(#clip400)" style="stroke:#000000; stroke-linecap:round; stroke-linejoin:round; stroke-width:4; stroke-opacity:1; fill:none" points="
  1790.19,1423.18 1790.19,1404.28 
  "></polyline>
<polyline clip-path="url(#clip400)" style="stroke:#000000; stroke-linecap:round; stroke-linejoin:round; stroke-width:4; stroke-opacity:1; fill:none" points="
  2308.32,1423.18 2308.32,1404.28 
  "></polyline>
<path clip-path="url(#clip400)" d="M235.808 1454.1 Q232.197 1454.1 230.368 1457.66 Q228.562 1461.2 228.562 1468.33 Q228.562 1475.44 230.368 1479.01 Q232.197 1482.55 235.808 1482.55 Q239.442 1482.55 241.247 1479.01 Q243.076 1475.44 243.076 1468.33 Q243.076 1461.2 241.247 1457.66 Q239.442 1454.1 235.808 1454.1 M235.808 1450.39 Q241.618 1450.39 244.673 1455 Q247.752 1459.58 247.752 1468.33 Q247.752 1477.06 244.673 1481.67 Q241.618 1486.25 235.808 1486.25 Q229.997 1486.25 226.919 1481.67 Q223.863 1477.06 223.863 1468.33 Q223.863 1459.58 226.919 1455 Q229.997 1450.39 235.808 1450.39 Z" fill="#000000" fill-rule="evenodd" fill-opacity="1"></path><path clip-path="url(#clip400)" d="M717.628 1481.64 L733.947 1481.64 L733.947 1485.58 L712.003 1485.58 L712.003 1481.64 Q714.665 1478.89 719.248 1474.26 Q723.855 1469.61 725.035 1468.27 Q727.281 1465.74 728.16 1464.01 Q729.063 1462.25 729.063 1460.56 Q729.063 1457.8 727.118 1456.07 Q725.197 1454.33 722.095 1454.33 Q719.896 1454.33 717.443 1455.09 Q715.012 1455.86 712.234 1457.41 L712.234 1452.69 Q715.058 1451.55 717.512 1450.97 Q719.966 1450.39 722.003 1450.39 Q727.373 1450.39 730.568 1453.08 Q733.762 1455.77 733.762 1460.26 Q733.762 1462.39 732.952 1464.31 Q732.165 1466.2 730.058 1468.8 Q729.48 1469.47 726.378 1472.69 Q723.276 1475.88 717.628 1481.64 Z" fill="#000000" fill-rule="evenodd" fill-opacity="1"></path><path clip-path="url(#clip400)" d="M753.762 1454.1 Q750.151 1454.1 748.322 1457.66 Q746.517 1461.2 746.517 1468.33 Q746.517 1475.44 748.322 1479.01 Q750.151 1482.55 753.762 1482.55 Q757.396 1482.55 759.202 1479.01 Q761.03 1475.44 761.03 1468.33 Q761.03 1461.2 759.202 1457.66 Q757.396 1454.1 753.762 1454.1 M753.762 1450.39 Q759.572 1450.39 762.628 1455 Q765.706 1459.58 765.706 1468.33 Q765.706 1477.06 762.628 1481.67 Q759.572 1486.25 753.762 1486.25 Q747.952 1486.25 744.873 1481.67 Q741.817 1477.06 741.817 1468.33 Q741.817 1459.58 744.873 1455 Q747.952 1450.39 753.762 1450.39 Z" fill="#000000" fill-rule="evenodd" fill-opacity="1"></path><path clip-path="url(#clip400)" d="M783.924 1454.1 Q780.313 1454.1 778.484 1457.66 Q776.678 1461.2 776.678 1468.33 Q776.678 1475.44 778.484 1479.01 Q780.313 1482.55 783.924 1482.55 Q787.558 1482.55 789.364 1479.01 Q791.192 1475.44 791.192 1468.33 Q791.192 1461.2 789.364 1457.66 Q787.558 1454.1 783.924 1454.1 M783.924 1450.39 Q789.734 1450.39 792.789 1455 Q795.868 1459.58 795.868 1468.33 Q795.868 1477.06 792.789 1481.67 Q789.734 1486.25 783.924 1486.25 Q778.114 1486.25 775.035 1481.67 Q771.979 1477.06 771.979 1468.33 Q771.979 1459.58 775.035 1455 Q778.114 1450.39 783.924 1450.39 Z" fill="#000000" fill-rule="evenodd" fill-opacity="1"></path><path clip-path="url(#clip400)" d="M1245.15 1455.09 L1233.35 1473.54 L1245.15 1473.54 L1245.15 1455.09 M1243.93 1451.02 L1249.81 1451.02 L1249.81 1473.54 L1254.74 1473.54 L1254.74 1477.43 L1249.81 1477.43 L1249.81 1485.58 L1245.15 1485.58 L1245.15 1477.43 L1229.55 1477.43 L1229.55 1472.92 L1243.93 1451.02 Z" fill="#000000" fill-rule="evenodd" fill-opacity="1"></path><path clip-path="url(#clip400)" d="M1272.47 1454.1 Q1268.86 1454.1 1267.03 1457.66 Q1265.22 1461.2 1265.22 1468.33 Q1265.22 1475.44 1267.03 1479.01 Q1268.86 1482.55 1272.47 1482.55 Q1276.1 1482.55 1277.91 1479.01 Q1279.74 1475.44 1279.74 1468.33 Q1279.74 1461.2 1277.91 1457.66 Q1276.1 1454.1 1272.47 1454.1 M1272.47 1450.39 Q1278.28 1450.39 1281.33 1455 Q1284.41 1459.58 1284.41 1468.33 Q1284.41 1477.06 1281.33 1481.67 Q1278.28 1486.25 1272.47 1486.25 Q1266.66 1486.25 1263.58 1481.67 Q1260.52 1477.06 1260.52 1468.33 Q1260.52 1459.58 1263.58 1455 Q1266.66 1450.39 1272.47 1450.39 Z" fill="#000000" fill-rule="evenodd" fill-opacity="1"></path><path clip-path="url(#clip400)" d="M1302.63 1454.1 Q1299.02 1454.1 1297.19 1457.66 Q1295.38 1461.2 1295.38 1468.33 Q1295.38 1475.44 1297.19 1479.01 Q1299.02 1482.55 1302.63 1482.55 Q1306.26 1482.55 1308.07 1479.01 Q1309.9 1475.44 1309.9 1468.33 Q1309.9 1461.2 1308.07 1457.66 Q1306.26 1454.1 1302.63 1454.1 M1302.63 1450.39 Q1308.44 1450.39 1311.5 1455 Q1314.57 1459.58 1314.57 1468.33 Q1314.57 1477.06 1311.5 1481.67 Q1308.44 1486.25 1302.63 1486.25 Q1296.82 1486.25 1293.74 1481.67 Q1290.69 1477.06 1290.69 1468.33 Q1290.69 1459.58 1293.74 1455 Q1296.82 1450.39 1302.63 1450.39 Z" fill="#000000" fill-rule="evenodd" fill-opacity="1"></path><path clip-path="url(#clip400)" d="M1760.52 1466.44 Q1757.37 1466.44 1755.52 1468.59 Q1753.69 1470.74 1753.69 1474.49 Q1753.69 1478.22 1755.52 1480.39 Q1757.37 1482.55 1760.52 1482.55 Q1763.66 1482.55 1765.49 1480.39 Q1767.34 1478.22 1767.34 1474.49 Q1767.34 1470.74 1765.49 1468.59 Q1763.66 1466.44 1760.52 1466.44 M1769.8 1451.78 L1769.8 1456.04 Q1768.04 1455.21 1766.23 1454.77 Q1764.45 1454.33 1762.69 1454.33 Q1758.06 1454.33 1755.61 1457.45 Q1753.18 1460.58 1752.83 1466.9 Q1754.2 1464.89 1756.26 1463.82 Q1758.32 1462.73 1760.79 1462.73 Q1766 1462.73 1769.01 1465.9 Q1772.04 1469.05 1772.04 1474.49 Q1772.04 1479.82 1768.9 1483.03 Q1765.75 1486.25 1760.52 1486.25 Q1754.52 1486.25 1751.35 1481.67 Q1748.18 1477.06 1748.18 1468.33 Q1748.18 1460.14 1752.07 1455.28 Q1755.96 1450.39 1762.51 1450.39 Q1764.27 1450.39 1766.05 1450.74 Q1767.85 1451.09 1769.8 1451.78 Z" fill="#000000" fill-rule="evenodd" fill-opacity="1"></path><path clip-path="url(#clip400)" d="M1790.1 1454.1 Q1786.49 1454.1 1784.66 1457.66 Q1782.85 1461.2 1782.85 1468.33 Q1782.85 1475.44 1784.66 1479.01 Q1786.49 1482.55 1790.1 1482.55 Q1793.73 1482.55 1795.54 1479.01 Q1797.37 1475.44 1797.37 1468.33 Q1797.37 1461.2 1795.54 1457.66 Q1793.73 1454.1 1790.1 1454.1 M1790.1 1450.39 Q1795.91 1450.39 1798.96 1455 Q1802.04 1459.58 1802.04 1468.33 Q1802.04 1477.06 1798.96 1481.67 Q1795.91 1486.25 1790.1 1486.25 Q1784.29 1486.25 1781.21 1481.67 Q1778.15 1477.06 1778.15 1468.33 Q1778.15 1459.58 1781.21 1455 Q1784.29 1450.39 1790.1 1450.39 Z" fill="#000000" fill-rule="evenodd" fill-opacity="1"></path><path clip-path="url(#clip400)" d="M1820.26 1454.1 Q1816.65 1454.1 1814.82 1457.66 Q1813.02 1461.2 1813.02 1468.33 Q1813.02 1475.44 1814.82 1479.01 Q1816.65 1482.55 1820.26 1482.55 Q1823.89 1482.55 1825.7 1479.01 Q1827.53 1475.44 1827.53 1468.33 Q1827.53 1461.2 1825.7 1457.66 Q1823.89 1454.1 1820.26 1454.1 M1820.26 1450.39 Q1826.07 1450.39 1829.13 1455 Q1832.2 1459.58 1832.2 1468.33 Q1832.2 1477.06 1829.13 1481.67 Q1826.07 1486.25 1820.26 1486.25 Q1814.45 1486.25 1811.37 1481.67 Q1808.32 1477.06 1808.32 1468.33 Q1808.32 1459.58 1811.37 1455 Q1814.45 1450.39 1820.26 1450.39 Z" fill="#000000" fill-rule="evenodd" fill-opacity="1"></path><path clip-path="url(#clip400)" d="M2278.11 1469.17 Q2274.78 1469.17 2272.86 1470.95 Q2270.96 1472.73 2270.96 1475.86 Q2270.96 1478.98 2272.86 1480.77 Q2274.78 1482.55 2278.11 1482.55 Q2281.44 1482.55 2283.37 1480.77 Q2285.29 1478.96 2285.29 1475.86 Q2285.29 1472.73 2283.37 1470.95 Q2281.47 1469.17 2278.11 1469.17 M2273.44 1467.18 Q2270.43 1466.44 2268.74 1464.38 Q2267.07 1462.32 2267.07 1459.35 Q2267.07 1455.21 2270.01 1452.8 Q2272.97 1450.39 2278.11 1450.39 Q2283.27 1450.39 2286.21 1452.8 Q2289.15 1455.21 2289.15 1459.35 Q2289.15 1462.32 2287.46 1464.38 Q2285.8 1466.44 2282.81 1467.18 Q2286.19 1467.96 2288.06 1470.26 Q2289.96 1472.55 2289.96 1475.86 Q2289.96 1480.88 2286.88 1483.57 Q2283.83 1486.25 2278.11 1486.25 Q2272.39 1486.25 2269.31 1483.57 Q2266.26 1480.88 2266.26 1475.86 Q2266.26 1472.55 2268.16 1470.26 Q2270.06 1467.96 2273.44 1467.18 M2271.72 1459.79 Q2271.72 1462.48 2273.39 1463.98 Q2275.08 1465.49 2278.11 1465.49 Q2281.12 1465.49 2282.81 1463.98 Q2284.52 1462.48 2284.52 1459.79 Q2284.52 1457.11 2282.81 1455.6 Q2281.12 1454.1 2278.11 1454.1 Q2275.08 1454.1 2273.39 1455.6 Q2271.72 1457.11 2271.72 1459.79 Z" fill="#000000" fill-rule="evenodd" fill-opacity="1"></path><path clip-path="url(#clip400)" d="M2308.27 1454.1 Q2304.66 1454.1 2302.83 1457.66 Q2301.03 1461.2 2301.03 1468.33 Q2301.03 1475.44 2302.83 1479.01 Q2304.66 1482.55 2308.27 1482.55 Q2311.91 1482.55 2313.71 1479.01 Q2315.54 1475.44 2315.54 1468.33 Q2315.54 1461.2 2313.71 1457.66 Q2311.91 1454.1 2308.27 1454.1 M2308.27 1450.39 Q2314.08 1450.39 2317.14 1455 Q2320.22 1459.58 2320.22 1468.33 Q2320.22 1477.06 2317.14 1481.67 Q2314.08 1486.25 2308.27 1486.25 Q2302.46 1486.25 2299.38 1481.67 Q2296.33 1477.06 2296.33 1468.33 Q2296.33 1459.58 2299.38 1455 Q2302.46 1450.39 2308.27 1450.39 Z" fill="#000000" fill-rule="evenodd" fill-opacity="1"></path><path clip-path="url(#clip400)" d="M2338.43 1454.1 Q2334.82 1454.1 2332.99 1457.66 Q2331.19 1461.2 2331.19 1468.33 Q2331.19 1475.44 2332.99 1479.01 Q2334.82 1482.55 2338.43 1482.55 Q2342.07 1482.55 2343.87 1479.01 Q2345.7 1475.44 2345.7 1468.33 Q2345.7 1461.2 2343.87 1457.66 Q2342.07 1454.1 2338.43 1454.1 M2338.43 1450.39 Q2344.24 1450.39 2347.3 1455 Q2350.38 1459.58 2350.38 1468.33 Q2350.38 1477.06 2347.3 1481.67 Q2344.24 1486.25 2338.43 1486.25 Q2332.62 1486.25 2329.55 1481.67 Q2326.49 1477.06 2326.49 1468.33 Q2326.49 1459.58 2329.55 1455 Q2332.62 1450.39 2338.43 1450.39 Z" fill="#000000" fill-rule="evenodd" fill-opacity="1"></path><path clip-path="url(#clip400)" d="M1042.26 1520.52 L1049.17 1520.52 L1060.98 1538.19 L1072.85 1520.52 L1079.75 1520.52 L1064.48 1543.34 L1080.77 1568.04 L1073.87 1568.04 L1060.5 1547.83 L1047.03 1568.04 L1040.1 1568.04 L1057.06 1542.68 L1042.26 1520.52 Z" fill="#000000" fill-rule="evenodd" fill-opacity="1"></path><path clip-path="url(#clip400)" d="M1116.36 1525.81 L1116.36 1543.66 L1124.44 1543.66 Q1128.93 1543.66 1131.38 1541.34 Q1133.83 1539.02 1133.83 1534.72 Q1133.83 1530.45 1131.38 1528.13 Q1128.93 1525.81 1124.44 1525.81 L1116.36 1525.81 M1109.93 1520.52 L1124.44 1520.52 Q1132.43 1520.52 1136.5 1524.15 Q1140.61 1527.75 1140.61 1534.72 Q1140.61 1541.75 1136.5 1545.35 Q1132.43 1548.95 1124.44 1548.95 L1116.36 1548.95 L1116.36 1568.04 L1109.93 1568.04 L1109.93 1520.52 Z" fill="#000000" fill-rule="evenodd" fill-opacity="1"></path><path clip-path="url(#clip400)" d="M1160.47 1536.5 Q1155.76 1536.5 1153.02 1540.19 Q1150.29 1543.85 1150.29 1550.25 Q1150.29 1556.65 1152.99 1560.34 Q1155.73 1564 1160.47 1564 Q1165.15 1564 1167.89 1560.31 Q1170.62 1556.62 1170.62 1550.25 Q1170.62 1543.92 1167.89 1540.23 Q1165.15 1536.5 1160.47 1536.5 M1160.47 1531.54 Q1168.11 1531.54 1172.47 1536.5 Q1176.83 1541.47 1176.83 1550.25 Q1176.83 1559 1172.47 1564 Q1168.11 1568.97 1160.47 1568.97 Q1152.8 1568.97 1148.44 1564 Q1144.11 1559 1144.11 1550.25 Q1144.11 1541.47 1148.44 1536.5 Q1152.8 1531.54 1160.47 1531.54 Z" fill="#000000" fill-rule="evenodd" fill-opacity="1"></path><path clip-path="url(#clip400)" d="M1209.26 1533.45 L1209.26 1538.98 Q1206.78 1537.71 1204.11 1537.07 Q1201.43 1536.44 1198.57 1536.44 Q1194.21 1536.44 1192.01 1537.77 Q1189.85 1539.11 1189.85 1541.79 Q1189.85 1543.82 1191.41 1545 Q1192.97 1546.15 1197.68 1547.2 L1199.68 1547.64 Q1205.92 1548.98 1208.53 1551.43 Q1211.17 1553.85 1211.17 1558.21 Q1211.17 1563.17 1207.23 1566.07 Q1203.31 1568.97 1196.44 1568.97 Q1193.57 1568.97 1190.45 1568.39 Q1187.37 1567.85 1183.93 1566.74 L1183.93 1560.69 Q1187.18 1562.38 1190.33 1563.24 Q1193.48 1564.07 1196.56 1564.07 Q1200.7 1564.07 1202.93 1562.66 Q1205.16 1561.23 1205.16 1558.65 Q1205.16 1556.27 1203.54 1554.99 Q1201.94 1553.72 1196.5 1552.54 L1194.46 1552.07 Q1189.02 1550.92 1186.6 1548.56 Q1184.18 1546.18 1184.18 1542.04 Q1184.18 1537.01 1187.75 1534.27 Q1191.31 1531.54 1197.87 1531.54 Q1201.12 1531.54 1203.98 1532.01 Q1206.85 1532.49 1209.26 1533.45 Z" fill="#000000" fill-rule="evenodd" fill-opacity="1"></path><path clip-path="url(#clip400)" d="M1220.5 1532.4 L1226.36 1532.4 L1226.36 1568.04 L1220.5 1568.04 L1220.5 1532.4 M1220.5 1518.52 L1226.36 1518.52 L1226.36 1525.93 L1220.5 1525.93 L1220.5 1518.52 Z" fill="#000000" fill-rule="evenodd" fill-opacity="1"></path><path clip-path="url(#clip400)" d="M1244.4 1522.27 L1244.4 1532.4 L1256.47 1532.4 L1256.47 1536.95 L1244.4 1536.95 L1244.4 1556.3 Q1244.4 1560.66 1245.58 1561.9 Q1246.79 1563.14 1250.45 1563.14 L1256.47 1563.14 L1256.47 1568.04 L1250.45 1568.04 Q1243.67 1568.04 1241.09 1565.53 Q1238.51 1562.98 1238.51 1556.3 L1238.51 1536.95 L1234.22 1536.95 L1234.22 1532.4 L1238.51 1532.4 L1238.51 1522.27 L1244.4 1522.27 Z" fill="#000000" fill-rule="evenodd" fill-opacity="1"></path><path clip-path="url(#clip400)" d="M1264.17 1532.4 L1270.03 1532.4 L1270.03 1568.04 L1264.17 1568.04 L1264.17 1532.4 M1264.17 1518.52 L1270.03 1518.52 L1270.03 1525.93 L1264.17 1525.93 L1264.17 1518.52 Z" fill="#000000" fill-rule="evenodd" fill-opacity="1"></path><path clip-path="url(#clip400)" d="M1296.09 1536.5 Q1291.38 1536.5 1288.64 1540.19 Q1285.91 1543.85 1285.91 1550.25 Q1285.91 1556.65 1288.61 1560.34 Q1291.35 1564 1296.09 1564 Q1300.77 1564 1303.51 1560.31 Q1306.25 1556.62 1306.25 1550.25 Q1306.25 1543.92 1303.51 1540.23 Q1300.77 1536.5 1296.09 1536.5 M1296.09 1531.54 Q1303.73 1531.54 1308.09 1536.5 Q1312.45 1541.47 1312.45 1550.25 Q1312.45 1559 1308.09 1564 Q1303.73 1568.97 1296.09 1568.97 Q1288.42 1568.97 1284.06 1564 Q1279.73 1559 1279.73 1550.25 Q1279.73 1541.47 1284.06 1536.5 Q1288.42 1531.54 1296.09 1531.54 Z" fill="#000000" fill-rule="evenodd" fill-opacity="1"></path><path clip-path="url(#clip400)" d="M1351.79 1546.53 L1351.79 1568.04 L1345.94 1568.04 L1345.94 1546.72 Q1345.94 1541.66 1343.96 1539.14 Q1341.99 1536.63 1338.04 1536.63 Q1333.3 1536.63 1330.56 1539.65 Q1327.83 1542.68 1327.83 1547.9 L1327.83 1568.04 L1321.94 1568.04 L1321.94 1532.4 L1327.83 1532.4 L1327.83 1537.93 Q1329.93 1534.72 1332.76 1533.13 Q1335.62 1531.54 1339.35 1531.54 Q1345.49 1531.54 1348.64 1535.36 Q1351.79 1539.14 1351.79 1546.53 Z" fill="#000000" fill-rule="evenodd" fill-opacity="1"></path><path clip-path="url(#clip400)" d="M1398.26 1518.58 Q1394 1525.9 1391.93 1533.06 Q1389.86 1540.23 1389.86 1547.58 Q1389.86 1554.93 1391.93 1562.16 Q1394.03 1569.35 1398.26 1576.64 L1393.17 1576.64 Q1388.4 1569.16 1386.01 1561.93 Q1383.65 1554.71 1383.65 1547.58 Q1383.65 1540.48 1386.01 1533.29 Q1388.36 1526.09 1393.17 1518.58 L1398.26 1518.58 Z" fill="#000000" fill-rule="evenodd" fill-opacity="1"></path><path clip-path="url(#clip400)" d="M1437.38 1539.24 Q1439.58 1535.29 1442.63 1533.41 Q1445.69 1531.54 1449.82 1531.54 Q1455.39 1531.54 1458.42 1535.45 Q1461.44 1539.33 1461.44 1546.53 L1461.44 1568.04 L1455.55 1568.04 L1455.55 1546.72 Q1455.55 1541.59 1453.74 1539.11 Q1451.93 1536.63 1448.2 1536.63 Q1443.65 1536.63 1441.01 1539.65 Q1438.37 1542.68 1438.37 1547.9 L1438.37 1568.04 L1432.48 1568.04 L1432.48 1546.72 Q1432.48 1541.56 1430.66 1539.11 Q1428.85 1536.63 1425.06 1536.63 Q1420.57 1536.63 1417.93 1539.68 Q1415.29 1542.71 1415.29 1547.9 L1415.29 1568.04 L1409.4 1568.04 L1409.4 1532.4 L1415.29 1532.4 L1415.29 1537.93 Q1417.3 1534.66 1420.1 1533.1 Q1422.9 1531.54 1426.75 1531.54 Q1430.63 1531.54 1433.34 1533.51 Q1436.07 1535.48 1437.38 1539.24 Z" fill="#000000" fill-rule="evenodd" fill-opacity="1"></path><path clip-path="url(#clip400)" d="M1472.2 1518.58 L1477.29 1518.58 Q1482.07 1526.09 1484.42 1533.29 Q1486.81 1540.48 1486.81 1547.58 Q1486.81 1554.71 1484.42 1561.93 Q1482.07 1569.16 1477.29 1576.64 L1472.2 1576.64 Q1476.43 1569.35 1478.5 1562.16 Q1480.6 1554.93 1480.6 1547.58 Q1480.6 1540.23 1478.5 1533.06 Q1476.43 1525.9 1472.2 1518.58 Z" fill="#000000" fill-rule="evenodd" fill-opacity="1"></path><polyline clip-path="url(#clip402)" style="stroke:#000000; stroke-linecap:round; stroke-linejoin:round; stroke-width:2; stroke-opacity:0.1; fill:none" points="
  174.149,1386.4 2352.76,1386.4 
  "></polyline>
<polyline clip-path="url(#clip402)" style="stroke:#000000; stroke-linecap:round; stroke-linejoin:round; stroke-width:2; stroke-opacity:0.1; fill:none" points="
  174.149,1055.01 2352.76,1055.01 
  "></polyline>
<polyline clip-path="url(#clip402)" style="stroke:#000000; stroke-linecap:round; stroke-linejoin:round; stroke-width:2; stroke-opacity:0.1; fill:none" points="
  174.149,723.618 2352.76,723.618 
  "></polyline>
<polyline clip-path="url(#clip402)" style="stroke:#000000; stroke-linecap:round; stroke-linejoin:round; stroke-width:2; stroke-opacity:0.1; fill:none" points="
  174.149,392.229 2352.76,392.229 
  "></polyline>
<polyline clip-path="url(#clip400)" style="stroke:#000000; stroke-linecap:round; stroke-linejoin:round; stroke-width:4; stroke-opacity:1; fill:none" points="
  174.149,1423.18 174.149,123.472 
  "></polyline>
<polyline clip-path="url(#clip400)" style="stroke:#000000; stroke-linecap:round; stroke-linejoin:round; stroke-width:4; stroke-opacity:1; fill:none" points="
  174.149,1386.4 193.047,1386.4 
  "></polyline>
<polyline clip-path="url(#clip400)" style="stroke:#000000; stroke-linecap:round; stroke-linejoin:round; stroke-width:4; stroke-opacity:1; fill:none" points="
  174.149,1055.01 193.047,1055.01 
  "></polyline>
<polyline clip-path="url(#clip400)" style="stroke:#000000; stroke-linecap:round; stroke-linejoin:round; stroke-width:4; stroke-opacity:1; fill:none" points="
  174.149,723.618 193.047,723.618 
  "></polyline>
<polyline clip-path="url(#clip400)" style="stroke:#000000; stroke-linecap:round; stroke-linejoin:round; stroke-width:4; stroke-opacity:1; fill:none" points="
  174.149,392.229 193.047,392.229 
  "></polyline>
<path clip-path="url(#clip400)" d="M126.205 1372.19 Q122.593 1372.19 120.765 1375.76 Q118.959 1379.3 118.959 1386.43 Q118.959 1393.54 120.765 1397.1 Q122.593 1400.64 126.205 1400.64 Q129.839 1400.64 131.644 1397.1 Q133.473 1393.54 133.473 1386.43 Q133.473 1379.3 131.644 1375.76 Q129.839 1372.19 126.205 1372.19 M126.205 1368.49 Q132.015 1368.49 135.07 1373.1 Q138.149 1377.68 138.149 1386.43 Q138.149 1395.16 135.07 1399.76 Q132.015 1404.35 126.205 1404.35 Q120.394 1404.35 117.316 1399.76 Q114.26 1395.16 114.26 1386.43 Q114.26 1377.68 117.316 1373.1 Q120.394 1368.49 126.205 1368.49 Z" fill="#000000" fill-rule="evenodd" fill-opacity="1"></path><path clip-path="url(#clip400)" d="M118.242 1068.35 L125.88 1068.35 L125.88 1041.99 L117.57 1043.65 L117.57 1039.39 L125.834 1037.73 L130.51 1037.73 L130.51 1068.35 L138.149 1068.35 L138.149 1072.29 L118.242 1072.29 L118.242 1068.35 Z" fill="#000000" fill-rule="evenodd" fill-opacity="1"></path><path clip-path="url(#clip400)" d="M121.83 736.962 L138.149 736.962 L138.149 740.898 L116.205 740.898 L116.205 736.962 Q118.867 734.208 123.45 729.578 Q128.056 724.926 129.237 723.583 Q131.482 721.06 132.362 719.324 Q133.265 717.564 133.265 715.875 Q133.265 713.12 131.32 711.384 Q129.399 709.648 126.297 709.648 Q124.098 709.648 121.644 710.412 Q119.214 711.176 116.436 712.726 L116.436 708.004 Q119.26 706.87 121.714 706.291 Q124.168 705.713 126.205 705.713 Q131.575 705.713 134.769 708.398 Q137.964 711.083 137.964 715.574 Q137.964 717.703 137.154 719.625 Q136.367 721.523 134.26 724.115 Q133.681 724.787 130.58 728.004 Q127.478 731.199 121.83 736.962 Z" fill="#000000" fill-rule="evenodd" fill-opacity="1"></path><path clip-path="url(#clip400)" d="M131.019 390.874 Q134.376 391.592 136.251 393.861 Q138.149 396.129 138.149 399.462 Q138.149 404.578 134.63 407.379 Q131.112 410.18 124.63 410.18 Q122.455 410.18 120.14 409.74 Q117.848 409.323 115.394 408.467 L115.394 403.953 Q117.339 405.087 119.654 405.666 Q121.968 406.245 124.492 406.245 Q128.89 406.245 131.181 404.509 Q133.496 402.773 133.496 399.462 Q133.496 396.407 131.343 394.694 Q129.214 392.958 125.394 392.958 L121.367 392.958 L121.367 389.115 L125.58 389.115 Q129.029 389.115 130.857 387.749 Q132.686 386.361 132.686 383.768 Q132.686 381.106 130.788 379.694 Q128.913 378.259 125.394 378.259 Q123.473 378.259 121.274 378.675 Q119.075 379.092 116.436 379.972 L116.436 375.805 Q119.098 375.064 121.413 374.694 Q123.751 374.324 125.811 374.324 Q131.135 374.324 134.237 376.754 Q137.339 379.162 137.339 383.282 Q137.339 386.152 135.695 388.143 Q134.052 390.111 131.019 390.874 Z" fill="#000000" fill-rule="evenodd" fill-opacity="1"></path><path clip-path="url(#clip400)" d="M16.4842 995.298 L16.4842 988.391 L36.0269 975.214 L16.4842 962.133 L16.4842 955.226 L41.3741 972.032 L64.0042 972.032 L64.0042 978.493 L41.3741 978.493 L16.4842 995.298 Z" fill="#000000" fill-rule="evenodd" fill-opacity="1"></path><path clip-path="url(#clip400)" d="M21.7677 921.806 L39.6235 921.806 L39.6235 913.722 Q39.6235 909.234 37.3 906.783 Q34.9765 904.332 30.6797 904.332 Q26.4147 904.332 24.0912 906.783 Q21.7677 909.234 21.7677 913.722 L21.7677 921.806 M16.4842 928.235 L16.4842 913.722 Q16.4842 905.733 20.1126 901.659 Q23.7092 897.553 30.6797 897.553 Q37.7138 897.553 41.3104 901.659 Q44.907 905.733 44.907 913.722 L44.907 921.806 L64.0042 921.806 L64.0042 928.235 L16.4842 928.235 Z" fill="#000000" fill-rule="evenodd" fill-opacity="1"></path><path clip-path="url(#clip400)" d="M32.4621 877.692 Q32.4621 882.402 36.1542 885.14 Q39.8145 887.877 46.212 887.877 Q52.6095 887.877 56.3017 885.171 Q59.9619 882.434 59.9619 877.692 Q59.9619 873.013 56.2698 870.276 Q52.5777 867.538 46.212 867.538 Q39.8781 867.538 36.186 870.276 Q32.4621 873.013 32.4621 877.692 M27.4968 877.692 Q27.4968 870.053 32.4621 865.692 Q37.4273 861.332 46.212 861.332 Q54.9649 861.332 59.9619 865.692 Q64.9272 870.053 64.9272 877.692 Q64.9272 885.362 59.9619 889.723 Q54.9649 894.052 46.212 894.052 Q37.4273 894.052 32.4621 889.723 Q27.4968 885.362 27.4968 877.692 Z" fill="#000000" fill-rule="evenodd" fill-opacity="1"></path><path clip-path="url(#clip400)" d="M29.4065 828.899 L34.9447 828.899 Q33.6716 831.381 33.035 834.055 Q32.3984 836.728 32.3984 839.593 Q32.3984 843.953 33.7352 846.15 Q35.072 848.314 37.7456 848.314 Q39.7826 848.314 40.9603 846.754 Q42.1061 845.195 43.1565 840.484 L43.6021 838.479 Q44.9389 832.241 47.3897 829.631 Q49.8086 826.989 54.1691 826.989 Q59.1344 826.989 62.0308 830.936 Q64.9272 834.851 64.9272 841.726 Q64.9272 844.59 64.3543 847.709 Q63.8132 850.797 62.6992 854.234 L56.6518 854.234 Q58.3387 850.988 59.198 847.837 Q60.0256 844.686 60.0256 841.598 Q60.0256 837.46 58.6251 835.232 Q57.1929 833.004 54.6147 833.004 Q52.2276 833.004 50.9545 834.628 Q49.6813 836.219 48.5037 841.662 L48.0262 843.699 Q46.8804 849.142 44.5251 851.561 Q42.138 853.979 38.0002 853.979 Q32.9713 853.979 30.2341 850.415 Q27.4968 846.85 27.4968 840.293 Q27.4968 837.047 27.9743 834.182 Q28.4517 831.318 29.4065 828.899 Z" fill="#000000" fill-rule="evenodd" fill-opacity="1"></path><path clip-path="url(#clip400)" d="M28.3562 817.663 L28.3562 811.807 L64.0042 811.807 L64.0042 817.663 L28.3562 817.663 M14.479 817.663 L14.479 811.807 L21.895 811.807 L21.895 817.663 L14.479 817.663 Z" fill="#000000" fill-rule="evenodd" fill-opacity="1"></path><path clip-path="url(#clip400)" d="M18.2347 793.76 L28.3562 793.76 L28.3562 781.697 L32.9077 781.697 L32.9077 793.76 L52.2594 793.76 Q56.6199 793.76 57.8613 792.582 Q59.1026 791.373 59.1026 787.712 L59.1026 781.697 L64.0042 781.697 L64.0042 787.712 Q64.0042 794.492 61.4897 797.07 Q58.9434 799.648 52.2594 799.648 L32.9077 799.648 L32.9077 803.945 L28.3562 803.945 L28.3562 799.648 L18.2347 799.648 L18.2347 793.76 Z" fill="#000000" fill-rule="evenodd" fill-opacity="1"></path><path clip-path="url(#clip400)" d="M28.3562 773.994 L28.3562 768.138 L64.0042 768.138 L64.0042 773.994 L28.3562 773.994 M14.479 773.994 L14.479 768.138 L21.895 768.138 L21.895 773.994 L14.479 773.994 Z" fill="#000000" fill-rule="evenodd" fill-opacity="1"></path><path clip-path="url(#clip400)" d="M32.4621 742.07 Q32.4621 746.781 36.1542 749.518 Q39.8145 752.255 46.212 752.255 Q52.6095 752.255 56.3017 749.55 Q59.9619 746.813 59.9619 742.07 Q59.9619 737.392 56.2698 734.654 Q52.5777 731.917 46.212 731.917 Q39.8781 731.917 36.186 734.654 Q32.4621 737.392 32.4621 742.07 M27.4968 742.07 Q27.4968 734.432 32.4621 730.071 Q37.4273 725.71 46.212 725.71 Q54.9649 725.71 59.9619 730.071 Q64.9272 734.432 64.9272 742.07 Q64.9272 749.741 59.9619 754.102 Q54.9649 758.43 46.212 758.43 Q37.4273 758.43 32.4621 754.102 Q27.4968 749.741 27.4968 742.07 Z" fill="#000000" fill-rule="evenodd" fill-opacity="1"></path><path clip-path="url(#clip400)" d="M42.4881 686.37 L64.0042 686.37 L64.0042 692.227 L42.679 692.227 Q37.6183 692.227 35.1038 694.2 Q32.5894 696.174 32.5894 700.12 Q32.5894 704.863 35.6131 707.6 Q38.6368 710.337 43.8567 710.337 L64.0042 710.337 L64.0042 716.226 L28.3562 716.226 L28.3562 710.337 L33.8944 710.337 Q30.6797 708.237 29.0883 705.404 Q27.4968 702.539 27.4968 698.815 Q27.4968 692.672 31.3163 689.521 Q35.1038 686.37 42.4881 686.37 Z" fill="#000000" fill-rule="evenodd" fill-opacity="1"></path><path clip-path="url(#clip400)" d="M14.5426 639.901 Q21.8632 644.166 29.0246 646.235 Q36.186 648.304 43.5384 648.304 Q50.8908 648.304 58.1159 646.235 Q65.3091 644.134 72.5979 639.901 L72.5979 644.993 Q65.1182 649.768 57.8931 652.155 Q50.668 654.51 43.5384 654.51 Q36.4406 654.51 29.2474 652.155 Q22.0542 649.799 14.5426 644.993 L14.5426 639.901 Z" fill="#000000" fill-rule="evenodd" fill-opacity="1"></path><path clip-path="url(#clip400)" d="M35.1993 600.784 Q31.2526 598.587 29.3747 595.532 Q27.4968 592.476 27.4968 588.339 Q27.4968 582.769 31.4117 579.745 Q35.2948 576.721 42.4881 576.721 L64.0042 576.721 L64.0042 582.609 L42.679 582.609 Q37.5546 582.609 35.072 584.424 Q32.5894 586.238 32.5894 589.962 Q32.5894 594.513 35.6131 597.155 Q38.6368 599.797 43.8567 599.797 L64.0042 599.797 L64.0042 605.685 L42.679 605.685 Q37.5228 605.685 35.072 607.499 Q32.5894 609.314 32.5894 613.101 Q32.5894 617.589 35.6449 620.231 Q38.6686 622.873 43.8567 622.873 L64.0042 622.873 L64.0042 628.761 L28.3562 628.761 L28.3562 622.873 L33.8944 622.873 Q30.616 620.867 29.0564 618.066 Q27.4968 615.265 27.4968 611.414 Q27.4968 607.531 29.4702 604.826 Q31.4436 602.088 35.1993 600.784 Z" fill="#000000" fill-rule="evenodd" fill-opacity="1"></path><path clip-path="url(#clip400)" d="M14.5426 565.963 L14.5426 560.871 Q22.0542 556.096 29.2474 553.741 Q36.4406 551.354 43.5384 551.354 Q50.668 551.354 57.8931 553.741 Q65.1182 556.096 72.5979 560.871 L72.5979 565.963 Q65.3091 561.73 58.1159 559.661 Q50.8908 557.56 43.5384 557.56 Q36.186 557.56 29.0246 559.661 Q21.8632 561.73 14.5426 565.963 Z" fill="#000000" fill-rule="evenodd" fill-opacity="1"></path><path clip-path="url(#clip400)" d="M632.099 12.096 L640.282 12.096 L640.282 65.6895 L669.732 65.6895 L669.732 72.576 L632.099 72.576 L632.099 12.096 Z" fill="#000000" fill-rule="evenodd" fill-opacity="1"></path><path clip-path="url(#clip400)" d="M698.615 49.7694 Q689.581 49.7694 686.097 51.8354 Q682.614 53.9013 682.614 58.8839 Q682.614 62.8538 685.206 65.2034 Q687.839 67.5124 692.336 67.5124 Q698.534 67.5124 702.26 63.1374 Q706.028 58.7219 706.028 51.4303 L706.028 49.7694 L698.615 49.7694 M713.481 46.6907 L713.481 72.576 L706.028 72.576 L706.028 65.6895 Q703.476 69.8214 699.668 71.8063 Q695.86 73.7508 690.351 73.7508 Q683.383 73.7508 679.251 69.8619 Q675.16 65.9325 675.16 59.3701 Q675.16 51.7138 680.264 47.825 Q685.409 43.9361 695.576 43.9361 L706.028 43.9361 L706.028 43.2069 Q706.028 38.0623 702.625 35.2672 Q699.263 32.4315 693.146 32.4315 Q689.257 32.4315 685.571 33.3632 Q681.884 34.295 678.482 36.1584 L678.482 29.2718 Q682.573 27.692 686.421 26.9223 Q690.27 26.1121 693.916 26.1121 Q703.759 26.1121 708.62 31.2163 Q713.481 36.3204 713.481 46.6907 Z" fill="#000000" fill-rule="evenodd" fill-opacity="1"></path><path clip-path="url(#clip400)" d="M766.548 45.1919 L766.548 72.576 L759.095 72.576 L759.095 45.4349 Q759.095 38.994 756.583 35.7938 Q754.071 32.5936 749.048 32.5936 Q743.012 32.5936 739.529 36.4419 Q736.045 40.2903 736.045 46.9338 L736.045 72.576 L728.551 72.576 L728.551 27.2059 L736.045 27.2059 L736.045 34.2544 Q738.719 30.163 742.324 28.1376 Q745.97 26.1121 750.709 26.1121 Q758.527 26.1121 762.538 30.9732 Q766.548 35.7938 766.548 45.1919 Z" fill="#000000" fill-rule="evenodd" fill-opacity="1"></path><path clip-path="url(#clip400)" d="M820.223 48.0275 L820.223 51.6733 L785.952 51.6733 Q786.438 59.3701 790.57 63.421 Q794.743 67.4314 802.156 67.4314 Q806.45 67.4314 810.46 66.3781 Q814.511 65.3249 818.481 63.2184 L818.481 70.267 Q814.47 71.9684 810.258 72.8596 Q806.045 73.7508 801.71 73.7508 Q790.854 73.7508 784.494 67.4314 Q778.174 61.1119 778.174 50.3365 Q778.174 39.1965 784.17 32.6746 Q790.206 26.1121 800.414 26.1121 Q809.569 26.1121 814.876 32.0264 Q820.223 37.9003 820.223 48.0275 M812.769 45.84 Q812.688 39.7232 809.326 36.0774 Q806.004 32.4315 800.495 32.4315 Q794.256 32.4315 790.489 35.9558 Q786.762 39.4801 786.195 45.8805 L812.769 45.84 Z" fill="#000000" fill-rule="evenodd" fill-opacity="1"></path><path clip-path="url(#clip400)" d="M904.441 16.7545 L904.441 25.383 Q900.309 21.5346 895.61 19.6307 Q890.952 17.7268 885.685 17.7268 Q875.315 17.7268 869.806 24.0867 Q864.297 30.4061 864.297 42.3968 Q864.297 54.3469 869.806 60.7069 Q875.315 67.0263 885.685 67.0263 Q890.952 67.0263 895.61 65.1223 Q900.309 63.2184 904.441 59.3701 L904.441 67.9175 Q900.147 70.8341 895.326 72.2924 Q890.546 73.7508 885.199 73.7508 Q871.467 73.7508 863.567 65.3654 Q855.668 56.9395 855.668 42.3968 Q855.668 27.8135 863.567 19.4281 Q871.467 11.0023 885.199 11.0023 Q890.627 11.0023 895.408 12.4606 Q900.228 13.8784 904.441 16.7545 Z" fill="#000000" fill-rule="evenodd" fill-opacity="1"></path><path clip-path="url(#clip400)" d="M954.47 45.1919 L954.47 72.576 L947.016 72.576 L947.016 45.4349 Q947.016 38.994 944.504 35.7938 Q941.993 32.5936 936.97 32.5936 Q930.934 32.5936 927.45 36.4419 Q923.966 40.2903 923.966 46.9338 L923.966 72.576 L916.472 72.576 L916.472 9.54393 L923.966 9.54393 L923.966 34.2544 Q926.64 30.163 930.245 28.1376 Q933.891 26.1121 938.631 26.1121 Q946.449 26.1121 950.459 30.9732 Q954.47 35.7938 954.47 45.1919 Z" fill="#000000" fill-rule="evenodd" fill-opacity="1"></path><path clip-path="url(#clip400)" d="M989.956 49.7694 Q980.922 49.7694 977.438 51.8354 Q973.955 53.9013 973.955 58.8839 Q973.955 62.8538 976.547 65.2034 Q979.18 67.5124 983.677 67.5124 Q989.875 67.5124 993.601 63.1374 Q997.369 58.7219 997.369 51.4303 L997.369 49.7694 L989.956 49.7694 M1004.82 46.6907 L1004.82 72.576 L997.369 72.576 L997.369 65.6895 Q994.817 69.8214 991.009 71.8063 Q987.201 73.7508 981.692 73.7508 Q974.724 73.7508 970.592 69.8619 Q966.501 65.9325 966.501 59.3701 Q966.501 51.7138 971.605 47.825 Q976.75 43.9361 986.917 43.9361 L997.369 43.9361 L997.369 43.2069 Q997.369 38.0623 993.966 35.2672 Q990.604 32.4315 984.487 32.4315 Q980.598 32.4315 976.912 33.3632 Q973.225 34.295 969.823 36.1584 L969.823 29.2718 Q973.914 27.692 977.762 26.9223 Q981.611 26.1121 985.257 26.1121 Q995.1 26.1121 999.961 31.2163 Q1004.82 36.3204 1004.82 46.6907 Z" fill="#000000" fill-rule="evenodd" fill-opacity="1"></path><path clip-path="url(#clip400)" d="M1057.89 45.1919 L1057.89 72.576 L1050.44 72.576 L1050.44 45.4349 Q1050.44 38.994 1047.92 35.7938 Q1045.41 32.5936 1040.39 32.5936 Q1034.35 32.5936 1030.87 36.4419 Q1027.39 40.2903 1027.39 46.9338 L1027.39 72.576 L1019.89 72.576 L1019.89 27.2059 L1027.39 27.2059 L1027.39 34.2544 Q1030.06 30.163 1033.66 28.1376 Q1037.31 26.1121 1042.05 26.1121 Q1049.87 26.1121 1053.88 30.9732 Q1057.89 35.7938 1057.89 45.1919 Z" fill="#000000" fill-rule="evenodd" fill-opacity="1"></path><path clip-path="url(#clip400)" d="M1102.61 49.3643 Q1102.61 41.2625 1099.25 36.8065 Q1095.93 32.3505 1089.89 32.3505 Q1083.9 32.3505 1080.53 36.8065 Q1077.21 41.2625 1077.21 49.3643 Q1077.21 57.4256 1080.53 61.8816 Q1083.9 66.3376 1089.89 66.3376 Q1095.93 66.3376 1099.25 61.8816 Q1102.61 57.4256 1102.61 49.3643 M1110.06 66.9452 Q1110.06 78.5308 1104.92 84.1616 Q1099.78 89.8329 1089.16 89.8329 Q1085.23 89.8329 1081.75 89.2252 Q1078.27 88.6581 1074.98 87.4428 L1074.98 80.1917 Q1078.27 81.9741 1081.47 82.8248 Q1084.67 83.6755 1087.99 83.6755 Q1095.32 83.6755 1098.97 79.8271 Q1102.61 76.0193 1102.61 68.282 L1102.61 64.5957 Q1100.3 68.6061 1096.7 70.5911 Q1093.09 72.576 1088.07 72.576 Q1079.72 72.576 1074.62 66.2161 Q1069.52 59.8562 1069.52 49.3643 Q1069.52 38.832 1074.62 32.472 Q1079.72 26.1121 1088.07 26.1121 Q1093.09 26.1121 1096.7 28.0971 Q1100.3 30.082 1102.61 34.0924 L1102.61 27.2059 L1110.06 27.2059 L1110.06 66.9452 Z" fill="#000000" fill-rule="evenodd" fill-opacity="1"></path><path clip-path="url(#clip400)" d="M1164.23 48.0275 L1164.23 51.6733 L1129.95 51.6733 Q1130.44 59.3701 1134.57 63.421 Q1138.75 67.4314 1146.16 67.4314 Q1150.45 67.4314 1154.46 66.3781 Q1158.51 65.3249 1162.48 63.2184 L1162.48 70.267 Q1158.47 71.9684 1154.26 72.8596 Q1150.05 73.7508 1145.71 73.7508 Q1134.86 73.7508 1128.5 67.4314 Q1122.18 61.1119 1122.18 50.3365 Q1122.18 39.1965 1128.17 32.6746 Q1134.21 26.1121 1144.42 26.1121 Q1153.57 26.1121 1158.88 32.0264 Q1164.23 37.9003 1164.23 48.0275 M1156.77 45.84 Q1156.69 39.7232 1153.33 36.0774 Q1150.01 32.4315 1144.5 32.4315 Q1138.26 32.4315 1134.49 35.9558 Q1130.77 39.4801 1130.2 45.8805 L1156.77 45.84 Z" fill="#000000" fill-rule="evenodd" fill-opacity="1"></path><path clip-path="url(#clip400)" d="M1202.83 27.2059 L1210.28 27.2059 L1210.28 72.576 L1202.83 72.576 L1202.83 27.2059 M1202.83 9.54393 L1210.28 9.54393 L1210.28 18.9825 L1202.83 18.9825 L1202.83 9.54393 Z" fill="#000000" fill-rule="evenodd" fill-opacity="1"></path><path clip-path="url(#clip400)" d="M1263.59 45.1919 L1263.59 72.576 L1256.14 72.576 L1256.14 45.4349 Q1256.14 38.994 1253.63 35.7938 Q1251.12 32.5936 1246.09 32.5936 Q1240.06 32.5936 1236.57 36.4419 Q1233.09 40.2903 1233.09 46.9338 L1233.09 72.576 L1225.6 72.576 L1225.6 27.2059 L1233.09 27.2059 L1233.09 34.2544 Q1235.76 30.163 1239.37 28.1376 Q1243.02 26.1121 1247.76 26.1121 Q1255.57 26.1121 1259.58 30.9732 Q1263.59 35.7938 1263.59 45.1919 Z" fill="#000000" fill-rule="evenodd" fill-opacity="1"></path><path clip-path="url(#clip400)" d="M1313.34 18.8205 L1313.34 41.5461 L1323.63 41.5461 Q1329.34 41.5461 1332.46 38.5889 Q1335.58 35.6318 1335.58 30.163 Q1335.58 24.7348 1332.46 21.7777 Q1329.34 18.8205 1323.63 18.8205 L1313.34 18.8205 M1305.16 12.096 L1323.63 12.096 Q1333.8 12.096 1338.98 16.714 Q1344.21 21.2916 1344.21 30.163 Q1344.21 39.1155 1338.98 43.6931 Q1333.8 48.2706 1323.63 48.2706 L1313.34 48.2706 L1313.34 72.576 L1305.16 72.576 L1305.16 12.096 Z" fill="#000000" fill-rule="evenodd" fill-opacity="1"></path><path clip-path="url(#clip400)" d="M1369.48 32.4315 Q1363.49 32.4315 1360.01 37.1306 Q1356.52 41.7891 1356.52 49.9314 Q1356.52 58.0738 1359.97 62.7728 Q1363.45 67.4314 1369.48 67.4314 Q1375.44 67.4314 1378.92 62.7323 Q1382.41 58.0333 1382.41 49.9314 Q1382.41 41.8701 1378.92 37.1711 Q1375.44 32.4315 1369.48 32.4315 M1369.48 26.1121 Q1379.21 26.1121 1384.76 32.4315 Q1390.31 38.7509 1390.31 49.9314 Q1390.31 61.0714 1384.76 67.4314 Q1379.21 73.7508 1369.48 73.7508 Q1359.72 73.7508 1354.17 67.4314 Q1348.66 61.0714 1348.66 49.9314 Q1348.66 38.7509 1354.17 32.4315 Q1359.72 26.1121 1369.48 26.1121 Z" fill="#000000" fill-rule="evenodd" fill-opacity="1"></path><path clip-path="url(#clip400)" d="M1431.59 28.5427 L1431.59 35.5912 Q1428.43 33.9709 1425.02 33.1607 Q1421.62 32.3505 1417.97 32.3505 Q1412.42 32.3505 1409.63 34.0519 Q1406.87 35.7533 1406.87 39.156 Q1406.87 41.7486 1408.86 43.2475 Q1410.84 44.7058 1416.84 46.0426 L1419.39 46.6097 Q1427.33 48.3111 1430.65 51.4303 Q1434.02 54.509 1434.02 60.0587 Q1434.02 66.3781 1428.99 70.0644 Q1424.01 73.7508 1415.26 73.7508 Q1411.61 73.7508 1407.64 73.0216 Q1403.71 72.3329 1399.34 70.9151 L1399.34 63.2184 Q1403.47 65.3654 1407.48 66.4591 Q1411.49 67.5124 1415.42 67.5124 Q1420.69 67.5124 1423.52 65.73 Q1426.36 63.9071 1426.36 60.6258 Q1426.36 57.5877 1424.29 55.9673 Q1422.27 54.3469 1415.34 52.8481 L1412.75 52.2405 Q1405.82 50.7821 1402.74 47.7845 Q1399.66 44.7463 1399.66 39.4801 Q1399.66 33.0797 1404.2 29.5959 Q1408.74 26.1121 1417.08 26.1121 Q1421.21 26.1121 1424.86 26.7198 Q1428.51 27.3274 1431.59 28.5427 Z" fill="#000000" fill-rule="evenodd" fill-opacity="1"></path><path clip-path="url(#clip400)" d="M1445.88 27.2059 L1453.34 27.2059 L1453.34 72.576 L1445.88 72.576 L1445.88 27.2059 M1445.88 9.54393 L1453.34 9.54393 L1453.34 18.9825 L1445.88 18.9825 L1445.88 9.54393 Z" fill="#000000" fill-rule="evenodd" fill-opacity="1"></path><path clip-path="url(#clip400)" d="M1476.31 14.324 L1476.31 27.2059 L1491.66 27.2059 L1491.66 32.9987 L1476.31 32.9987 L1476.31 57.6282 Q1476.31 63.1779 1477.81 64.7578 Q1479.35 66.3376 1484 66.3376 L1491.66 66.3376 L1491.66 72.576 L1484 72.576 Q1475.38 72.576 1472.09 69.3758 Q1468.81 66.1351 1468.81 57.6282 L1468.81 32.9987 L1463.34 32.9987 L1463.34 27.2059 L1468.81 27.2059 L1468.81 14.324 L1476.31 14.324 Z" fill="#000000" fill-rule="evenodd" fill-opacity="1"></path><path clip-path="url(#clip400)" d="M1501.46 27.2059 L1508.92 27.2059 L1508.92 72.576 L1501.46 72.576 L1501.46 27.2059 M1501.46 9.54393 L1508.92 9.54393 L1508.92 18.9825 L1501.46 18.9825 L1501.46 9.54393 Z" fill="#000000" fill-rule="evenodd" fill-opacity="1"></path><path clip-path="url(#clip400)" d="M1542.09 32.4315 Q1536.1 32.4315 1532.61 37.1306 Q1529.13 41.7891 1529.13 49.9314 Q1529.13 58.0738 1532.57 62.7728 Q1536.06 67.4314 1542.09 67.4314 Q1548.05 67.4314 1551.53 62.7323 Q1555.02 58.0333 1555.02 49.9314 Q1555.02 41.8701 1551.53 37.1711 Q1548.05 32.4315 1542.09 32.4315 M1542.09 26.1121 Q1551.82 26.1121 1557.37 32.4315 Q1562.92 38.7509 1562.92 49.9314 Q1562.92 61.0714 1557.37 67.4314 Q1551.82 73.7508 1542.09 73.7508 Q1532.33 73.7508 1526.78 67.4314 Q1521.27 61.0714 1521.27 49.9314 Q1521.27 38.7509 1526.78 32.4315 Q1532.33 26.1121 1542.09 26.1121 Z" fill="#000000" fill-rule="evenodd" fill-opacity="1"></path><path clip-path="url(#clip400)" d="M1612.98 45.1919 L1612.98 72.576 L1605.53 72.576 L1605.53 45.4349 Q1605.53 38.994 1603.02 35.7938 Q1600.51 32.5936 1595.48 32.5936 Q1589.45 32.5936 1585.97 36.4419 Q1582.48 40.2903 1582.48 46.9338 L1582.48 72.576 L1574.99 72.576 L1574.99 27.2059 L1582.48 27.2059 L1582.48 34.2544 Q1585.15 30.163 1588.76 28.1376 Q1592.41 26.1121 1597.15 26.1121 Q1604.96 26.1121 1608.97 30.9732 Q1612.98 35.7938 1612.98 45.1919 Z" fill="#000000" fill-rule="evenodd" fill-opacity="1"></path><path clip-path="url(#clip400)" d="M1690.8 14.0809 L1690.8 22.0612 Q1686.14 19.8332 1682.01 18.7395 Q1677.88 17.6457 1674.03 17.6457 Q1667.35 17.6457 1663.7 20.2383 Q1660.1 22.8309 1660.1 27.611 Q1660.1 31.6214 1662.49 33.6873 Q1664.92 35.7128 1671.64 36.9686 L1676.58 37.9813 Q1685.74 39.7232 1690.07 44.1387 Q1694.45 48.5136 1694.45 55.8863 Q1694.45 64.6767 1688.53 69.2137 Q1682.66 73.7508 1671.28 73.7508 Q1666.98 73.7508 1662.12 72.7785 Q1657.3 71.8063 1652.12 69.9024 L1652.12 61.4765 Q1657.1 64.2716 1661.88 65.6895 Q1666.66 67.1073 1671.28 67.1073 Q1678.29 67.1073 1682.09 64.3527 Q1685.9 61.598 1685.9 56.4939 Q1685.9 52.0379 1683.15 49.5264 Q1680.43 47.0148 1674.19 45.759 L1669.21 44.7868 Q1660.06 42.9639 1655.96 39.075 Q1651.87 35.1862 1651.87 28.2591 Q1651.87 20.2383 1657.5 15.6203 Q1663.18 11.0023 1673.1 11.0023 Q1677.35 11.0023 1681.77 11.7719 Q1686.18 12.5416 1690.8 14.0809 Z" fill="#000000" fill-rule="evenodd" fill-opacity="1"></path><path clip-path="url(#clip400)" d="M1714.1 65.7705 L1714.1 89.8329 L1706.6 89.8329 L1706.6 27.2059 L1714.1 27.2059 L1714.1 34.0924 Q1716.44 30.0415 1720.01 28.0971 Q1723.61 26.1121 1728.6 26.1121 Q1736.86 26.1121 1742.01 32.6746 Q1747.19 39.2371 1747.19 49.9314 Q1747.19 60.6258 1742.01 67.1883 Q1736.86 73.7508 1728.6 73.7508 Q1723.61 73.7508 1720.01 71.8063 Q1716.44 69.8214 1714.1 65.7705 M1739.45 49.9314 Q1739.45 41.7081 1736.05 37.0496 Q1732.69 32.3505 1726.77 32.3505 Q1720.86 32.3505 1717.46 37.0496 Q1714.1 41.7081 1714.1 49.9314 Q1714.1 58.1548 1717.46 62.8538 Q1720.86 67.5124 1726.77 67.5124 Q1732.69 67.5124 1736.05 62.8538 Q1739.45 58.1548 1739.45 49.9314 Z" fill="#000000" fill-rule="evenodd" fill-opacity="1"></path><path clip-path="url(#clip400)" d="M1780.17 49.7694 Q1771.13 49.7694 1767.65 51.8354 Q1764.16 53.9013 1764.16 58.8839 Q1764.16 62.8538 1766.76 65.2034 Q1769.39 67.5124 1773.89 67.5124 Q1780.08 67.5124 1783.81 63.1374 Q1787.58 58.7219 1787.58 51.4303 L1787.58 49.7694 L1780.17 49.7694 M1795.03 46.6907 L1795.03 72.576 L1787.58 72.576 L1787.58 65.6895 Q1785.03 69.8214 1781.22 71.8063 Q1777.41 73.7508 1771.9 73.7508 Q1764.93 73.7508 1760.8 69.8619 Q1756.71 65.9325 1756.71 59.3701 Q1756.71 51.7138 1761.81 47.825 Q1766.96 43.9361 1777.13 43.9361 L1787.58 43.9361 L1787.58 43.2069 Q1787.58 38.0623 1784.18 35.2672 Q1780.81 32.4315 1774.7 32.4315 Q1770.81 32.4315 1767.12 33.3632 Q1763.44 34.295 1760.03 36.1584 L1760.03 29.2718 Q1764.12 27.692 1767.97 26.9223 Q1771.82 26.1121 1775.47 26.1121 Q1785.31 26.1121 1790.17 31.2163 Q1795.03 36.3204 1795.03 46.6907 Z" fill="#000000" fill-rule="evenodd" fill-opacity="1"></path><path clip-path="url(#clip400)" d="M1843.04 28.9478 L1843.04 35.9153 Q1839.88 34.1734 1836.68 33.3227 Q1833.52 32.4315 1830.28 32.4315 Q1823.02 32.4315 1819.01 37.0496 Q1815 41.6271 1815 49.9314 Q1815 58.2358 1819.01 62.8538 Q1823.02 67.4314 1830.28 67.4314 Q1833.52 67.4314 1836.68 66.5807 Q1839.88 65.6895 1843.04 63.9476 L1843.04 70.8341 Q1839.92 72.2924 1836.55 73.0216 Q1833.23 73.7508 1829.47 73.7508 Q1819.22 73.7508 1813.18 67.3098 Q1807.14 60.8689 1807.14 49.9314 Q1807.14 38.832 1813.22 32.472 Q1819.34 26.1121 1829.95 26.1121 Q1833.39 26.1121 1836.68 26.8413 Q1839.96 27.5299 1843.04 28.9478 Z" fill="#000000" fill-rule="evenodd" fill-opacity="1"></path><path clip-path="url(#clip400)" d="M1894.81 48.0275 L1894.81 51.6733 L1860.54 51.6733 Q1861.02 59.3701 1865.15 63.421 Q1869.33 67.4314 1876.74 67.4314 Q1881.03 67.4314 1885.04 66.3781 Q1889.09 65.3249 1893.06 63.2184 L1893.06 70.267 Q1889.05 71.9684 1884.84 72.8596 Q1880.63 73.7508 1876.29 73.7508 Q1865.44 73.7508 1859.08 67.4314 Q1852.76 61.1119 1852.76 50.3365 Q1852.76 39.1965 1858.75 32.6746 Q1864.79 26.1121 1875 26.1121 Q1884.15 26.1121 1889.46 32.0264 Q1894.81 37.9003 1894.81 48.0275 M1887.35 45.84 Q1887.27 39.7232 1883.91 36.0774 Q1880.59 32.4315 1875.08 32.4315 Q1868.84 32.4315 1865.07 35.9558 Q1861.35 39.4801 1860.78 45.8805 L1887.35 45.84 Z" fill="#000000" fill-rule="evenodd" fill-opacity="1"></path><polyline clip-path="url(#clip402)" style="stroke:#009af9; stroke-linecap:round; stroke-linejoin:round; stroke-width:4; stroke-opacity:1; fill:none" points="
  235.808,1386.4 304.316,1386.4 372.824,1386.4 441.333,1386.4 509.843,1386.4 578.353,1386.4 646.863,1386.4 715.374,1386.4 783.885,1386.4 852.396,1386.4 
  920.906,1386.4 989.416,1386.4 1057.93,1386.4 1126.43,1386.4 1194.94,1386.4 1263.45,1211.31 1331.96,931.117 1400.47,615.827 1468.98,335.5 1537.49,160.256 
  1606,160.256 1674.51,160.256 1743.02,160.256 1811.53,160.256 1880.04,160.256 1948.55,160.256 2017.06,160.256 2085.57,160.256 2154.08,160.256 2222.59,160.256 
  2291.1,160.256 
  "></polyline>
</svg>