<svg xmlns="http://www.w3.org/2000/svg" xmlns:xlink="http://www.w3.org/1999/xlink" width="600" height="400" viewBox="0 0 2400 1600">
<defs>
  <clipPath id="clip200">
    <rect x="0" y="0" width="2400" height="1600"></rect>
  </clipPath>
</defs>
<path clip-path="url(#clip200)" d="
M0 1600 L2400 1600 L2400 0 L0 0  Z
  " fill="#ffffff" fill-rule="evenodd" fill-opacity="1"></path>
<defs>
  <clipPath id="clip201">
    <rect x="480" y="0" width="1681" height="1600"></rect>
  </clipPath>
</defs>
<path clip-path="url(#clip200)" d="
M112.177 1486.45 L2352.76 1486.45 L2352.76 123.472 L112.177 123.472  Z
  " fill="#ffffff" fill-rule="evenodd" fill-opacity="1"></path>
<defs>
  <clipPath id="clip202">
    <rect x="112" y="123" width="2242" height="1364"></rect>
  </clipPath>
</defs>
<polyline clip-path="url(#clip202)" style="stroke:#000000; stroke-linecap:round; stroke-linejoin:round; stroke-width:2; stroke-opacity:0.1; fill:none" points="
  154.239,1486.45 154.239,123.472 
  "></polyline>
<polyline clip-path="url(#clip202)" style="stroke:#000000; stroke-linecap:round; stroke-linejoin:round; stroke-width:2; stroke-opacity:0.1; fill:none" points="
  688.015,1486.45 688.015,123.472 
  "></polyline>
<polyline clip-path="url(#clip202)" style="stroke:#000000; stroke-linecap:round; stroke-linejoin:round; stroke-width:2; stroke-opacity:0.1; fill:none" points="
  1221.79,1486.45 1221.79,123.472 
  "></polyline>
<polyline clip-path="url(#clip202)" style="stroke:#000000; stroke-linecap:round; stroke-linejoin:round; stroke-width:2; stroke-opacity:0.1; fill:none" points="
  1755.57,1486.45 1755.57,123.472 
  "></polyline>
<polyline clip-path="url(#clip202)" style="stroke:#000000; stroke-linecap:round; stroke-linejoin:round; stroke-width:2; stroke-opacity:0.1; fill:none" points="
  2289.34,1486.45 2289.34,123.472 
  "></polyline>
<polyline clip-path="url(#clip200)" style="stroke:#000000; stroke-linecap:round; stroke-linejoin:round; stroke-width:4; stroke-opacity:1; fill:none" points="
  112.177,1486.45 2352.76,1486.45 
  "></polyline>
<polyline clip-path="url(#clip200)" style="stroke:#000000; stroke-linecap:round; stroke-linejoin:round; stroke-width:4; stroke-opacity:1; fill:none" points="
  154.239,1486.45 154.239,1467.55 
  "></polyline>
<polyline clip-path="url(#clip200)" style="stroke:#000000; stroke-linecap:round; stroke-linejoin:round; stroke-width:4; stroke-opacity:1; fill:none" points="
  688.015,1486.45 688.015,1467.55 
  "></polyline>
<polyline clip-path="url(#clip200)" style="stroke:#000000; stroke-linecap:round; stroke-linejoin:round; stroke-width:4; stroke-opacity:1; fill:none" points="
  1221.79,1486.45 1221.79,1467.55 
  "></polyline>
<polyline clip-path="url(#clip200)" style="stroke:#000000; stroke-linecap:round; stroke-linejoin:round; stroke-width:4; stroke-opacity:1; fill:none" points="
  1755.57,1486.45 1755.57,1467.55 
  "></polyline>
<polyline clip-path="url(#clip200)" style="stroke:#000000; stroke-linecap:round; stroke-linejoin:round; stroke-width:4; stroke-opacity:1; fill:none" points="
  2289.34,1486.45 2289.34,1467.55 
  "></polyline>
<path clip-path="url(#clip200)" d="M154.239 1517.37 Q150.628 1517.37 148.799 1520.93 Q146.993 1524.47 146.993 1531.6 Q146.993 1538.71 148.799 1542.27 Q150.628 1545.82 154.239 1545.82 Q157.873 1545.82 159.679 1542.27 Q161.507 1538.71 161.507 1531.6 Q161.507 1524.47 159.679 1520.93 Q157.873 1517.37 154.239 1517.37 M154.239 1513.66 Q160.049 1513.66 163.104 1518.27 Q166.183 1522.85 166.183 1531.6 Q166.183 1540.33 163.104 1544.94 Q160.049 1549.52 154.239 1549.52 Q148.429 1549.52 145.35 1544.94 Q142.294 1540.33 142.294 1531.6 Q142.294 1522.85 145.35 1518.27 Q148.429 1513.66 154.239 1513.66 Z" fill="#000000" fill-rule="evenodd" fill-opacity="1"></path><path clip-path="url(#clip200)" d="M667.286 1544.91 L683.605 1544.91 L683.605 1548.85 L661.661 1548.85 L661.661 1544.91 Q664.323 1542.16 668.906 1537.53 Q673.513 1532.88 674.693 1531.53 Q676.939 1529.01 677.818 1527.27 Q678.721 1525.51 678.721 1523.82 Q678.721 1521.07 676.777 1519.33 Q674.855 1517.6 671.753 1517.6 Q669.554 1517.6 667.101 1518.36 Q664.67 1519.13 661.892 1520.68 L661.892 1515.95 Q664.716 1514.82 667.17 1514.24 Q669.624 1513.66 671.661 1513.66 Q677.031 1513.66 680.226 1516.35 Q683.42 1519.03 683.42 1523.52 Q683.42 1525.65 682.61 1527.57 Q681.823 1529.47 679.716 1532.07 Q679.138 1532.74 676.036 1535.95 Q672.934 1539.15 667.286 1544.91 Z" fill="#000000" fill-rule="evenodd" fill-opacity="1"></path><path clip-path="url(#clip200)" d="M693.466 1514.29 L711.823 1514.29 L711.823 1518.22 L697.749 1518.22 L697.749 1526.7 Q698.767 1526.35 699.786 1526.19 Q700.804 1526 701.823 1526 Q707.61 1526 710.989 1529.17 Q714.369 1532.34 714.369 1537.76 Q714.369 1543.34 710.897 1546.44 Q707.424 1549.52 701.105 1549.52 Q698.929 1549.52 696.661 1549.15 Q694.415 1548.78 692.008 1548.04 L692.008 1543.34 Q694.091 1544.47 696.313 1545.03 Q698.536 1545.58 701.012 1545.58 Q705.017 1545.58 707.355 1543.48 Q709.693 1541.37 709.693 1537.76 Q709.693 1534.15 707.355 1532.04 Q705.017 1529.94 701.012 1529.94 Q699.138 1529.94 697.263 1530.35 Q695.411 1530.77 693.466 1531.65 L693.466 1514.29 Z" fill="#000000" fill-rule="evenodd" fill-opacity="1"></path><path clip-path="url(#clip200)" d="M1196.49 1514.29 L1214.85 1514.29 L1214.85 1518.22 L1200.77 1518.22 L1200.77 1526.7 Q1201.79 1526.35 1202.81 1526.19 Q1203.83 1526 1204.85 1526 Q1210.63 1526 1214.01 1529.17 Q1217.39 1532.34 1217.39 1537.76 Q1217.39 1543.34 1213.92 1546.44 Q1210.45 1549.52 1204.13 1549.52 Q1201.95 1549.52 1199.68 1549.15 Q1197.44 1548.78 1195.03 1548.04 L1195.03 1543.34 Q1197.12 1544.47 1199.34 1545.03 Q1201.56 1545.58 1204.04 1545.58 Q1208.04 1545.58 1210.38 1543.48 Q1212.72 1541.37 1212.72 1537.76 Q1212.72 1534.15 1210.38 1532.04 Q1208.04 1529.94 1204.04 1529.94 Q1202.16 1529.94 1200.29 1530.35 Q1198.43 1530.77 1196.49 1531.65 L1196.49 1514.29 Z" fill="#000000" fill-rule="evenodd" fill-opacity="1"></path><path clip-path="url(#clip200)" d="M1236.61 1517.37 Q1232.99 1517.37 1231.17 1520.93 Q1229.36 1524.47 1229.36 1531.6 Q1229.36 1538.71 1231.17 1542.27 Q1232.99 1545.82 1236.61 1545.82 Q1240.24 1545.82 1242.05 1542.27 Q1243.87 1538.71 1243.87 1531.6 Q1243.87 1524.47 1242.05 1520.93 Q1240.24 1517.37 1236.61 1517.37 M1236.61 1513.66 Q1242.42 1513.66 1245.47 1518.27 Q1248.55 1522.85 1248.55 1531.6 Q1248.55 1540.33 1245.47 1544.94 Q1242.42 1549.52 1236.61 1549.52 Q1230.8 1549.52 1227.72 1544.94 Q1224.66 1540.33 1224.66 1531.6 Q1224.66 1522.85 1227.72 1518.27 Q1230.8 1513.66 1236.61 1513.66 Z" fill="#000000" fill-rule="evenodd" fill-opacity="1"></path><path clip-path="url(#clip200)" d="M1729.42 1514.29 L1751.64 1514.29 L1751.64 1516.28 L1739.1 1548.85 L1734.21 1548.85 L1746.02 1518.22 L1729.42 1518.22 L1729.42 1514.29 Z" fill="#000000" fill-rule="evenodd" fill-opacity="1"></path><path clip-path="url(#clip200)" d="M1760.81 1514.29 L1779.17 1514.29 L1779.17 1518.22 L1765.09 1518.22 L1765.09 1526.7 Q1766.11 1526.35 1767.13 1526.19 Q1768.15 1526 1769.17 1526 Q1774.95 1526 1778.33 1529.17 Q1781.71 1532.34 1781.71 1537.76 Q1781.71 1543.34 1778.24 1546.44 Q1774.77 1549.52 1768.45 1549.52 Q1766.27 1549.52 1764 1549.15 Q1761.76 1548.78 1759.35 1548.04 L1759.35 1543.34 Q1761.44 1544.47 1763.66 1545.03 Q1765.88 1545.58 1768.36 1545.58 Q1772.36 1545.58 1774.7 1543.48 Q1777.04 1541.37 1777.04 1537.76 Q1777.04 1534.15 1774.7 1532.04 Q1772.36 1529.94 1768.36 1529.94 Q1766.48 1529.94 1764.61 1530.35 Q1762.75 1530.77 1760.81 1531.65 L1760.81 1514.29 Z" fill="#000000" fill-rule="evenodd" fill-opacity="1"></path><path clip-path="url(#clip200)" d="M2248.95 1544.91 L2256.59 1544.91 L2256.59 1518.55 L2248.28 1520.21 L2248.28 1515.95 L2256.54 1514.29 L2261.22 1514.29 L2261.22 1544.91 L2268.86 1544.91 L2268.86 1548.85 L2248.95 1548.85 L2248.95 1544.91 Z" fill="#000000" fill-rule="evenodd" fill-opacity="1"></path><path clip-path="url(#clip200)" d="M2288.3 1517.37 Q2284.69 1517.37 2282.86 1520.93 Q2281.06 1524.47 2281.06 1531.6 Q2281.06 1538.71 2282.86 1542.27 Q2284.69 1545.82 2288.3 1545.82 Q2291.94 1545.82 2293.74 1542.27 Q2295.57 1538.71 2295.57 1531.6 Q2295.57 1524.47 2293.74 1520.93 Q2291.94 1517.37 2288.3 1517.37 M2288.3 1513.66 Q2294.11 1513.66 2297.17 1518.27 Q2300.25 1522.85 2300.25 1531.6 Q2300.25 1540.33 2297.17 1544.94 Q2294.11 1549.52 2288.3 1549.52 Q2282.49 1549.52 2279.41 1544.94 Q2276.36 1540.33 2276.36 1531.6 Q2276.36 1522.85 2279.41 1518.27 Q2282.49 1513.66 2288.3 1513.66 Z" fill="#000000" fill-rule="evenodd" fill-opacity="1"></path><path clip-path="url(#clip200)" d="M2318.46 1517.37 Q2314.85 1517.37 2313.02 1520.93 Q2311.22 1524.47 2311.22 1531.6 Q2311.22 1538.71 2313.02 1542.27 Q2314.85 1545.82 2318.46 1545.82 Q2322.1 1545.82 2323.9 1542.27 Q2325.73 1538.71 2325.73 1531.6 Q2325.73 1524.47 2323.9 1520.93 Q2322.1 1517.37 2318.46 1517.37 M2318.46 1513.66 Q2324.27 1513.66 2327.33 1518.27 Q2330.41 1522.85 2330.41 1531.6 Q2330.41 1540.33 2327.33 1544.94 Q2324.27 1549.52 2318.46 1549.52 Q2312.65 1549.52 2309.57 1544.94 Q2306.52 1540.33 2306.52 1531.6 Q2306.52 1522.85 2309.57 1518.27 Q2312.65 1513.66 2318.46 1513.66 Z" fill="#000000" fill-rule="evenodd" fill-opacity="1"></path><polyline clip-path="url(#clip202)" style="stroke:#000000; stroke-linecap:round; stroke-linejoin:round; stroke-width:2; stroke-opacity:0.1; fill:none" points="
  112.177,1447.87 2352.76,1447.87 
  "></polyline>
<polyline clip-path="url(#clip202)" style="stroke:#000000; stroke-linecap:round; stroke-linejoin:round; stroke-width:2; stroke-opacity:0.1; fill:none" points="
  112.177,1163.57 2352.76,1163.57 
  "></polyline>
<polyline clip-path="url(#clip202)" style="stroke:#000000; stroke-linecap:round; stroke-linejoin:round; stroke-width:2; stroke-opacity:0.1; fill:none" points="
  112.177,879.264 2352.76,879.264 
  "></polyline>
<polyline clip-path="url(#clip202)" style="stroke:#000000; stroke-linecap:round; stroke-linejoin:round; stroke-width:2; stroke-opacity:0.1; fill:none" points="
  112.177,594.959 2352.76,594.959 
  "></polyline>
<polyline clip-path="url(#clip202)" style="stroke:#000000; stroke-linecap:round; stroke-linejoin:round; stroke-width:2; stroke-opacity:0.1; fill:none" points="
  112.177,310.654 2352.76,310.654 
  "></polyline>
<polyline clip-path="url(#clip200)" style="stroke:#000000; stroke-linecap:round; stroke-linejoin:round; stroke-width:4; stroke-opacity:1; fill:none" points="
  112.177,1486.45 112.177,123.472 
  "></polyline>
<polyline clip-path="url(#clip200)" style="stroke:#000000; stroke-linecap:round; stroke-linejoin:round; stroke-width:4; stroke-opacity:1; fill:none" points="
  112.177,1447.87 131.075,1447.87 
  "></polyline>
<polyline clip-path="url(#clip200)" style="stroke:#000000; stroke-linecap:round; stroke-linejoin:round; stroke-width:4; stroke-opacity:1; fill:none" points="
  112.177,1163.57 131.075,1163.57 
  "></polyline>
<polyline clip-path="url(#clip200)" style="stroke:#000000; stroke-linecap:round; stroke-linejoin:round; stroke-width:4; stroke-opacity:1; fill:none" points="
  112.177,879.264 131.075,879.264 
  "></polyline>
<polyline clip-path="url(#clip200)" style="stroke:#000000; stroke-linecap:round; stroke-linejoin:round; stroke-width:4; stroke-opacity:1; fill:none" points="
  112.177,594.959 131.075,594.959 
  "></polyline>
<polyline clip-path="url(#clip200)" style="stroke:#000000; stroke-linecap:round; stroke-linejoin:round; stroke-width:4; stroke-opacity:1; fill:none" points="
  112.177,310.654 131.075,310.654 
  "></polyline>
<path clip-path="url(#clip200)" d="M64.2328 1433.67 Q60.6217 1433.67 58.793 1437.24 Q56.9875 1440.78 56.9875 1447.91 Q56.9875 1455.01 58.793 1458.58 Q60.6217 1462.12 64.2328 1462.12 Q67.867 1462.12 69.6726 1458.58 Q71.5013 1455.01 71.5013 1447.91 Q71.5013 1440.78 69.6726 1437.24 Q67.867 1433.67 64.2328 1433.67 M64.2328 1429.97 Q70.0429 1429.97 73.0985 1434.57 Q76.1772 1439.16 76.1772 1447.91 Q76.1772 1456.63 73.0985 1461.24 Q70.0429 1465.82 64.2328 1465.82 Q58.4226 1465.82 55.344 1461.24 Q52.2884 1456.63 52.2884 1447.91 Q52.2884 1439.16 55.344 1434.57 Q58.4226 1429.97 64.2328 1429.97 Z" fill="#000000" fill-rule="evenodd" fill-opacity="1"></path><path clip-path="url(#clip200)" d="M59.8578 1176.91 L76.1772 1176.91 L76.1772 1180.85 L54.2328 1180.85 L54.2328 1176.91 Q56.8949 1174.16 61.4782 1169.53 Q66.0846 1164.88 67.2652 1163.53 Q69.5105 1161.01 70.3902 1159.27 Q71.2929 1157.52 71.2929 1155.83 Q71.2929 1153.07 69.3485 1151.33 Q67.4272 1149.6 64.3254 1149.6 Q62.1263 1149.6 59.6726 1150.36 Q57.2421 1151.13 54.4643 1152.68 L54.4643 1147.96 Q57.2884 1146.82 59.7421 1146.24 Q62.1958 1145.66 64.2328 1145.66 Q69.6031 1145.66 72.7976 1148.35 Q75.992 1151.03 75.992 1155.52 Q75.992 1157.65 75.1818 1159.58 Q74.3948 1161.47 72.2883 1164.07 Q71.7096 1164.74 68.6078 1167.95 Q65.5059 1171.15 59.8578 1176.91 Z" fill="#000000" fill-rule="evenodd" fill-opacity="1"></path><path clip-path="url(#clip200)" d="M66.5939 866.058 L54.7884 884.507 L66.5939 884.507 L66.5939 866.058 M65.367 861.984 L71.2466 861.984 L71.2466 884.507 L76.1772 884.507 L76.1772 888.396 L71.2466 888.396 L71.2466 896.544 L66.5939 896.544 L66.5939 888.396 L50.9921 888.396 L50.9921 883.882 L65.367 861.984 Z" fill="#000000" fill-rule="evenodd" fill-opacity="1"></path><path clip-path="url(#clip200)" d="M64.6495 593.096 Q61.5013 593.096 59.6495 595.248 Q57.8208 597.401 57.8208 601.151 Q57.8208 604.878 59.6495 607.054 Q61.5013 609.207 64.6495 609.207 Q67.7976 609.207 69.6263 607.054 Q71.4781 604.878 71.4781 601.151 Q71.4781 597.401 69.6263 595.248 Q67.7976 593.096 64.6495 593.096 M73.9318 578.443 L73.9318 582.702 Q72.1726 581.869 70.367 581.429 Q68.5846 580.989 66.8254 580.989 Q62.1958 580.989 59.7421 584.114 Q57.3115 587.239 56.9643 593.559 Q58.33 591.545 60.3902 590.48 Q62.4504 589.392 64.9272 589.392 Q70.1355 589.392 73.1448 592.563 Q76.1772 595.711 76.1772 601.151 Q76.1772 606.475 73.029 609.693 Q69.8809 612.91 64.6495 612.91 Q58.6541 612.91 55.4828 608.327 Q52.3116 603.721 52.3116 594.994 Q52.3116 586.799 56.2004 581.938 Q60.0893 577.054 66.6402 577.054 Q68.3994 577.054 70.1818 577.401 Q71.9874 577.749 73.9318 578.443 Z" fill="#000000" fill-rule="evenodd" fill-opacity="1"></path><path clip-path="url(#clip200)" d="M64.3254 311.522 Q60.9921 311.522 59.0708 313.305 Q57.1726 315.087 57.1726 318.212 Q57.1726 321.337 59.0708 323.12 Q60.9921 324.902 64.3254 324.902 Q67.6587 324.902 69.58 323.12 Q71.5013 321.314 71.5013 318.212 Q71.5013 315.087 69.58 313.305 Q67.6819 311.522 64.3254 311.522 M59.6495 309.532 Q56.6402 308.791 54.9504 306.731 Q53.2838 304.671 53.2838 301.708 Q53.2838 297.564 56.2236 295.157 Q59.1865 292.749 64.3254 292.749 Q69.4874 292.749 72.4272 295.157 Q75.367 297.564 75.367 301.708 Q75.367 304.671 73.6772 306.731 Q72.0105 308.791 69.0244 309.532 Q72.404 310.319 74.279 312.61 Q76.1772 314.902 76.1772 318.212 Q76.1772 323.235 73.0985 325.921 Q70.0429 328.606 64.3254 328.606 Q58.6078 328.606 55.5291 325.921 Q52.4736 323.235 52.4736 318.212 Q52.4736 314.902 54.3717 312.61 Q56.2699 310.319 59.6495 309.532 M57.9365 302.147 Q57.9365 304.833 59.6032 306.337 Q61.293 307.842 64.3254 307.842 Q67.3346 307.842 69.0244 306.337 Q70.7374 304.833 70.7374 302.147 Q70.7374 299.462 69.0244 297.958 Q67.3346 296.453 64.3254 296.453 Q61.293 296.453 59.6032 297.958 Q57.9365 299.462 57.9365 302.147 Z" fill="#000000" fill-rule="evenodd" fill-opacity="1"></path><path clip-path="url(#clip200)" d="M828.308 12.096 L866.548 12.096 L866.548 18.9825 L836.491 18.9825 L836.491 36.8875 L865.293 36.8875 L865.293 43.7741 L836.491 43.7741 L836.491 65.6895 L867.278 65.6895 L867.278 72.576 L828.308 72.576 L828.308 12.096 Z" fill="#000000" fill-rule="evenodd" fill-opacity="1"></path><path clip-path="url(#clip200)" d="M909.326 28.5427 L909.326 35.5912 Q906.166 33.9709 902.763 33.1607 Q899.361 32.3505 895.715 32.3505 Q890.165 32.3505 887.37 34.0519 Q884.615 35.7533 884.615 39.156 Q884.615 41.7486 886.6 43.2475 Q888.585 44.7058 894.581 46.0426 L897.133 46.6097 Q905.072 48.3111 908.394 51.4303 Q911.756 54.509 911.756 60.0587 Q911.756 66.3781 906.733 70.0644 Q901.751 73.7508 893.001 73.7508 Q889.355 73.7508 885.385 73.0216 Q881.456 72.3329 877.081 70.9151 L877.081 63.2184 Q881.213 65.3654 885.223 66.4591 Q889.233 67.5124 893.163 67.5124 Q898.429 67.5124 901.265 65.73 Q904.1 63.9071 904.1 60.6258 Q904.1 57.5877 902.034 55.9673 Q900.009 54.3469 893.082 52.8481 L890.489 52.2405 Q883.562 50.7821 880.483 47.7845 Q877.405 44.7463 877.405 39.4801 Q877.405 33.0797 881.942 29.5959 Q886.479 26.1121 894.824 26.1121 Q898.956 26.1121 902.601 26.7198 Q906.247 27.3274 909.326 28.5427 Z" fill="#000000" fill-rule="evenodd" fill-opacity="1"></path><path clip-path="url(#clip200)" d="M930.998 14.324 L930.998 27.2059 L946.351 27.2059 L946.351 32.9987 L930.998 32.9987 L930.998 57.6282 Q930.998 63.1779 932.497 64.7578 Q934.036 66.3376 938.695 66.3376 L946.351 66.3376 L946.351 72.576 L938.695 72.576 Q930.067 72.576 926.785 69.3758 Q923.504 66.1351 923.504 57.6282 L923.504 32.9987 L918.035 32.9987 L918.035 27.2059 L923.504 27.2059 L923.504 14.324 L930.998 14.324 Z" fill="#000000" fill-rule="evenodd" fill-opacity="1"></path><path clip-path="url(#clip200)" d="M956.154 27.2059 L963.608 27.2059 L963.608 72.576 L956.154 72.576 L956.154 27.2059 M956.154 9.54393 L963.608 9.54393 L963.608 18.9825 L956.154 18.9825 L956.154 9.54393 Z" fill="#000000" fill-rule="evenodd" fill-opacity="1"></path><path clip-path="url(#clip200)" d="M1014.53 35.9153 Q1017.32 30.8922 1021.21 28.5022 Q1025.1 26.1121 1030.37 26.1121 Q1037.46 26.1121 1041.3 31.0947 Q1045.15 36.0368 1045.15 45.1919 L1045.15 72.576 L1037.66 72.576 L1037.66 45.4349 Q1037.66 38.913 1035.35 35.7533 Q1033.04 32.5936 1028.3 32.5936 Q1022.51 32.5936 1019.15 36.4419 Q1015.78 40.2903 1015.78 46.9338 L1015.78 72.576 L1008.29 72.576 L1008.29 45.4349 Q1008.29 38.8725 1005.98 35.7533 Q1003.67 32.5936 998.851 32.5936 Q993.139 32.5936 989.777 36.4824 Q986.415 40.3308 986.415 46.9338 L986.415 72.576 L978.92 72.576 L978.92 27.2059 L986.415 27.2059 L986.415 34.2544 Q988.967 30.082 992.531 28.0971 Q996.096 26.1121 1001 26.1121 Q1005.94 26.1121 1009.38 28.6237 Q1012.87 31.1352 1014.53 35.9153 Z" fill="#000000" fill-rule="evenodd" fill-opacity="1"></path><path clip-path="url(#clip200)" d="M1080.64 49.7694 Q1071.61 49.7694 1068.12 51.8354 Q1064.64 53.9013 1064.64 58.8839 Q1064.64 62.8538 1067.23 65.2034 Q1069.86 67.5124 1074.36 67.5124 Q1080.56 67.5124 1084.28 63.1374 Q1088.05 58.7219 1088.05 51.4303 L1088.05 49.7694 L1080.64 49.7694 M1095.51 46.6907 L1095.51 72.576 L1088.05 72.576 L1088.05 65.6895 Q1085.5 69.8214 1081.69 71.8063 Q1077.88 73.7508 1072.37 73.7508 Q1065.41 73.7508 1061.28 69.8619 Q1057.18 65.9325 1057.18 59.3701 Q1057.18 51.7138 1062.29 47.825 Q1067.43 43.9361 1077.6 43.9361 L1088.05 43.9361 L1088.05 43.2069 Q1088.05 38.0623 1084.65 35.2672 Q1081.29 32.4315 1075.17 32.4315 Q1071.28 32.4315 1067.59 33.3632 Q1063.91 34.295 1060.51 36.1584 L1060.51 29.2718 Q1064.6 27.692 1068.45 26.9223 Q1072.29 26.1121 1075.94 26.1121 Q1085.78 26.1121 1090.64 31.2163 Q1095.51 36.3204 1095.51 46.6907 Z" fill="#000000" fill-rule="evenodd" fill-opacity="1"></path><path clip-path="url(#clip200)" d="M1118.23 14.324 L1118.23 27.2059 L1133.58 27.2059 L1133.58 32.9987 L1118.23 32.9987 L1118.23 57.6282 Q1118.23 63.1779 1119.73 64.7578 Q1121.27 66.3376 1125.93 66.3376 L1133.58 66.3376 L1133.58 72.576 L1125.93 72.576 Q1117.3 72.576 1114.02 69.3758 Q1110.74 66.1351 1110.74 57.6282 L1110.74 32.9987 L1105.27 32.9987 L1105.27 27.2059 L1110.74 27.2059 L1110.74 14.324 L1118.23 14.324 Z" fill="#000000" fill-rule="evenodd" fill-opacity="1"></path><path clip-path="url(#clip200)" d="M1143.39 27.2059 L1150.84 27.2059 L1150.84 72.576 L1143.39 72.576 L1143.39 27.2059 M1143.39 9.54393 L1150.84 9.54393 L1150.84 18.9825 L1143.39 18.9825 L1143.39 9.54393 Z" fill="#000000" fill-rule="evenodd" fill-opacity="1"></path><path clip-path="url(#clip200)" d="M1184.02 32.4315 Q1178.02 32.4315 1174.54 37.1306 Q1171.05 41.7891 1171.05 49.9314 Q1171.05 58.0738 1174.5 62.7728 Q1177.98 67.4314 1184.02 67.4314 Q1189.97 67.4314 1193.46 62.7323 Q1196.94 58.0333 1196.94 49.9314 Q1196.94 41.8701 1193.46 37.1711 Q1189.97 32.4315 1184.02 32.4315 M1184.02 26.1121 Q1193.74 26.1121 1199.29 32.4315 Q1204.84 38.7509 1204.84 49.9314 Q1204.84 61.0714 1199.29 67.4314 Q1193.74 73.7508 1184.02 73.7508 Q1174.26 73.7508 1168.71 67.4314 Q1163.2 61.0714 1163.2 49.9314 Q1163.2 38.7509 1168.71 32.4315 Q1174.26 26.1121 1184.02 26.1121 Z" fill="#000000" fill-rule="evenodd" fill-opacity="1"></path><path clip-path="url(#clip200)" d="M1254.91 45.1919 L1254.91 72.576 L1247.45 72.576 L1247.45 45.4349 Q1247.45 38.994 1244.94 35.7938 Q1242.43 32.5936 1237.41 32.5936 Q1231.37 32.5936 1227.89 36.4419 Q1224.41 40.2903 1224.41 46.9338 L1224.41 72.576 L1216.91 72.576 L1216.91 27.2059 L1224.41 27.2059 L1224.41 34.2544 Q1227.08 30.163 1230.68 28.1376 Q1234.33 26.1121 1239.07 26.1121 Q1246.89 26.1121 1250.9 30.9732 Q1254.91 35.7938 1254.91 45.1919 Z" fill="#000000" fill-rule="evenodd" fill-opacity="1"></path><path clip-path="url(#clip200)" d="M1290.8 27.2059 L1298.7 27.2059 L1312.88 65.2844 L1327.06 27.2059 L1334.95 27.2059 L1317.94 72.576 L1307.81 72.576 L1290.8 27.2059 Z" fill="#000000" fill-rule="evenodd" fill-opacity="1"></path><path clip-path="url(#clip200)" d="M1374.17 28.5427 L1374.17 35.5912 Q1371.01 33.9709 1367.6 33.1607 Q1364.2 32.3505 1360.56 32.3505 Q1355.01 32.3505 1352.21 34.0519 Q1349.46 35.7533 1349.46 39.156 Q1349.46 41.7486 1351.44 43.2475 Q1353.43 44.7058 1359.42 46.0426 L1361.97 46.6097 Q1369.91 48.3111 1373.24 51.4303 Q1376.6 54.509 1376.6 60.0587 Q1376.6 66.3781 1371.57 70.0644 Q1366.59 73.7508 1357.84 73.7508 Q1354.2 73.7508 1350.23 73.0216 Q1346.3 72.3329 1341.92 70.9151 L1341.92 63.2184 Q1346.05 65.3654 1350.06 66.4591 Q1354.07 67.5124 1358 67.5124 Q1363.27 67.5124 1366.11 65.73 Q1368.94 63.9071 1368.94 60.6258 Q1368.94 57.5877 1366.88 55.9673 Q1364.85 54.3469 1357.92 52.8481 L1355.33 52.2405 Q1348.4 50.7821 1345.32 47.7845 Q1342.25 44.7463 1342.25 39.4801 Q1342.25 33.0797 1346.78 29.5959 Q1351.32 26.1121 1359.66 26.1121 Q1363.8 26.1121 1367.44 26.7198 Q1371.09 27.3274 1374.17 28.5427 Z" fill="#000000" fill-rule="evenodd" fill-opacity="1"></path><path clip-path="url(#clip200)" d="M1389.52 62.2867 L1398.07 62.2867 L1398.07 72.576 L1389.52 72.576 L1389.52 62.2867 Z" fill="#000000" fill-rule="evenodd" fill-opacity="1"></path><path clip-path="url(#clip200)" d="M1433.15 12.096 L1484.31 12.096 L1484.31 18.9825 L1462.84 18.9825 L1462.84 72.576 L1454.62 72.576 L1454.62 18.9825 L1433.15 18.9825 L1433.15 12.096 Z" fill="#000000" fill-rule="evenodd" fill-opacity="1"></path><path clip-path="url(#clip200)" d="M1505.98 34.1734 Q1504.73 33.4443 1503.23 33.1202 Q1501.77 32.7556 1499.99 32.7556 Q1493.67 32.7556 1490.27 36.8875 Q1486.9 40.9789 1486.9 48.6757 L1486.9 72.576 L1479.41 72.576 L1479.41 27.2059 L1486.9 27.2059 L1486.9 34.2544 Q1489.25 30.1225 1493.02 28.1376 Q1496.79 26.1121 1502.18 26.1121 Q1502.95 26.1121 1503.88 26.2337 Q1504.81 26.3147 1505.94 26.5172 L1505.98 34.1734 Z" fill="#000000" fill-rule="evenodd" fill-opacity="1"></path><path clip-path="url(#clip200)" d="M1513.03 54.671 L1513.03 27.2059 L1520.49 27.2059 L1520.49 54.3874 Q1520.49 60.8284 1523 64.0691 Q1525.51 67.2693 1530.53 67.2693 Q1536.57 67.2693 1540.05 63.421 Q1543.58 59.5726 1543.58 52.9291 L1543.58 27.2059 L1551.03 27.2059 L1551.03 72.576 L1543.58 72.576 L1543.58 65.6084 Q1540.86 69.7404 1537.26 71.7658 Q1533.69 73.7508 1528.95 73.7508 Q1521.13 73.7508 1517.08 68.8897 Q1513.03 64.0286 1513.03 54.671 M1531.79 26.1121 L1531.79 26.1121 Z" fill="#000000" fill-rule="evenodd" fill-opacity="1"></path><path clip-path="url(#clip200)" d="M1573.76 14.324 L1573.76 27.2059 L1589.11 27.2059 L1589.11 32.9987 L1573.76 32.9987 L1573.76 57.6282 Q1573.76 63.1779 1575.25 64.7578 Q1576.79 66.3376 1581.45 66.3376 L1589.11 66.3376 L1589.11 72.576 L1581.45 72.576 Q1572.82 72.576 1569.54 69.3758 Q1566.26 66.1351 1566.26 57.6282 L1566.26 32.9987 L1560.79 32.9987 L1560.79 27.2059 L1566.26 27.2059 L1566.26 14.324 L1573.76 14.324 Z" fill="#000000" fill-rule="evenodd" fill-opacity="1"></path><path clip-path="url(#clip200)" d="M1636.63 45.1919 L1636.63 72.576 L1629.17 72.576 L1629.17 45.4349 Q1629.17 38.994 1626.66 35.7938 Q1624.15 32.5936 1619.13 32.5936 Q1613.09 32.5936 1609.61 36.4419 Q1606.12 40.2903 1606.12 46.9338 L1606.12 72.576 L1598.63 72.576 L1598.63 9.54393 L1606.12 9.54393 L1606.12 34.2544 Q1608.8 30.163 1612.4 28.1376 Q1616.05 26.1121 1620.79 26.1121 Q1628.6 26.1121 1632.61 30.9732 Q1636.63 35.7938 1636.63 45.1919 Z" fill="#000000" fill-rule="evenodd" fill-opacity="1"></path><polyline clip-path="url(#clip202)" style="stroke:#009af9; stroke-linecap:round; stroke-linejoin:round; stroke-width:4; stroke-opacity:1; fill:none" points="
  175.59,1447.87 196.941,1365.63 218.292,1365.63 239.643,1336.6 260.994,1336.62 282.345,1336.62 303.696,1336.63 325.047,1336.64 346.398,1290.82 367.749,1290.82 
  389.1,1290.82 410.451,1289.01 431.802,1280.16 453.153,1280.17 474.504,1280.18 495.855,1280.18 517.207,1280.18 538.558,1280.19 559.909,1280.2 581.26,1280.2 
  602.611,1280.2 623.962,1280.2 645.313,1173 666.664,1173 688.015,1172.99 709.366,1173 730.717,1172.99 752.068,1172.97 773.419,942.454 794.77,942.448 
  816.121,942.437 837.472,942.423 858.823,942.409 880.174,942.393 901.525,942.379 922.876,942.363 944.227,942.349 965.578,942.328 986.93,942.309 1008.28,942.295 
  1029.63,942.283 1050.98,942.272 1072.33,942.258 1093.68,857.722 1115.04,857.712 1136.39,857.709 1157.74,709.93 1179.09,709.923 1200.44,671.106 1221.79,616.951 
  1243.14,616.943 1264.49,614.837 1285.84,614.826 1307.2,614.814 1328.55,614.797 1349.9,614.776 1371.25,614.756 1392.6,614.731 1413.95,614.707 1435.3,614.692 
  1456.65,614.673 1478,614.665 1499.35,614.643 1520.71,561.242 1542.06,561.217 1563.41,561.212 1584.76,561.195 1606.11,561.188 1627.46,561.18 1648.81,502.61 
  1670.16,482.819 1691.51,395.039 1712.87,395.043 1734.22,395.043 1755.57,395.053 1776.92,395.06 1798.27,395.064 1819.62,395.064 1840.97,395.073 1862.32,207.509 
  1883.67,207.517 1905.02,207.543 1926.38,207.557 1947.73,207.552 1969.08,207.549 1990.43,207.551 2011.78,207.558 2033.13,207.557 2054.48,207.574 2075.83,207.57 
  2097.18,207.559 2118.53,207.553 2139.89,207.554 2161.24,207.554 2182.59,162.047 2203.94,162.05 2225.29,162.052 2246.64,162.053 2267.99,162.052 2289.34,162.05 
  
  "></polyline>
<polyline clip-path="url(#clip202)" style="stroke:#e26f46; stroke-linecap:round; stroke-linejoin:round; stroke-width:4; stroke-opacity:1; fill:none" points="
  175.59,1433.66 196.941,1419.44 218.292,1405.23 239.643,1391.01 260.994,1376.8 282.345,1362.58 303.696,1348.37 325.047,1334.15 346.398,1319.94 367.749,1305.72 
  389.1,1291.51 410.451,1277.29 431.802,1263.08 453.153,1248.86 474.504,1234.64 495.855,1220.43 517.207,1206.21 538.558,1192 559.909,1177.78 581.26,1163.57 
  602.611,1149.35 623.962,1135.14 645.313,1120.92 666.664,1106.71 688.015,1092.49 709.366,1078.28 730.717,1064.06 752.068,1049.85 773.419,1035.63 794.77,1021.42 
  816.121,1007.2 837.472,992.986 858.823,978.77 880.174,964.555 901.525,950.34 922.876,936.125 944.227,921.909 965.578,907.694 986.93,893.479 1008.28,879.264 
  1029.63,879.264 1050.98,879.264 1072.33,879.264 1093.68,879.264 1115.04,879.264 1136.39,879.264 1157.74,879.264 1179.09,879.264 1200.44,879.264 1221.79,594.959 
  1243.14,594.959 1264.49,594.959 1285.84,594.959 1307.2,594.959 1328.55,594.959 1349.9,594.959 1371.25,594.959 1392.6,594.959 1413.95,594.959 1435.3,594.959 
  1456.65,594.959 1478,594.959 1499.35,594.959 1520.71,594.959 1542.06,594.959 1563.41,594.959 1584.76,594.959 1606.11,594.959 1627.46,594.959 1648.81,573.636 
  1670.16,552.313 1691.51,530.991 1712.87,509.668 1734.22,488.345 1755.57,467.022 1776.92,445.699 1798.27,424.376 1819.62,403.053 1840.97,381.731 1862.32,239.578 
  1883.67,239.578 1905.02,239.578 1926.38,239.578 1947.73,239.578 1969.08,239.578 1990.43,239.578 2011.78,239.578 2033.13,239.578 2054.48,239.578 2075.83,239.578 
  2097.18,239.578 2118.53,239.578 2139.89,239.578 2161.24,239.578 2182.59,239.578 2203.94,239.578 2225.29,239.578 2246.64,239.578 2267.99,239.578 2289.34,239.578 
  
  "></polyline>
<path clip-path="url(#clip200)" d="
M186.863 324.425 L668.003 324.425 L668.003 168.905 L186.863 168.905  Z
  " fill="#ffffff" fill-rule="evenodd" fill-opacity="1"></path>
<polyline clip-path="url(#clip200)" style="stroke:#000000; stroke-linecap:round; stroke-linejoin:round; stroke-width:4; stroke-opacity:1; fill:none" points="
  186.863,324.425 668.003,324.425 668.003,168.905 186.863,168.905 186.863,324.425 
  "></polyline>
<polyline clip-path="url(#clip200)" style="stroke:#009af9; stroke-linecap:round; stroke-linejoin:round; stroke-width:4; stroke-opacity:1; fill:none" points="
  211.758,220.745 361.13,220.745 
  "></polyline>
<path clip-path="url(#clip200)" d="M386.026 203.465 L407.877 203.465 L407.877 207.4 L390.702 207.4 L390.702 217.631 L407.16 217.631 L407.16 221.566 L390.702 221.566 L390.702 234.089 L408.294 234.089 L408.294 238.025 L386.026 238.025 L386.026 203.465 Z" fill="#000000" fill-rule="evenodd" fill-opacity="1"></path><path clip-path="url(#clip200)" d="M432.322 212.863 L432.322 216.891 Q430.516 215.965 428.572 215.502 Q426.627 215.039 424.544 215.039 Q421.373 215.039 419.776 216.011 Q418.201 216.983 418.201 218.928 Q418.201 220.409 419.336 221.265 Q420.47 222.099 423.896 222.863 L425.354 223.187 Q429.891 224.159 431.789 225.941 Q433.711 227.701 433.711 230.872 Q433.711 234.483 430.84 236.589 Q427.993 238.696 422.993 238.696 Q420.91 238.696 418.641 238.279 Q416.396 237.886 413.896 237.076 L413.896 232.677 Q416.257 233.904 418.549 234.529 Q420.84 235.131 423.086 235.131 Q426.095 235.131 427.715 234.113 Q429.336 233.071 429.336 231.196 Q429.336 229.46 428.155 228.534 Q426.998 227.608 423.039 226.752 L421.558 226.404 Q417.6 225.571 415.84 223.858 Q414.081 222.122 414.081 219.113 Q414.081 215.455 416.674 213.465 Q419.266 211.474 424.035 211.474 Q426.396 211.474 428.479 211.821 Q430.562 212.168 432.322 212.863 Z" fill="#000000" fill-rule="evenodd" fill-opacity="1"></path><path clip-path="url(#clip200)" d="M444.706 204.738 L444.706 212.099 L453.479 212.099 L453.479 215.409 L444.706 215.409 L444.706 229.483 Q444.706 232.654 445.562 233.557 Q446.442 234.46 449.104 234.46 L453.479 234.46 L453.479 238.025 L449.104 238.025 Q444.174 238.025 442.299 236.196 Q440.424 234.344 440.424 229.483 L440.424 215.409 L437.299 215.409 L437.299 212.099 L440.424 212.099 L440.424 204.738 L444.706 204.738 Z" fill="#000000" fill-rule="evenodd" fill-opacity="1"></path><path clip-path="url(#clip200)" d="M459.081 212.099 L463.34 212.099 L463.34 238.025 L459.081 238.025 L459.081 212.099 M459.081 202.006 L463.34 202.006 L463.34 207.4 L459.081 207.4 L459.081 202.006 Z" fill="#000000" fill-rule="evenodd" fill-opacity="1"></path><path clip-path="url(#clip200)" d="M492.437 217.076 Q494.034 214.205 496.257 212.84 Q498.479 211.474 501.488 211.474 Q505.539 211.474 507.738 214.321 Q509.937 217.145 509.937 222.377 L509.937 238.025 L505.655 238.025 L505.655 222.515 Q505.655 218.789 504.335 216.983 Q503.016 215.178 500.307 215.178 Q496.997 215.178 495.076 217.377 Q493.155 219.576 493.155 223.372 L493.155 238.025 L488.872 238.025 L488.872 222.515 Q488.872 218.765 487.553 216.983 Q486.233 215.178 483.479 215.178 Q480.215 215.178 478.294 217.4 Q476.372 219.599 476.372 223.372 L476.372 238.025 L472.09 238.025 L472.09 212.099 L476.372 212.099 L476.372 216.127 Q477.831 213.742 479.868 212.608 Q481.905 211.474 484.706 211.474 Q487.53 211.474 489.497 212.909 Q491.488 214.344 492.437 217.076 Z" fill="#000000" fill-rule="evenodd" fill-opacity="1"></path><path clip-path="url(#clip200)" d="M530.215 224.992 Q525.053 224.992 523.062 226.173 Q521.071 227.353 521.071 230.201 Q521.071 232.469 522.553 233.812 Q524.057 235.131 526.627 235.131 Q530.168 235.131 532.298 232.631 Q534.451 230.108 534.451 225.941 L534.451 224.992 L530.215 224.992 M538.71 223.233 L538.71 238.025 L534.451 238.025 L534.451 234.089 Q532.992 236.451 530.817 237.585 Q528.641 238.696 525.493 238.696 Q521.511 238.696 519.15 236.474 Q516.812 234.228 516.812 230.478 Q516.812 226.103 519.729 223.881 Q522.668 221.659 528.479 221.659 L534.451 221.659 L534.451 221.242 Q534.451 218.303 532.506 216.705 Q530.585 215.085 527.09 215.085 Q524.868 215.085 522.761 215.617 Q520.655 216.15 518.71 217.215 L518.71 213.279 Q521.048 212.377 523.247 211.937 Q525.446 211.474 527.53 211.474 Q533.155 211.474 535.932 214.391 Q538.71 217.307 538.71 223.233 Z" fill="#000000" fill-rule="evenodd" fill-opacity="1"></path><path clip-path="url(#clip200)" d="M551.696 204.738 L551.696 212.099 L560.469 212.099 L560.469 215.409 L551.696 215.409 L551.696 229.483 Q551.696 232.654 552.553 233.557 Q553.432 234.46 556.094 234.46 L560.469 234.46 L560.469 238.025 L556.094 238.025 Q551.164 238.025 549.289 236.196 Q547.414 234.344 547.414 229.483 L547.414 215.409 L544.289 215.409 L544.289 212.099 L547.414 212.099 L547.414 204.738 L551.696 204.738 Z" fill="#000000" fill-rule="evenodd" fill-opacity="1"></path><path clip-path="url(#clip200)" d="M566.071 212.099 L570.33 212.099 L570.33 238.025 L566.071 238.025 L566.071 212.099 M566.071 202.006 L570.33 202.006 L570.33 207.4 L566.071 207.4 L566.071 202.006 Z" fill="#000000" fill-rule="evenodd" fill-opacity="1"></path><path clip-path="url(#clip200)" d="M589.288 215.085 Q585.863 215.085 583.872 217.77 Q581.881 220.432 581.881 225.085 Q581.881 229.738 583.849 232.423 Q585.839 235.085 589.288 235.085 Q592.691 235.085 594.682 232.4 Q596.673 229.715 596.673 225.085 Q596.673 220.478 594.682 217.793 Q592.691 215.085 589.288 215.085 M589.288 211.474 Q594.844 211.474 598.015 215.085 Q601.187 218.696 601.187 225.085 Q601.187 231.451 598.015 235.085 Q594.844 238.696 589.288 238.696 Q583.71 238.696 580.539 235.085 Q577.39 231.451 577.39 225.085 Q577.39 218.696 580.539 215.085 Q583.71 211.474 589.288 211.474 Z" fill="#000000" fill-rule="evenodd" fill-opacity="1"></path><path clip-path="url(#clip200)" d="M629.798 222.377 L629.798 238.025 L625.538 238.025 L625.538 222.515 Q625.538 218.835 624.103 217.006 Q622.668 215.178 619.798 215.178 Q616.349 215.178 614.358 217.377 Q612.367 219.576 612.367 223.372 L612.367 238.025 L608.085 238.025 L608.085 212.099 L612.367 212.099 L612.367 216.127 Q613.895 213.789 615.955 212.631 Q618.038 211.474 620.747 211.474 Q625.214 211.474 627.506 214.252 Q629.798 217.006 629.798 222.377 Z" fill="#000000" fill-rule="evenodd" fill-opacity="1"></path><polyline clip-path="url(#clip200)" style="stroke:#e26f46; stroke-linecap:round; stroke-linejoin:round; stroke-width:4; stroke-opacity:1; fill:none" points="
  211.758,272.585 361.13,272.585 
  "></polyline>
<path clip-path="url(#clip200)" d="M386.026 255.305 L415.262 255.305 L415.262 259.24 L402.993 259.24 L402.993 289.865 L398.294 289.865 L398.294 259.24 L386.026 259.24 L386.026 255.305 Z" fill="#000000" fill-rule="evenodd" fill-opacity="1"></path><path clip-path="url(#clip200)" d="M427.646 267.92 Q426.928 267.504 426.072 267.318 Q425.238 267.11 424.22 267.11 Q420.609 267.11 418.664 269.471 Q416.743 271.809 416.743 276.207 L416.743 289.865 L412.461 289.865 L412.461 263.939 L416.743 263.939 L416.743 267.967 Q418.086 265.606 420.238 264.471 Q422.391 263.314 425.47 263.314 Q425.91 263.314 426.442 263.383 Q426.975 263.43 427.623 263.545 L427.646 267.92 Z" fill="#000000" fill-rule="evenodd" fill-opacity="1"></path><path clip-path="url(#clip200)" d="M431.674 279.633 L431.674 263.939 L435.933 263.939 L435.933 279.471 Q435.933 283.152 437.368 285.004 Q438.803 286.832 441.674 286.832 Q445.123 286.832 447.113 284.633 Q449.127 282.434 449.127 278.638 L449.127 263.939 L453.386 263.939 L453.386 289.865 L449.127 289.865 L449.127 285.883 Q447.576 288.244 445.516 289.402 Q443.479 290.536 440.771 290.536 Q436.303 290.536 433.988 287.758 Q431.674 284.98 431.674 279.633 M442.391 263.314 L442.391 263.314 Z" fill="#000000" fill-rule="evenodd" fill-opacity="1"></path><path clip-path="url(#clip200)" d="M484.335 275.837 L484.335 277.92 L464.752 277.92 Q465.03 282.318 467.391 284.633 Q469.775 286.925 474.011 286.925 Q476.465 286.925 478.757 286.323 Q481.071 285.721 483.34 284.517 L483.34 288.545 Q481.048 289.517 478.641 290.027 Q476.234 290.536 473.757 290.536 Q467.553 290.536 463.919 286.925 Q460.308 283.314 460.308 277.156 Q460.308 270.791 463.734 267.064 Q467.183 263.314 473.016 263.314 Q478.247 263.314 481.28 266.693 Q484.335 270.05 484.335 275.837 M480.076 274.587 Q480.03 271.092 478.109 269.008 Q476.21 266.925 473.062 266.925 Q469.497 266.925 467.345 268.939 Q465.215 270.953 464.891 274.61 L480.076 274.587 Z" fill="#000000" fill-rule="evenodd" fill-opacity="1"></path><path clip-path="url(#clip200)" d="M527.298 256.439 L527.298 260.999 Q524.636 259.726 522.275 259.101 Q519.914 258.476 517.715 258.476 Q513.895 258.476 511.812 259.957 Q509.752 261.439 509.752 264.17 Q509.752 266.462 511.118 267.643 Q512.506 268.8 516.349 269.518 L519.173 270.096 Q524.405 271.092 526.881 273.615 Q529.381 276.115 529.381 280.328 Q529.381 285.351 526.002 287.943 Q522.645 290.536 516.141 290.536 Q513.687 290.536 510.909 289.98 Q508.155 289.425 505.192 288.337 L505.192 283.522 Q508.039 285.119 510.77 285.929 Q513.502 286.74 516.141 286.74 Q520.145 286.74 522.321 285.166 Q524.497 283.592 524.497 280.675 Q524.497 278.129 522.923 276.693 Q521.372 275.258 517.807 274.541 L514.96 273.985 Q509.729 272.943 507.391 270.721 Q505.053 268.499 505.053 264.541 Q505.053 259.957 508.27 257.319 Q511.511 254.68 517.182 254.68 Q519.613 254.68 522.136 255.119 Q524.659 255.559 527.298 256.439 Z" fill="#000000" fill-rule="evenodd" fill-opacity="1"></path><path clip-path="url(#clip200)" d="M536.488 263.939 L540.747 263.939 L540.747 289.865 L536.488 289.865 L536.488 263.939 M536.488 253.846 L540.747 253.846 L540.747 259.24 L536.488 259.24 L536.488 253.846 Z" fill="#000000" fill-rule="evenodd" fill-opacity="1"></path><path clip-path="url(#clip200)" d="M566.719 276.601 Q566.719 271.971 564.798 269.425 Q562.9 266.879 559.451 266.879 Q556.025 266.879 554.103 269.425 Q552.205 271.971 552.205 276.601 Q552.205 281.207 554.103 283.754 Q556.025 286.3 559.451 286.3 Q562.9 286.3 564.798 283.754 Q566.719 281.207 566.719 276.601 M570.978 286.647 Q570.978 293.267 568.039 296.485 Q565.099 299.726 559.034 299.726 Q556.789 299.726 554.798 299.378 Q552.807 299.054 550.932 298.36 L550.932 294.216 Q552.807 295.235 554.636 295.721 Q556.465 296.207 558.363 296.207 Q562.553 296.207 564.636 294.008 Q566.719 291.832 566.719 287.411 L566.719 285.304 Q565.4 287.596 563.34 288.73 Q561.279 289.865 558.409 289.865 Q553.641 289.865 550.724 286.23 Q547.807 282.596 547.807 276.601 Q547.807 270.582 550.724 266.948 Q553.641 263.314 558.409 263.314 Q561.279 263.314 563.34 264.448 Q565.4 265.582 566.719 267.874 L566.719 263.939 L570.978 263.939 L570.978 286.647 Z" fill="#000000" fill-rule="evenodd" fill-opacity="1"></path><path clip-path="url(#clip200)" d="M601.302 274.217 L601.302 289.865 L597.043 289.865 L597.043 274.355 Q597.043 270.675 595.608 268.846 Q594.173 267.018 591.302 267.018 Q587.853 267.018 585.863 269.217 Q583.872 271.416 583.872 275.212 L583.872 289.865 L579.589 289.865 L579.589 263.939 L583.872 263.939 L583.872 267.967 Q585.4 265.629 587.46 264.471 Q589.543 263.314 592.251 263.314 Q596.719 263.314 599.011 266.092 Q601.302 268.846 601.302 274.217 Z" fill="#000000" fill-rule="evenodd" fill-opacity="1"></path><path clip-path="url(#clip200)" d="M621.58 276.832 Q616.418 276.832 614.427 278.013 Q612.437 279.193 612.437 282.041 Q612.437 284.309 613.918 285.652 Q615.423 286.971 617.992 286.971 Q621.534 286.971 623.663 284.471 Q625.816 281.948 625.816 277.781 L625.816 276.832 L621.58 276.832 M630.075 275.073 L630.075 289.865 L625.816 289.865 L625.816 285.929 Q624.358 288.291 622.182 289.425 Q620.006 290.536 616.858 290.536 Q612.876 290.536 610.515 288.314 Q608.177 286.068 608.177 282.318 Q608.177 277.943 611.094 275.721 Q614.034 273.499 619.844 273.499 L625.816 273.499 L625.816 273.082 Q625.816 270.143 623.872 268.545 Q621.95 266.925 618.455 266.925 Q616.233 266.925 614.126 267.457 Q612.02 267.99 610.075 269.055 L610.075 265.119 Q612.413 264.217 614.612 263.777 Q616.811 263.314 618.895 263.314 Q624.52 263.314 627.298 266.231 Q630.075 269.147 630.075 275.073 Z" fill="#000000" fill-rule="evenodd" fill-opacity="1"></path><path clip-path="url(#clip200)" d="M638.848 253.846 L643.108 253.846 L643.108 289.865 L638.848 289.865 L638.848 253.846 Z" fill="#000000" fill-rule="evenodd" fill-opacity="1"></path></svg>