<svg xmlns="http://www.w3.org/2000/svg" xmlns:xlink="http://www.w3.org/1999/xlink" width="600" height="400" viewBox="0 0 2400 1600">
<defs>
  <clipPath id="clip120">
    <rect x="0" y="0" width="2400" height="1600"></rect>
  </clipPath>
</defs>
<path clip-path="url(#clip120)" d="
M0 1600 L2400 1600 L2400 0 L0 0  Z
  " fill="#ffffff" fill-rule="evenodd" fill-opacity="1"></path>
<defs>
  <clipPath id="clip121">
    <rect x="480" y="0" width="1681" height="1600"></rect>
  </clipPath>
</defs>
<path clip-path="url(#clip120)" d="
M110.881 1486.45 L2352.76 1486.45 L2352.76 123.472 L110.881 123.472  Z
  " fill="#ffffff" fill-rule="evenodd" fill-opacity="1"></path>
<defs>
  <clipPath id="clip122">
    <rect x="110" y="123" width="2243" height="1364"></rect>
  </clipPath>
</defs>
<polyline clip-path="url(#clip122)" style="stroke:#000000; stroke-linecap:round; stroke-linejoin:round; stroke-width:2; stroke-opacity:0.1; fill:none" points="
  152.967,1486.45 152.967,123.472 
  "></polyline>
<polyline clip-path="url(#clip122)" style="stroke:#000000; stroke-linecap:round; stroke-linejoin:round; stroke-width:2; stroke-opacity:0.1; fill:none" points="
  687.052,1486.45 687.052,123.472 
  "></polyline>
<polyline clip-path="url(#clip122)" style="stroke:#000000; stroke-linecap:round; stroke-linejoin:round; stroke-width:2; stroke-opacity:0.1; fill:none" points="
  1221.14,1486.45 1221.14,123.472 
  "></polyline>
<polyline clip-path="url(#clip122)" style="stroke:#000000; stroke-linecap:round; stroke-linejoin:round; stroke-width:2; stroke-opacity:0.1; fill:none" points="
  1755.22,1486.45 1755.22,123.472 
  "></polyline>
<polyline clip-path="url(#clip122)" style="stroke:#000000; stroke-linecap:round; stroke-linejoin:round; stroke-width:2; stroke-opacity:0.1; fill:none" points="
  2289.31,1486.45 2289.31,123.472 
  "></polyline>
<polyline clip-path="url(#clip120)" style="stroke:#000000; stroke-linecap:round; stroke-linejoin:round; stroke-width:4; stroke-opacity:1; fill:none" points="
  110.881,1486.45 2352.76,1486.45 
  "></polyline>
<polyline clip-path="url(#clip120)" style="stroke:#000000; stroke-linecap:round; stroke-linejoin:round; stroke-width:4; stroke-opacity:1; fill:none" points="
  152.967,1486.45 152.967,1467.55 
  "></polyline>
<polyline clip-path="url(#clip120)" style="stroke:#000000; stroke-linecap:round; stroke-linejoin:round; stroke-width:4; stroke-opacity:1; fill:none" points="
  687.052,1486.45 687.052,1467.55 
  "></polyline>
<polyline clip-path="url(#clip120)" style="stroke:#000000; stroke-linecap:round; stroke-linejoin:round; stroke-width:4; stroke-opacity:1; fill:none" points="
  1221.14,1486.45 1221.14,1467.55 
  "></polyline>
<polyline clip-path="url(#clip120)" style="stroke:#000000; stroke-linecap:round; stroke-linejoin:round; stroke-width:4; stroke-opacity:1; fill:none" points="
  1755.22,1486.45 1755.22,1467.55 
  "></polyline>
<polyline clip-path="url(#clip120)" style="stroke:#000000; stroke-linecap:round; stroke-linejoin:round; stroke-width:4; stroke-opacity:1; fill:none" points="
  2289.31,1486.45 2289.31,1467.55 
  "></polyline>
<path clip-path="url(#clip120)" d="M152.967 1517.37 Q149.356 1517.37 147.527 1520.93 Q145.721 1524.47 145.721 1531.6 Q145.721 1538.71 147.527 1542.27 Q149.356 1545.82 152.967 1545.82 Q156.601 1545.82 158.407 1542.27 Q160.235 1538.71 160.235 1531.6 Q160.235 1524.47 158.407 1520.93 Q156.601 1517.37 152.967 1517.37 M152.967 1513.66 Q158.777 1513.66 161.832 1518.27 Q164.911 1522.85 164.911 1531.6 Q164.911 1540.33 161.832 1544.94 Q158.777 1549.52 152.967 1549.52 Q147.157 1549.52 144.078 1544.94 Q141.022 1540.33 141.022 1531.6 Q141.022 1522.85 144.078 1518.27 Q147.157 1513.66 152.967 1513.66 Z" fill="#000000" fill-rule="evenodd" fill-opacity="1"></path><path clip-path="url(#clip120)" d="M666.323 1544.91 L682.642 1544.91 L682.642 1548.85 L660.698 1548.85 L660.698 1544.91 Q663.36 1542.16 667.943 1537.53 Q672.55 1532.88 673.73 1531.53 Q675.975 1529.01 676.855 1527.27 Q677.758 1525.51 677.758 1523.82 Q677.758 1521.07 675.813 1519.33 Q673.892 1517.6 670.79 1517.6 Q668.591 1517.6 666.137 1518.36 Q663.707 1519.13 660.929 1520.68 L660.929 1515.95 Q663.753 1514.82 666.207 1514.24 Q668.661 1513.66 670.698 1513.66 Q676.068 1513.66 679.262 1516.35 Q682.457 1519.03 682.457 1523.52 Q682.457 1525.65 681.647 1527.57 Q680.86 1529.47 678.753 1532.07 Q678.174 1532.74 675.073 1535.95 Q671.971 1539.15 666.323 1544.91 Z" fill="#000000" fill-rule="evenodd" fill-opacity="1"></path><path clip-path="url(#clip120)" d="M692.503 1514.29 L710.859 1514.29 L710.859 1518.22 L696.785 1518.22 L696.785 1526.7 Q697.804 1526.35 698.823 1526.19 Q699.841 1526 700.86 1526 Q706.647 1526 710.026 1529.17 Q713.406 1532.34 713.406 1537.76 Q713.406 1543.34 709.934 1546.44 Q706.461 1549.52 700.142 1549.52 Q697.966 1549.52 695.698 1549.15 Q693.452 1548.78 691.045 1548.04 L691.045 1543.34 Q693.128 1544.47 695.35 1545.03 Q697.573 1545.58 700.049 1545.58 Q704.054 1545.58 706.392 1543.48 Q708.73 1541.37 708.73 1537.76 Q708.73 1534.15 706.392 1532.04 Q704.054 1529.94 700.049 1529.94 Q698.174 1529.94 696.299 1530.35 Q694.448 1530.77 692.503 1531.65 L692.503 1514.29 Z" fill="#000000" fill-rule="evenodd" fill-opacity="1"></path><path clip-path="url(#clip120)" d="M1195.84 1514.29 L1214.19 1514.29 L1214.19 1518.22 L1200.12 1518.22 L1200.12 1526.7 Q1201.14 1526.35 1202.16 1526.19 Q1203.17 1526 1204.19 1526 Q1209.98 1526 1213.36 1529.17 Q1216.74 1532.34 1216.74 1537.76 Q1216.74 1543.34 1213.27 1546.44 Q1209.79 1549.52 1203.47 1549.52 Q1201.3 1549.52 1199.03 1549.15 Q1196.78 1548.78 1194.38 1548.04 L1194.38 1543.34 Q1196.46 1544.47 1198.68 1545.03 Q1200.91 1545.58 1203.38 1545.58 Q1207.39 1545.58 1209.72 1543.48 Q1212.06 1541.37 1212.06 1537.76 Q1212.06 1534.15 1209.72 1532.04 Q1207.39 1529.94 1203.38 1529.94 Q1201.51 1529.94 1199.63 1530.35 Q1197.78 1530.77 1195.84 1531.65 L1195.84 1514.29 Z" fill="#000000" fill-rule="evenodd" fill-opacity="1"></path><path clip-path="url(#clip120)" d="M1235.95 1517.37 Q1232.34 1517.37 1230.51 1520.93 Q1228.71 1524.47 1228.71 1531.6 Q1228.71 1538.71 1230.51 1542.27 Q1232.34 1545.82 1235.95 1545.82 Q1239.59 1545.82 1241.39 1542.27 Q1243.22 1538.71 1243.22 1531.6 Q1243.22 1524.47 1241.39 1520.93 Q1239.59 1517.37 1235.95 1517.37 M1235.95 1513.66 Q1241.76 1513.66 1244.82 1518.27 Q1247.9 1522.85 1247.9 1531.6 Q1247.9 1540.33 1244.82 1544.94 Q1241.76 1549.52 1235.95 1549.52 Q1230.14 1549.52 1227.06 1544.94 Q1224.01 1540.33 1224.01 1531.6 Q1224.01 1522.85 1227.06 1518.27 Q1230.14 1513.66 1235.95 1513.66 Z" fill="#000000" fill-rule="evenodd" fill-opacity="1"></path><path clip-path="url(#clip120)" d="M1729.08 1514.29 L1751.3 1514.29 L1751.3 1516.28 L1738.75 1548.85 L1733.87 1548.85 L1745.67 1518.22 L1729.08 1518.22 L1729.08 1514.29 Z" fill="#000000" fill-rule="evenodd" fill-opacity="1"></path><path clip-path="url(#clip120)" d="M1760.46 1514.29 L1778.82 1514.29 L1778.82 1518.22 L1764.75 1518.22 L1764.75 1526.7 Q1765.77 1526.35 1766.78 1526.19 Q1767.8 1526 1768.82 1526 Q1774.61 1526 1777.99 1529.17 Q1781.37 1532.34 1781.37 1537.76 Q1781.37 1543.34 1777.9 1546.44 Q1774.42 1549.52 1768.1 1549.52 Q1765.93 1549.52 1763.66 1549.15 Q1761.41 1548.78 1759.01 1548.04 L1759.01 1543.34 Q1761.09 1544.47 1763.31 1545.03 Q1765.53 1545.58 1768.01 1545.58 Q1772.02 1545.58 1774.35 1543.48 Q1776.69 1541.37 1776.69 1537.76 Q1776.69 1534.15 1774.35 1532.04 Q1772.02 1529.94 1768.01 1529.94 Q1766.14 1529.94 1764.26 1530.35 Q1762.41 1530.77 1760.46 1531.65 L1760.46 1514.29 Z" fill="#000000" fill-rule="evenodd" fill-opacity="1"></path><path clip-path="url(#clip120)" d="M2248.91 1544.91 L2256.55 1544.91 L2256.55 1518.55 L2248.24 1520.21 L2248.24 1515.95 L2256.51 1514.29 L2261.18 1514.29 L2261.18 1544.91 L2268.82 1544.91 L2268.82 1548.85 L2248.91 1548.85 L2248.91 1544.91 Z" fill="#000000" fill-rule="evenodd" fill-opacity="1"></path><path clip-path="url(#clip120)" d="M2288.26 1517.37 Q2284.65 1517.37 2282.83 1520.93 Q2281.02 1524.47 2281.02 1531.6 Q2281.02 1538.71 2282.83 1542.27 Q2284.65 1545.82 2288.26 1545.82 Q2291.9 1545.82 2293.7 1542.27 Q2295.53 1538.71 2295.53 1531.6 Q2295.53 1524.47 2293.7 1520.93 Q2291.9 1517.37 2288.26 1517.37 M2288.26 1513.66 Q2294.08 1513.66 2297.13 1518.27 Q2300.21 1522.85 2300.21 1531.6 Q2300.21 1540.33 2297.13 1544.94 Q2294.08 1549.52 2288.26 1549.52 Q2282.45 1549.52 2279.38 1544.94 Q2276.32 1540.33 2276.32 1531.6 Q2276.32 1522.85 2279.38 1518.27 Q2282.45 1513.66 2288.26 1513.66 Z" fill="#000000" fill-rule="evenodd" fill-opacity="1"></path><path clip-path="url(#clip120)" d="M2318.43 1517.37 Q2314.82 1517.37 2312.99 1520.93 Q2311.18 1524.47 2311.18 1531.6 Q2311.18 1538.71 2312.99 1542.27 Q2314.82 1545.82 2318.43 1545.82 Q2322.06 1545.82 2323.87 1542.27 Q2325.7 1538.71 2325.7 1531.6 Q2325.7 1524.47 2323.87 1520.93 Q2322.06 1517.37 2318.43 1517.37 M2318.43 1513.66 Q2324.24 1513.66 2327.29 1518.27 Q2330.37 1522.85 2330.37 1531.6 Q2330.37 1540.33 2327.29 1544.94 Q2324.24 1549.52 2318.43 1549.52 Q2312.62 1549.52 2309.54 1544.94 Q2306.48 1540.33 2306.48 1531.6 Q2306.48 1522.85 2309.54 1518.27 Q2312.62 1513.66 2318.43 1513.66 Z" fill="#000000" fill-rule="evenodd" fill-opacity="1"></path><polyline clip-path="url(#clip122)" style="stroke:#000000; stroke-linecap:round; stroke-linejoin:round; stroke-width:2; stroke-opacity:0.1; fill:none" points="
  110.881,1214.54 2352.76,1214.54 
  "></polyline>
<polyline clip-path="url(#clip122)" style="stroke:#000000; stroke-linecap:round; stroke-linejoin:round; stroke-width:2; stroke-opacity:0.1; fill:none" points="
  110.881,933.315 2352.76,933.315 
  "></polyline>
<polyline clip-path="url(#clip122)" style="stroke:#000000; stroke-linecap:round; stroke-linejoin:round; stroke-width:2; stroke-opacity:0.1; fill:none" points="
  110.881,652.087 2352.76,652.087 
  "></polyline>
<polyline clip-path="url(#clip122)" style="stroke:#000000; stroke-linecap:round; stroke-linejoin:round; stroke-width:2; stroke-opacity:0.1; fill:none" points="
  110.881,370.859 2352.76,370.859 
  "></polyline>
<polyline clip-path="url(#clip120)" style="stroke:#000000; stroke-linecap:round; stroke-linejoin:round; stroke-width:4; stroke-opacity:1; fill:none" points="
  110.881,1486.45 110.881,123.472 
  "></polyline>
<polyline clip-path="url(#clip120)" style="stroke:#000000; stroke-linecap:round; stroke-linejoin:round; stroke-width:4; stroke-opacity:1; fill:none" points="
  110.881,1214.54 129.779,1214.54 
  "></polyline>
<polyline clip-path="url(#clip120)" style="stroke:#000000; stroke-linecap:round; stroke-linejoin:round; stroke-width:4; stroke-opacity:1; fill:none" points="
  110.881,933.315 129.779,933.315 
  "></polyline>
<polyline clip-path="url(#clip120)" style="stroke:#000000; stroke-linecap:round; stroke-linejoin:round; stroke-width:4; stroke-opacity:1; fill:none" points="
  110.881,652.087 129.779,652.087 
  "></polyline>
<polyline clip-path="url(#clip120)" style="stroke:#000000; stroke-linecap:round; stroke-linejoin:round; stroke-width:4; stroke-opacity:1; fill:none" points="
  110.881,370.859 129.779,370.859 
  "></polyline>
<path clip-path="url(#clip120)" d="M62.9365 1200.34 Q59.3254 1200.34 57.4967 1203.91 Q55.6912 1207.45 55.6912 1214.58 Q55.6912 1221.68 57.4967 1225.25 Q59.3254 1228.79 62.9365 1228.79 Q66.5707 1228.79 68.3763 1225.25 Q70.205 1221.68 70.205 1214.58 Q70.205 1207.45 68.3763 1203.91 Q66.5707 1200.34 62.9365 1200.34 M62.9365 1196.64 Q68.7467 1196.64 71.8022 1201.24 Q74.8809 1205.83 74.8809 1214.58 Q74.8809 1223.3 71.8022 1227.91 Q68.7467 1232.49 62.9365 1232.49 Q57.1264 1232.49 54.0477 1227.91 Q50.9921 1223.3 50.9921 1214.58 Q50.9921 1205.83 54.0477 1201.24 Q57.1264 1196.64 62.9365 1196.64 Z" fill="#000000" fill-rule="evenodd" fill-opacity="1"></path><path clip-path="url(#clip120)" d="M67.7513 931.961 Q71.1078 932.678 72.9827 934.947 Q74.8809 937.216 74.8809 940.549 Q74.8809 945.665 71.3624 948.465 Q67.8439 951.266 61.3624 951.266 Q59.1865 951.266 56.8717 950.827 Q54.5801 950.41 52.1264 949.553 L52.1264 945.04 Q54.0708 946.174 56.3856 946.752 Q58.7004 947.331 61.2236 947.331 Q65.6217 947.331 67.9133 945.595 Q70.2281 943.859 70.2281 940.549 Q70.2281 937.493 68.0754 935.78 Q65.9457 934.044 62.1263 934.044 L58.0986 934.044 L58.0986 930.202 L62.3115 930.202 Q65.7606 930.202 67.5893 928.836 Q69.418 927.447 69.418 924.854 Q69.418 922.192 67.5198 920.78 Q65.6448 919.345 62.1263 919.345 Q60.205 919.345 58.006 919.762 Q55.8069 920.179 53.168 921.058 L53.168 916.892 Q55.8301 916.151 58.1449 915.78 Q60.4828 915.41 62.543 915.41 Q67.867 915.41 70.9689 917.841 Q74.0707 920.248 74.0707 924.368 Q74.0707 927.239 72.4272 929.229 Q70.7837 931.197 67.7513 931.961 Z" fill="#000000" fill-rule="evenodd" fill-opacity="1"></path><path clip-path="url(#clip120)" d="M63.3532 650.224 Q60.205 650.224 58.3532 652.376 Q56.5245 654.529 56.5245 658.279 Q56.5245 662.006 58.3532 664.182 Q60.205 666.335 63.3532 666.335 Q66.5013 666.335 68.33 664.182 Q70.1818 662.006 70.1818 658.279 Q70.1818 654.529 68.33 652.376 Q66.5013 650.224 63.3532 650.224 M72.6355 635.571 L72.6355 639.83 Q70.8763 638.997 69.0707 638.557 Q67.2883 638.117 65.5291 638.117 Q60.8995 638.117 58.4458 641.242 Q56.0152 644.367 55.668 650.687 Q57.0338 648.673 59.0939 647.608 Q61.1541 646.52 63.6309 646.52 Q68.8393 646.52 71.8485 649.691 Q74.8809 652.839 74.8809 658.279 Q74.8809 663.603 71.7328 666.821 Q68.5846 670.038 63.3532 670.038 Q57.3578 670.038 54.1866 665.455 Q51.0153 660.849 51.0153 652.122 Q51.0153 643.927 54.9041 639.066 Q58.793 634.182 65.3439 634.182 Q67.1032 634.182 68.8855 634.529 Q70.6911 634.876 72.6355 635.571 Z" fill="#000000" fill-rule="evenodd" fill-opacity="1"></path><path clip-path="url(#clip120)" d="M53.2606 387.421 L53.2606 383.162 Q55.0199 383.996 56.8254 384.435 Q58.631 384.875 60.3671 384.875 Q64.9967 384.875 67.4272 381.773 Q69.8809 378.648 70.2281 372.306 Q68.8855 374.297 66.8254 375.361 Q64.7652 376.426 62.2652 376.426 Q57.0801 376.426 54.0477 373.301 Q51.0384 370.153 51.0384 364.713 Q51.0384 359.389 54.1866 356.172 Q57.3347 352.954 62.5661 352.954 Q68.5615 352.954 71.7096 357.56 Q74.8809 362.144 74.8809 370.894 Q74.8809 379.065 70.992 383.949 Q67.1263 388.81 60.5754 388.81 Q58.8162 388.81 57.0106 388.463 Q55.2051 388.116 53.2606 387.421 M62.5661 372.769 Q65.7143 372.769 67.543 370.616 Q69.3948 368.463 69.3948 364.713 Q69.3948 360.986 67.543 358.834 Q65.7143 356.658 62.5661 356.658 Q59.418 356.658 57.5662 358.834 Q55.7375 360.986 55.7375 364.713 Q55.7375 368.463 57.5662 370.616 Q59.418 372.769 62.5661 372.769 Z" fill="#000000" fill-rule="evenodd" fill-opacity="1"></path><path clip-path="url(#clip120)" d="M496.053 12.096 L534.293 12.096 L534.293 18.9825 L504.235 18.9825 L504.235 36.8875 L533.037 36.8875 L533.037 43.7741 L504.235 43.7741 L504.235 65.6895 L535.022 65.6895 L535.022 72.576 L496.053 72.576 L496.053 12.096 Z" fill="#000000" fill-rule="evenodd" fill-opacity="1"></path><path clip-path="url(#clip120)" d="M577.071 28.5427 L577.071 35.5912 Q573.911 33.9709 570.508 33.1607 Q567.106 32.3505 563.46 32.3505 Q557.91 32.3505 555.115 34.0519 Q552.36 35.7533 552.36 39.156 Q552.36 41.7486 554.345 43.2475 Q556.33 44.7058 562.325 46.0426 L564.878 46.6097 Q572.817 48.3111 576.139 51.4303 Q579.501 54.509 579.501 60.0587 Q579.501 66.3781 574.478 70.0644 Q569.496 73.7508 560.746 73.7508 Q557.1 73.7508 553.13 73.0216 Q549.201 72.3329 544.826 70.9151 L544.826 63.2184 Q548.957 65.3654 552.968 66.4591 Q556.978 67.5124 560.908 67.5124 Q566.174 67.5124 569.009 65.73 Q571.845 63.9071 571.845 60.6258 Q571.845 57.5877 569.779 55.9673 Q567.754 54.3469 560.827 52.8481 L558.234 52.2405 Q551.307 50.7821 548.228 47.7845 Q545.15 44.7463 545.15 39.4801 Q545.15 33.0797 549.687 29.5959 Q554.224 26.1121 562.569 26.1121 Q566.7 26.1121 570.346 26.7198 Q573.992 27.3274 577.071 28.5427 Z" fill="#000000" fill-rule="evenodd" fill-opacity="1"></path><path clip-path="url(#clip120)" d="M598.743 14.324 L598.743 27.2059 L614.096 27.2059 L614.096 32.9987 L598.743 32.9987 L598.743 57.6282 Q598.743 63.1779 600.242 64.7578 Q601.781 66.3376 606.44 66.3376 L614.096 66.3376 L614.096 72.576 L606.44 72.576 Q597.811 72.576 594.53 69.3758 Q591.249 66.1351 591.249 57.6282 L591.249 32.9987 L585.78 32.9987 L585.78 27.2059 L591.249 27.2059 L591.249 14.324 L598.743 14.324 Z" fill="#000000" fill-rule="evenodd" fill-opacity="1"></path><path clip-path="url(#clip120)" d="M623.899 27.2059 L631.353 27.2059 L631.353 72.576 L623.899 72.576 L623.899 27.2059 M623.899 9.54393 L631.353 9.54393 L631.353 18.9825 L623.899 18.9825 L623.899 9.54393 Z" fill="#000000" fill-rule="evenodd" fill-opacity="1"></path><path clip-path="url(#clip120)" d="M682.273 35.9153 Q685.068 30.8922 688.957 28.5022 Q692.846 26.1121 698.112 26.1121 Q705.201 26.1121 709.049 31.0947 Q712.898 36.0368 712.898 45.1919 L712.898 72.576 L705.403 72.576 L705.403 45.4349 Q705.403 38.913 703.094 35.7533 Q700.785 32.5936 696.046 32.5936 Q690.253 32.5936 686.891 36.4419 Q683.529 40.2903 683.529 46.9338 L683.529 72.576 L676.034 72.576 L676.034 45.4349 Q676.034 38.8725 673.725 35.7533 Q671.416 32.5936 666.596 32.5936 Q660.884 32.5936 657.522 36.4824 Q654.159 40.3308 654.159 46.9338 L654.159 72.576 L646.665 72.576 L646.665 27.2059 L654.159 27.2059 L654.159 34.2544 Q656.712 30.082 660.276 28.0971 Q663.841 26.1121 668.743 26.1121 Q673.685 26.1121 677.128 28.6237 Q680.612 31.1352 682.273 35.9153 Z" fill="#000000" fill-rule="evenodd" fill-opacity="1"></path><path clip-path="url(#clip120)" d="M748.383 49.7694 Q739.35 49.7694 735.866 51.8354 Q732.382 53.9013 732.382 58.8839 Q732.382 62.8538 734.975 65.2034 Q737.608 67.5124 742.105 67.5124 Q748.302 67.5124 752.029 63.1374 Q755.797 58.7219 755.797 51.4303 L755.797 49.7694 L748.383 49.7694 M763.25 46.6907 L763.25 72.576 L755.797 72.576 L755.797 65.6895 Q753.245 69.8214 749.437 71.8063 Q745.629 73.7508 740.12 73.7508 Q733.152 73.7508 729.02 69.8619 Q724.929 65.9325 724.929 59.3701 Q724.929 51.7138 730.033 47.825 Q735.178 43.9361 745.345 43.9361 L755.797 43.9361 L755.797 43.2069 Q755.797 38.0623 752.394 35.2672 Q749.032 32.4315 742.915 32.4315 Q739.026 32.4315 735.34 33.3632 Q731.653 34.295 728.25 36.1584 L728.25 29.2718 Q732.342 27.692 736.19 26.9223 Q740.039 26.1121 743.684 26.1121 Q753.528 26.1121 758.389 31.2163 Q763.25 36.3204 763.25 46.6907 Z" fill="#000000" fill-rule="evenodd" fill-opacity="1"></path><path clip-path="url(#clip120)" d="M785.976 14.324 L785.976 27.2059 L801.329 27.2059 L801.329 32.9987 L785.976 32.9987 L785.976 57.6282 Q785.976 63.1779 787.475 64.7578 Q789.014 66.3376 793.673 66.3376 L801.329 66.3376 L801.329 72.576 L793.673 72.576 Q785.044 72.576 781.763 69.3758 Q778.482 66.1351 778.482 57.6282 L778.482 32.9987 L773.013 32.9987 L773.013 27.2059 L778.482 27.2059 L778.482 14.324 L785.976 14.324 Z" fill="#000000" fill-rule="evenodd" fill-opacity="1"></path><path clip-path="url(#clip120)" d="M811.132 27.2059 L818.586 27.2059 L818.586 72.576 L811.132 72.576 L811.132 27.2059 M811.132 9.54393 L818.586 9.54393 L818.586 18.9825 L811.132 18.9825 L811.132 9.54393 Z" fill="#000000" fill-rule="evenodd" fill-opacity="1"></path><path clip-path="url(#clip120)" d="M851.763 32.4315 Q845.767 32.4315 842.283 37.1306 Q838.8 41.7891 838.8 49.9314 Q838.8 58.0738 842.243 62.7728 Q845.727 67.4314 851.763 67.4314 Q857.717 67.4314 861.201 62.7323 Q864.685 58.0333 864.685 49.9314 Q864.685 41.8701 861.201 37.1711 Q857.717 32.4315 851.763 32.4315 M851.763 26.1121 Q861.485 26.1121 867.034 32.4315 Q872.584 38.7509 872.584 49.9314 Q872.584 61.0714 867.034 67.4314 Q861.485 73.7508 851.763 73.7508 Q842 73.7508 836.45 67.4314 Q830.941 61.0714 830.941 49.9314 Q830.941 38.7509 836.45 32.4315 Q842 26.1121 851.763 26.1121 Z" fill="#000000" fill-rule="evenodd" fill-opacity="1"></path><path clip-path="url(#clip120)" d="M922.653 45.1919 L922.653 72.576 L915.2 72.576 L915.2 45.4349 Q915.2 38.994 912.688 35.7938 Q910.177 32.5936 905.153 32.5936 Q899.118 32.5936 895.634 36.4419 Q892.15 40.2903 892.15 46.9338 L892.15 72.576 L884.656 72.576 L884.656 27.2059 L892.15 27.2059 L892.15 34.2544 Q894.824 30.163 898.429 28.1376 Q902.075 26.1121 906.814 26.1121 Q914.633 26.1121 918.643 30.9732 Q922.653 35.7938 922.653 45.1919 Z" fill="#000000" fill-rule="evenodd" fill-opacity="1"></path><path clip-path="url(#clip120)" d="M959.557 27.2059 L967.011 27.2059 L976.328 62.6108 L985.604 27.2059 L994.395 27.2059 L1003.71 62.6108 L1012.99 27.2059 L1020.44 27.2059 L1008.57 72.576 L999.783 72.576 L990.02 35.3887 L980.217 72.576 L971.426 72.576 L959.557 27.2059 Z" fill="#000000" fill-rule="evenodd" fill-opacity="1"></path><path clip-path="url(#clip120)" d="M1031.74 27.2059 L1039.2 27.2059 L1039.2 72.576 L1031.74 72.576 L1031.74 27.2059 M1031.74 9.54393 L1039.2 9.54393 L1039.2 18.9825 L1031.74 18.9825 L1031.74 9.54393 Z" fill="#000000" fill-rule="evenodd" fill-opacity="1"></path><path clip-path="url(#clip120)" d="M1062.17 14.324 L1062.17 27.2059 L1077.52 27.2059 L1077.52 32.9987 L1062.17 32.9987 L1062.17 57.6282 Q1062.17 63.1779 1063.67 64.7578 Q1065.2 66.3376 1069.86 66.3376 L1077.52 66.3376 L1077.52 72.576 L1069.86 72.576 Q1061.23 72.576 1057.95 69.3758 Q1054.67 66.1351 1054.67 57.6282 L1054.67 32.9987 L1049.2 32.9987 L1049.2 27.2059 L1054.67 27.2059 L1054.67 14.324 L1062.17 14.324 Z" fill="#000000" fill-rule="evenodd" fill-opacity="1"></path><path clip-path="url(#clip120)" d="M1125.04 45.1919 L1125.04 72.576 L1117.58 72.576 L1117.58 45.4349 Q1117.58 38.994 1115.07 35.7938 Q1112.56 32.5936 1107.54 32.5936 Q1101.5 32.5936 1098.02 36.4419 Q1094.53 40.2903 1094.53 46.9338 L1094.53 72.576 L1087.04 72.576 L1087.04 9.54393 L1094.53 9.54393 L1094.53 34.2544 Q1097.21 30.163 1100.81 28.1376 Q1104.46 26.1121 1109.2 26.1121 Q1117.02 26.1121 1121.03 30.9732 Q1125.04 35.7938 1125.04 45.1919 Z" fill="#000000" fill-rule="evenodd" fill-opacity="1"></path><path clip-path="url(#clip120)" d="M1153.15 12.096 L1160.04 12.096 L1138.97 80.2727 L1132.09 80.2727 L1153.15 12.096 Z" fill="#000000" fill-rule="evenodd" fill-opacity="1"></path><path clip-path="url(#clip120)" d="M1163.52 27.2059 L1170.97 27.2059 L1180.29 62.6108 L1189.57 27.2059 L1198.36 27.2059 L1207.68 62.6108 L1216.95 27.2059 L1224.41 27.2059 L1212.54 72.576 L1203.75 72.576 L1193.98 35.3887 L1184.18 72.576 L1175.39 72.576 L1163.52 27.2059 Z" fill="#000000" fill-rule="evenodd" fill-opacity="1"></path><path clip-path="url(#clip120)" d="M1235.71 27.2059 L1243.16 27.2059 L1243.16 72.576 L1235.71 72.576 L1235.71 27.2059 M1235.71 9.54393 L1243.16 9.54393 L1243.16 18.9825 L1235.71 18.9825 L1235.71 9.54393 Z" fill="#000000" fill-rule="evenodd" fill-opacity="1"></path><path clip-path="url(#clip120)" d="M1266.13 14.324 L1266.13 27.2059 L1281.48 27.2059 L1281.48 32.9987 L1266.13 32.9987 L1266.13 57.6282 Q1266.13 63.1779 1267.63 64.7578 Q1269.17 66.3376 1273.83 66.3376 L1281.48 66.3376 L1281.48 72.576 L1273.83 72.576 Q1265.2 72.576 1261.92 69.3758 Q1258.64 66.1351 1258.64 57.6282 L1258.64 32.9987 L1253.17 32.9987 L1253.17 27.2059 L1258.64 27.2059 L1258.64 14.324 L1266.13 14.324 Z" fill="#000000" fill-rule="evenodd" fill-opacity="1"></path><path clip-path="url(#clip120)" d="M1329 45.1919 L1329 72.576 L1321.55 72.576 L1321.55 45.4349 Q1321.55 38.994 1319.03 35.7938 Q1316.52 32.5936 1311.5 32.5936 Q1305.46 32.5936 1301.98 36.4419 Q1298.5 40.2903 1298.5 46.9338 L1298.5 72.576 L1291 72.576 L1291 9.54393 L1298.5 9.54393 L1298.5 34.2544 Q1301.17 30.163 1304.78 28.1376 Q1308.42 26.1121 1313.16 26.1121 Q1320.98 26.1121 1324.99 30.9732 Q1329 35.7938 1329 45.1919 Z" fill="#000000" fill-rule="evenodd" fill-opacity="1"></path><path clip-path="url(#clip120)" d="M1361.45 32.4315 Q1355.45 32.4315 1351.97 37.1306 Q1348.48 41.7891 1348.48 49.9314 Q1348.48 58.0738 1351.93 62.7728 Q1355.41 67.4314 1361.45 67.4314 Q1367.4 67.4314 1370.89 62.7323 Q1374.37 58.0333 1374.37 49.9314 Q1374.37 41.8701 1370.89 37.1711 Q1367.4 32.4315 1361.45 32.4315 M1361.45 26.1121 Q1371.17 26.1121 1376.72 32.4315 Q1382.27 38.7509 1382.27 49.9314 Q1382.27 61.0714 1376.72 67.4314 Q1371.17 73.7508 1361.45 73.7508 Q1351.68 73.7508 1346.13 67.4314 Q1340.63 61.0714 1340.63 49.9314 Q1340.63 38.7509 1346.13 32.4315 Q1351.68 26.1121 1361.45 26.1121 Z" fill="#000000" fill-rule="evenodd" fill-opacity="1"></path><path clip-path="url(#clip120)" d="M1393.85 54.671 L1393.85 27.2059 L1401.31 27.2059 L1401.31 54.3874 Q1401.31 60.8284 1403.82 64.0691 Q1406.33 67.2693 1411.35 67.2693 Q1417.39 67.2693 1420.87 63.421 Q1424.4 59.5726 1424.4 52.9291 L1424.4 27.2059 L1431.85 27.2059 L1431.85 72.576 L1424.4 72.576 L1424.4 65.6084 Q1421.68 69.7404 1418.08 71.7658 Q1414.51 73.7508 1409.77 73.7508 Q1401.96 73.7508 1397.91 68.8897 Q1393.85 64.0286 1393.85 54.671 M1412.61 26.1121 L1412.61 26.1121 Z" fill="#000000" fill-rule="evenodd" fill-opacity="1"></path><path clip-path="url(#clip120)" d="M1454.58 14.324 L1454.58 27.2059 L1469.93 27.2059 L1469.93 32.9987 L1454.58 32.9987 L1454.58 57.6282 Q1454.58 63.1779 1456.08 64.7578 Q1457.62 66.3376 1462.27 66.3376 L1469.93 66.3376 L1469.93 72.576 L1462.27 72.576 Q1453.65 72.576 1450.36 69.3758 Q1447.08 66.1351 1447.08 57.6282 L1447.08 32.9987 L1441.61 32.9987 L1441.61 27.2059 L1447.08 27.2059 L1447.08 14.324 L1454.58 14.324 Z" fill="#000000" fill-rule="evenodd" fill-opacity="1"></path><path clip-path="url(#clip120)" d="M1551.72 16.7545 L1551.72 25.383 Q1547.59 21.5346 1542.89 19.6307 Q1538.23 17.7268 1532.96 17.7268 Q1522.59 17.7268 1517.08 24.0867 Q1511.57 30.4061 1511.57 42.3968 Q1511.57 54.3469 1517.08 60.7069 Q1522.59 67.0263 1532.96 67.0263 Q1538.23 67.0263 1542.89 65.1223 Q1547.59 63.2184 1551.72 59.3701 L1551.72 67.9175 Q1547.42 70.8341 1542.6 72.2924 Q1537.82 73.7508 1532.48 73.7508 Q1518.74 73.7508 1510.84 65.3654 Q1502.95 56.9395 1502.95 42.3968 Q1502.95 27.8135 1510.84 19.4281 Q1518.74 11.0023 1532.48 11.0023 Q1537.9 11.0023 1542.68 12.4606 Q1547.51 13.8784 1551.72 16.7545 Z" fill="#000000" fill-rule="evenodd" fill-opacity="1"></path><path clip-path="url(#clip120)" d="M1581.61 32.4315 Q1575.62 32.4315 1572.13 37.1306 Q1568.65 41.7891 1568.65 49.9314 Q1568.65 58.0738 1572.09 62.7728 Q1575.58 67.4314 1581.61 67.4314 Q1587.57 67.4314 1591.05 62.7323 Q1594.54 58.0333 1594.54 49.9314 Q1594.54 41.8701 1591.05 37.1711 Q1587.57 32.4315 1581.61 32.4315 M1581.61 26.1121 Q1591.34 26.1121 1596.89 32.4315 Q1602.44 38.7509 1602.44 49.9314 Q1602.44 61.0714 1596.89 67.4314 Q1591.34 73.7508 1581.61 73.7508 Q1571.85 73.7508 1566.3 67.4314 Q1560.79 61.0714 1560.79 49.9314 Q1560.79 38.7509 1566.3 32.4315 Q1571.85 26.1121 1581.61 26.1121 Z" fill="#000000" fill-rule="evenodd" fill-opacity="1"></path><path clip-path="url(#clip120)" d="M1652.5 45.1919 L1652.5 72.576 L1645.05 72.576 L1645.05 45.4349 Q1645.05 38.994 1642.54 35.7938 Q1640.03 32.5936 1635 32.5936 Q1628.97 32.5936 1625.49 36.4419 Q1622 40.2903 1622 46.9338 L1622 72.576 L1614.51 72.576 L1614.51 27.2059 L1622 27.2059 L1622 34.2544 Q1624.68 30.163 1628.28 28.1376 Q1631.93 26.1121 1636.67 26.1121 Q1644.48 26.1121 1648.49 30.9732 Q1652.5 35.7938 1652.5 45.1919 Z" fill="#000000" fill-rule="evenodd" fill-opacity="1"></path><path clip-path="url(#clip120)" d="M1696.3 28.5427 L1696.3 35.5912 Q1693.14 33.9709 1689.73 33.1607 Q1686.33 32.3505 1682.68 32.3505 Q1677.13 32.3505 1674.34 34.0519 Q1671.58 35.7533 1671.58 39.156 Q1671.58 41.7486 1673.57 43.2475 Q1675.55 44.7058 1681.55 46.0426 L1684.1 46.6097 Q1692.04 48.3111 1695.36 51.4303 Q1698.73 54.509 1698.73 60.0587 Q1698.73 66.3781 1693.7 70.0644 Q1688.72 73.7508 1679.97 73.7508 Q1676.32 73.7508 1672.35 73.0216 Q1668.42 72.3329 1664.05 70.9151 L1664.05 63.2184 Q1668.18 65.3654 1672.19 66.4591 Q1676.2 67.5124 1680.13 67.5124 Q1685.4 67.5124 1688.23 65.73 Q1691.07 63.9071 1691.07 60.6258 Q1691.07 57.5877 1689 55.9673 Q1686.98 54.3469 1680.05 52.8481 L1677.46 52.2405 Q1670.53 50.7821 1667.45 47.7845 Q1664.37 44.7463 1664.37 39.4801 Q1664.37 33.0797 1668.91 29.5959 Q1673.45 26.1121 1681.79 26.1121 Q1685.92 26.1121 1689.57 26.7198 Q1693.22 27.3274 1696.3 28.5427 Z" fill="#000000" fill-rule="evenodd" fill-opacity="1"></path><path clip-path="url(#clip120)" d="M1717.97 14.324 L1717.97 27.2059 L1733.32 27.2059 L1733.32 32.9987 L1717.97 32.9987 L1717.97 57.6282 Q1717.97 63.1779 1719.47 64.7578 Q1721.01 66.3376 1725.66 66.3376 L1733.32 66.3376 L1733.32 72.576 L1725.66 72.576 Q1717.04 72.576 1713.75 69.3758 Q1710.47 66.1351 1710.47 57.6282 L1710.47 32.9987 L1705 32.9987 L1705 27.2059 L1710.47 27.2059 L1710.47 14.324 L1717.97 14.324 Z" fill="#000000" fill-rule="evenodd" fill-opacity="1"></path><path clip-path="url(#clip120)" d="M1769.41 34.1734 Q1768.16 33.4443 1766.66 33.1202 Q1765.2 32.7556 1763.42 32.7556 Q1757.1 32.7556 1753.7 36.8875 Q1750.33 40.9789 1750.33 48.6757 L1750.33 72.576 L1742.84 72.576 L1742.84 27.2059 L1750.33 27.2059 L1750.33 34.2544 Q1752.68 30.1225 1756.45 28.1376 Q1760.22 26.1121 1765.61 26.1121 Q1766.38 26.1121 1767.31 26.2337 Q1768.24 26.3147 1769.37 26.5172 L1769.41 34.1734 Z" fill="#000000" fill-rule="evenodd" fill-opacity="1"></path><path clip-path="url(#clip120)" d="M1797.85 49.7694 Q1788.82 49.7694 1785.33 51.8354 Q1781.85 53.9013 1781.85 58.8839 Q1781.85 62.8538 1784.44 65.2034 Q1787.08 67.5124 1791.57 67.5124 Q1797.77 67.5124 1801.5 63.1374 Q1805.26 58.7219 1805.26 51.4303 L1805.26 49.7694 L1797.85 49.7694 M1812.72 46.6907 L1812.72 72.576 L1805.26 72.576 L1805.26 65.6895 Q1802.71 69.8214 1798.9 71.8063 Q1795.1 73.7508 1789.59 73.7508 Q1782.62 73.7508 1778.49 69.8619 Q1774.4 65.9325 1774.4 59.3701 Q1774.4 51.7138 1779.5 47.825 Q1784.65 43.9361 1794.81 43.9361 L1805.26 43.9361 L1805.26 43.2069 Q1805.26 38.0623 1801.86 35.2672 Q1798.5 32.4315 1792.38 32.4315 Q1788.49 32.4315 1784.81 33.3632 Q1781.12 34.295 1777.72 36.1584 L1777.72 29.2718 Q1781.81 27.692 1785.66 26.9223 Q1789.51 26.1121 1793.15 26.1121 Q1803 26.1121 1807.86 31.2163 Q1812.72 36.3204 1812.72 46.6907 Z" fill="#000000" fill-rule="evenodd" fill-opacity="1"></path><path clip-path="url(#clip120)" d="M1828.07 27.2059 L1835.52 27.2059 L1835.52 72.576 L1828.07 72.576 L1828.07 27.2059 M1828.07 9.54393 L1835.52 9.54393 L1835.52 18.9825 L1828.07 18.9825 L1828.07 9.54393 Z" fill="#000000" fill-rule="evenodd" fill-opacity="1"></path><path clip-path="url(#clip120)" d="M1888.83 45.1919 L1888.83 72.576 L1881.38 72.576 L1881.38 45.4349 Q1881.38 38.994 1878.87 35.7938 Q1876.36 32.5936 1871.33 32.5936 Q1865.3 32.5936 1861.82 36.4419 Q1858.33 40.2903 1858.33 46.9338 L1858.33 72.576 L1850.84 72.576 L1850.84 27.2059 L1858.33 27.2059 L1858.33 34.2544 Q1861 30.163 1864.61 28.1376 Q1868.26 26.1121 1873 26.1121 Q1880.81 26.1121 1884.82 30.9732 Q1888.83 35.7938 1888.83 45.1919 Z" fill="#000000" fill-rule="evenodd" fill-opacity="1"></path><path clip-path="url(#clip120)" d="M1911.07 14.324 L1911.07 27.2059 L1926.43 27.2059 L1926.43 32.9987 L1911.07 32.9987 L1911.07 57.6282 Q1911.07 63.1779 1912.57 64.7578 Q1914.11 66.3376 1918.77 66.3376 L1926.43 66.3376 L1926.43 72.576 L1918.77 72.576 Q1910.14 72.576 1906.86 69.3758 Q1903.58 66.1351 1903.58 57.6282 L1903.58 32.9987 L1898.11 32.9987 L1898.11 27.2059 L1903.58 27.2059 L1903.58 14.324 L1911.07 14.324 Z" fill="#000000" fill-rule="evenodd" fill-opacity="1"></path><path clip-path="url(#clip120)" d="M1965.15 28.5427 L1965.15 35.5912 Q1961.99 33.9709 1958.59 33.1607 Q1955.19 32.3505 1951.54 32.3505 Q1945.99 32.3505 1943.2 34.0519 Q1940.44 35.7533 1940.44 39.156 Q1940.44 41.7486 1942.43 43.2475 Q1944.41 44.7058 1950.41 46.0426 L1952.96 46.6097 Q1960.9 48.3111 1964.22 51.4303 Q1967.58 54.509 1967.58 60.0587 Q1967.58 66.3781 1962.56 70.0644 Q1957.58 73.7508 1948.83 73.7508 Q1945.18 73.7508 1941.21 73.0216 Q1937.28 72.3329 1932.91 70.9151 L1932.91 63.2184 Q1937.04 65.3654 1941.05 66.4591 Q1945.06 67.5124 1948.99 67.5124 Q1954.26 67.5124 1957.09 65.73 Q1959.93 63.9071 1959.93 60.6258 Q1959.93 57.5877 1957.86 55.9673 Q1955.84 54.3469 1948.91 52.8481 L1946.32 52.2405 Q1939.39 50.7821 1936.31 47.7845 Q1933.23 44.7463 1933.23 39.4801 Q1933.23 33.0797 1937.77 29.5959 Q1942.31 26.1121 1950.65 26.1121 Q1954.78 26.1121 1958.43 26.7198 Q1962.07 27.3274 1965.15 28.5427 Z" fill="#000000" fill-rule="evenodd" fill-opacity="1"></path><polyline clip-path="url(#clip122)" style="stroke:#009af9; stroke-linecap:round; stroke-linejoin:round; stroke-width:4; stroke-opacity:1; fill:none" points="
  174.33,1214.54 195.694,1160.3 217.057,1160.31 238.42,1141.17 259.784,1141.18 281.147,1141.18 302.511,1141.18 323.874,1141.19 345.237,1110.97 366.601,1110.97 
  387.964,1110.98 409.328,1109.78 430.691,1103.95 452.054,1103.95 473.418,1103.95 494.781,1103.96 516.145,1103.96 537.508,1103.96 558.871,1103.97 580.235,1103.97 
  601.598,1103.97 622.962,1103.97 644.325,1033.28 665.688,1033.28 687.052,1033.27 708.415,1033.27 729.779,1033.27 751.142,1033.26 772.505,881.243 793.869,881.239 
  815.232,881.232 836.596,881.223 857.959,881.214 879.322,881.203 900.686,881.194 922.049,881.183 943.413,881.174 964.776,881.16 986.139,881.148 1007.5,881.138 
  1028.87,881.131 1050.23,881.123 1071.59,881.114 1092.96,825.367 1114.32,825.36 1135.68,825.358 1157.05,727.905 1178.41,727.9 1199.77,702.302 1221.14,666.589 
  1242.5,666.584 1263.86,665.196 1285.23,665.189 1306.59,665.18 1327.95,665.17 1349.32,665.155 1370.68,665.142 1392.04,665.126 1413.41,665.11 1434.77,665.1 
  1456.13,665.088 1477.5,665.082 1498.86,665.068 1520.22,629.852 1541.59,629.836 1562.95,629.833 1584.31,629.821 1605.68,629.817 1627.04,629.811 1648.4,591.187 
  1669.77,578.136 1691.13,520.249 1712.49,520.252 1733.86,520.252 1755.22,520.259 1776.59,520.263 1797.95,520.266 1819.31,520.266 1840.68,520.272 1862.04,396.582 
  1883.4,396.587 1904.77,396.605 1926.13,396.614 1947.49,396.611 1968.86,396.609 1990.22,396.61 2011.58,396.615 2032.95,396.614 2054.31,396.625 2075.67,396.622 
  2097.04,396.615 2118.4,396.611 2139.76,396.612 2161.13,396.612 2182.49,366.602 2203.85,366.604 2225.22,366.606 2246.58,366.606 2267.94,366.606 2289.31,366.604 
  
  "></polyline>
<polyline clip-path="url(#clip122)" style="stroke:#e26f46; stroke-linecap:round; stroke-linejoin:round; stroke-width:4; stroke-opacity:1; fill:none" points="
  174.33,1226.91 195.694,1126.12 217.057,1056.04 238.42,934.233 259.784,1036.48 281.147,1067.75 302.511,1250.01 323.874,1447.87 345.237,1241.98 366.601,1111.4 
  387.964,1142.97 409.328,1114.8 430.691,969.842 452.054,952.443 473.418,1093.87 494.781,1123.64 516.145,1036.67 537.508,1095.2 558.871,1227.23 580.235,1130.7 
  601.598,1087.77 622.962,1182.12 644.325,1039.48 665.688,950.779 687.052,940.149 708.415,1022.59 729.779,1000.96 751.142,1093.13 772.505,869.989 793.869,882.915 
  815.232,812.978 836.596,896.574 857.959,928.27 879.322,834.563 900.686,839.087 922.049,884.636 943.413,985.478 964.776,896.097 986.139,774.457 1007.5,743.323 
  1028.87,869.681 1050.23,1056.27 1071.59,1064.17 1092.96,769.766 1114.32,816.759 1135.68,961.246 1157.05,821.248 1178.41,755.901 1199.77,693.72 1221.14,590.601 
  1242.5,502.359 1263.86,502.524 1285.23,764.545 1306.59,731.095 1327.95,588.909 1349.32,564.212 1370.68,729.272 1392.04,689.111 1413.41,522.492 1434.77,590.021 
  1456.13,755.334 1477.5,829.458 1498.86,840.111 1520.22,656.805 1541.59,574.213 1562.95,556.726 1584.31,458.881 1605.68,658.541 1627.04,903.253 1648.4,744.467 
  1669.77,515.003 1691.13,402.335 1712.49,423.492 1733.86,374.32 1755.22,462.109 1776.59,595.539 1797.95,622.44 1819.31,581.767 1840.68,573.397 1862.04,241.746 
  1883.4,162.047 1904.77,361.919 1926.13,509.895 1947.49,469.83 1968.86,336.366 1990.22,348.411 2011.58,483.011 2032.95,541.836 2054.31,408.194 2075.67,407.406 
  2097.04,391.823 2118.4,468.959 2139.76,536.289 2161.13,465.462 2182.49,297.066 2203.85,256.892 2225.22,357.53 2246.58,433.518 2267.94,452.613 2289.31,399.437 
  
  "></polyline>
<polyline clip-path="url(#clip122)" style="stroke:#3da44d; stroke-linecap:round; stroke-linejoin:round; stroke-width:4; stroke-opacity:1; fill:none" points="
  174.33,1205.17 195.694,1195.79 217.057,1186.42 238.42,1177.05 259.784,1167.67 281.147,1158.3 302.511,1148.92 323.874,1139.55 345.237,1130.17 366.601,1120.8 
  387.964,1111.43 409.328,1102.05 430.691,1092.68 452.054,1083.3 473.418,1073.93 494.781,1064.55 516.145,1055.18 537.508,1045.81 558.871,1036.43 580.235,1027.06 
  601.598,1017.68 622.962,1008.31 644.325,998.935 665.688,989.561 687.052,980.186 708.415,970.812 729.779,961.438 751.142,952.064 772.505,942.689 793.869,933.315 
  815.232,923.941 836.596,914.567 857.959,905.192 879.322,895.818 900.686,886.444 922.049,877.069 943.413,867.695 964.776,858.321 986.139,848.947 1007.5,839.572 
  1028.87,839.572 1050.23,839.572 1071.59,839.572 1092.96,839.572 1114.32,839.572 1135.68,839.572 1157.05,839.572 1178.41,839.572 1199.77,839.572 1221.14,652.087 
  1242.5,652.087 1263.86,652.087 1285.23,652.087 1306.59,652.087 1327.95,652.087 1349.32,652.087 1370.68,652.087 1392.04,652.087 1413.41,652.087 1434.77,652.087 
  1456.13,652.087 1477.5,652.087 1498.86,652.087 1520.22,652.087 1541.59,652.087 1562.95,652.087 1584.31,652.087 1605.68,652.087 1627.04,652.087 1648.4,638.026 
  1669.77,623.964 1691.13,609.903 1712.49,595.841 1733.86,581.78 1755.22,567.719 1776.59,553.657 1797.95,539.596 1819.31,525.534 1840.68,511.473 1862.04,417.73 
  1883.4,417.73 1904.77,417.73 1926.13,417.73 1947.49,417.73 1968.86,417.73 1990.22,417.73 2011.58,417.73 2032.95,417.73 2054.31,417.73 2075.67,417.73 
  2097.04,417.73 2118.4,417.73 2139.76,417.73 2161.13,417.73 2182.49,417.73 2203.85,417.73 2225.22,417.73 2246.58,417.73 2267.94,417.73 2289.31,417.73 
  
  "></polyline>
<path clip-path="url(#clip120)" d="
M185.61 376.265 L876.739 376.265 L876.739 168.905 L185.61 168.905  Z
  " fill="#ffffff" fill-rule="evenodd" fill-opacity="1"></path>
<polyline clip-path="url(#clip120)" style="stroke:#000000; stroke-linecap:round; stroke-linejoin:round; stroke-width:4; stroke-opacity:1; fill:none" points="
  185.61,376.265 876.739,376.265 876.739,168.905 185.61,168.905 185.61,376.265 
  "></polyline>
<polyline clip-path="url(#clip120)" style="stroke:#009af9; stroke-linecap:round; stroke-linejoin:round; stroke-width:4; stroke-opacity:1; fill:none" points="
  210.52,220.745 359.978,220.745 
  "></polyline>
<path clip-path="url(#clip120)" d="M384.888 203.465 L389.61 203.465 L396.879 232.677 L404.124 203.465 L409.378 203.465 L416.647 232.677 L423.892 203.465 L428.638 203.465 L419.957 238.025 L414.077 238.025 L406.786 208.025 L399.425 238.025 L393.545 238.025 L384.888 203.465 Z" fill="#000000" fill-rule="evenodd" fill-opacity="1"></path><path clip-path="url(#clip120)" d="M433.614 212.099 L437.874 212.099 L437.874 238.025 L433.614 238.025 L433.614 212.099 M433.614 202.006 L437.874 202.006 L437.874 207.4 L433.614 207.4 L433.614 202.006 Z" fill="#000000" fill-rule="evenodd" fill-opacity="1"></path><path clip-path="url(#clip120)" d="M450.999 204.738 L450.999 212.099 L459.772 212.099 L459.772 215.409 L450.999 215.409 L450.999 229.483 Q450.999 232.654 451.855 233.557 Q452.735 234.46 455.397 234.46 L459.772 234.46 L459.772 238.025 L455.397 238.025 Q450.466 238.025 448.591 236.196 Q446.716 234.344 446.716 229.483 L446.716 215.409 L443.591 215.409 L443.591 212.099 L446.716 212.099 L446.716 204.738 L450.999 204.738 Z" fill="#000000" fill-rule="evenodd" fill-opacity="1"></path><path clip-path="url(#clip120)" d="M486.924 222.377 L486.924 238.025 L482.665 238.025 L482.665 222.515 Q482.665 218.835 481.23 217.006 Q479.795 215.178 476.924 215.178 Q473.475 215.178 471.485 217.377 Q469.494 219.576 469.494 223.372 L469.494 238.025 L465.211 238.025 L465.211 202.006 L469.494 202.006 L469.494 216.127 Q471.022 213.789 473.082 212.631 Q475.165 211.474 477.873 211.474 Q482.341 211.474 484.633 214.252 Q486.924 217.006 486.924 222.377 Z" fill="#000000" fill-rule="evenodd" fill-opacity="1"></path><path clip-path="url(#clip120)" d="M536.554 206.127 L536.554 211.057 Q534.193 208.858 531.507 207.77 Q528.845 206.682 525.836 206.682 Q519.91 206.682 516.762 210.316 Q513.614 213.928 513.614 220.779 Q513.614 227.608 516.762 231.242 Q519.91 234.853 525.836 234.853 Q528.845 234.853 531.507 233.765 Q534.193 232.677 536.554 230.478 L536.554 235.363 Q534.1 237.029 531.345 237.863 Q528.614 238.696 525.558 238.696 Q517.711 238.696 513.197 233.904 Q508.683 229.09 508.683 220.779 Q508.683 212.446 513.197 207.654 Q517.711 202.84 525.558 202.84 Q528.66 202.84 531.392 203.673 Q534.146 204.483 536.554 206.127 Z" fill="#000000" fill-rule="evenodd" fill-opacity="1"></path><path clip-path="url(#clip120)" d="M553.637 215.085 Q550.211 215.085 548.22 217.77 Q546.23 220.432 546.23 225.085 Q546.23 229.738 548.197 232.423 Q550.188 235.085 553.637 235.085 Q557.04 235.085 559.03 232.4 Q561.021 229.715 561.021 225.085 Q561.021 220.478 559.03 217.793 Q557.04 215.085 553.637 215.085 M553.637 211.474 Q559.192 211.474 562.364 215.085 Q565.535 218.696 565.535 225.085 Q565.535 231.451 562.364 235.085 Q559.192 238.696 553.637 238.696 Q548.058 238.696 544.887 235.085 Q541.739 231.451 541.739 225.085 Q541.739 218.696 544.887 215.085 Q548.058 211.474 553.637 211.474 Z" fill="#000000" fill-rule="evenodd" fill-opacity="1"></path><path clip-path="url(#clip120)" d="M594.146 222.377 L594.146 238.025 L589.887 238.025 L589.887 222.515 Q589.887 218.835 588.452 217.006 Q587.016 215.178 584.146 215.178 Q580.697 215.178 578.706 217.377 Q576.716 219.576 576.716 223.372 L576.716 238.025 L572.433 238.025 L572.433 212.099 L576.716 212.099 L576.716 216.127 Q578.243 213.789 580.303 212.631 Q582.387 211.474 585.095 211.474 Q589.563 211.474 591.854 214.252 Q594.146 217.006 594.146 222.377 Z" fill="#000000" fill-rule="evenodd" fill-opacity="1"></path><path clip-path="url(#clip120)" d="M619.169 212.863 L619.169 216.891 Q617.363 215.965 615.419 215.502 Q613.475 215.039 611.391 215.039 Q608.22 215.039 606.623 216.011 Q605.049 216.983 605.049 218.928 Q605.049 220.409 606.183 221.265 Q607.317 222.099 610.743 222.863 L612.201 223.187 Q616.738 224.159 618.637 225.941 Q620.558 227.701 620.558 230.872 Q620.558 234.483 617.688 236.589 Q614.84 238.696 609.84 238.696 Q607.757 238.696 605.489 238.279 Q603.243 237.886 600.743 237.076 L600.743 232.677 Q603.104 233.904 605.396 234.529 Q607.688 235.131 609.933 235.131 Q612.942 235.131 614.563 234.113 Q616.183 233.071 616.183 231.196 Q616.183 229.46 615.002 228.534 Q613.845 227.608 609.887 226.752 L608.405 226.404 Q604.447 225.571 602.688 223.858 Q600.928 222.122 600.928 219.113 Q600.928 215.455 603.521 213.465 Q606.114 211.474 610.882 211.474 Q613.243 211.474 615.326 211.821 Q617.41 212.168 619.169 212.863 Z" fill="#000000" fill-rule="evenodd" fill-opacity="1"></path><path clip-path="url(#clip120)" d="M631.553 204.738 L631.553 212.099 L640.326 212.099 L640.326 215.409 L631.553 215.409 L631.553 229.483 Q631.553 232.654 632.41 233.557 Q633.289 234.46 635.951 234.46 L640.326 234.46 L640.326 238.025 L635.951 238.025 Q631.021 238.025 629.146 236.196 Q627.271 234.344 627.271 229.483 L627.271 215.409 L624.146 215.409 L624.146 212.099 L627.271 212.099 L627.271 204.738 L631.553 204.738 Z" fill="#000000" fill-rule="evenodd" fill-opacity="1"></path><path clip-path="url(#clip120)" d="M660.951 216.08 Q660.234 215.664 659.377 215.478 Q658.544 215.27 657.525 215.27 Q653.914 215.27 651.97 217.631 Q650.048 219.969 650.048 224.367 L650.048 238.025 L645.766 238.025 L645.766 212.099 L650.048 212.099 L650.048 216.127 Q651.391 213.766 653.544 212.631 Q655.697 211.474 658.775 211.474 Q659.215 211.474 659.747 211.543 Q660.28 211.59 660.928 211.705 L660.951 216.08 Z" fill="#000000" fill-rule="evenodd" fill-opacity="1"></path><path clip-path="url(#clip120)" d="M677.201 224.992 Q672.039 224.992 670.048 226.173 Q668.058 227.353 668.058 230.201 Q668.058 232.469 669.539 233.812 Q671.044 235.131 673.613 235.131 Q677.155 235.131 679.284 232.631 Q681.437 230.108 681.437 225.941 L681.437 224.992 L677.201 224.992 M685.696 223.233 L685.696 238.025 L681.437 238.025 L681.437 234.089 Q679.979 236.451 677.803 237.585 Q675.627 238.696 672.479 238.696 Q668.497 238.696 666.136 236.474 Q663.798 234.228 663.798 230.478 Q663.798 226.103 666.715 223.881 Q669.655 221.659 675.465 221.659 L681.437 221.659 L681.437 221.242 Q681.437 218.303 679.493 216.705 Q677.571 215.085 674.076 215.085 Q671.854 215.085 669.747 215.617 Q667.641 216.15 665.697 217.215 L665.697 213.279 Q668.034 212.377 670.234 211.937 Q672.433 211.474 674.516 211.474 Q680.141 211.474 682.919 214.391 Q685.696 217.307 685.696 223.233 Z" fill="#000000" fill-rule="evenodd" fill-opacity="1"></path><path clip-path="url(#clip120)" d="M694.47 212.099 L698.729 212.099 L698.729 238.025 L694.47 238.025 L694.47 212.099 M694.47 202.006 L698.729 202.006 L698.729 207.4 L694.47 207.4 L694.47 202.006 Z" fill="#000000" fill-rule="evenodd" fill-opacity="1"></path><path clip-path="url(#clip120)" d="M711.854 204.738 L711.854 212.099 L720.627 212.099 L720.627 215.409 L711.854 215.409 L711.854 229.483 Q711.854 232.654 712.71 233.557 Q713.59 234.46 716.252 234.46 L720.627 234.46 L720.627 238.025 L716.252 238.025 Q711.321 238.025 709.446 236.196 Q707.571 234.344 707.571 229.483 L707.571 215.409 L704.446 215.409 L704.446 212.099 L707.571 212.099 L707.571 204.738 L711.854 204.738 Z" fill="#000000" fill-rule="evenodd" fill-opacity="1"></path><path clip-path="url(#clip120)" d="M742.756 212.863 L742.756 216.891 Q740.951 215.965 739.006 215.502 Q737.062 215.039 734.979 215.039 Q731.807 215.039 730.21 216.011 Q728.636 216.983 728.636 218.928 Q728.636 220.409 729.77 221.265 Q730.904 222.099 734.33 222.863 L735.789 223.187 Q740.326 224.159 742.224 225.941 Q744.145 227.701 744.145 230.872 Q744.145 234.483 741.275 236.589 Q738.428 238.696 733.428 238.696 Q731.344 238.696 729.076 238.279 Q726.83 237.886 724.33 237.076 L724.33 232.677 Q726.692 233.904 728.983 234.529 Q731.275 235.131 733.52 235.131 Q736.529 235.131 738.15 234.113 Q739.77 233.071 739.77 231.196 Q739.77 229.46 738.59 228.534 Q737.432 227.608 733.474 226.752 L731.992 226.404 Q728.034 225.571 726.275 223.858 Q724.516 222.122 724.516 219.113 Q724.516 215.455 727.108 213.465 Q729.701 211.474 734.469 211.474 Q736.83 211.474 738.914 211.821 Q740.997 212.168 742.756 212.863 Z" fill="#000000" fill-rule="evenodd" fill-opacity="1"></path><polyline clip-path="url(#clip120)" style="stroke:#e26f46; stroke-linecap:round; stroke-linejoin:round; stroke-width:4; stroke-opacity:1; fill:none" points="
  210.52,272.585 359.978,272.585 
  "></polyline>
<path clip-path="url(#clip120)" d="M384.888 255.305 L389.61 255.305 L396.879 284.517 L404.124 255.305 L409.378 255.305 L416.647 284.517 L423.892 255.305 L428.638 255.305 L419.957 289.865 L414.077 289.865 L406.786 259.865 L399.425 289.865 L393.545 289.865 L384.888 255.305 Z" fill="#000000" fill-rule="evenodd" fill-opacity="1"></path><path clip-path="url(#clip120)" d="M433.614 263.939 L437.874 263.939 L437.874 289.865 L433.614 289.865 L433.614 263.939 M433.614 253.846 L437.874 253.846 L437.874 259.24 L433.614 259.24 L433.614 253.846 Z" fill="#000000" fill-rule="evenodd" fill-opacity="1"></path><path clip-path="url(#clip120)" d="M450.999 256.578 L450.999 263.939 L459.772 263.939 L459.772 267.249 L450.999 267.249 L450.999 281.323 Q450.999 284.494 451.855 285.397 Q452.735 286.3 455.397 286.3 L459.772 286.3 L459.772 289.865 L455.397 289.865 Q450.466 289.865 448.591 288.036 Q446.716 286.184 446.716 281.323 L446.716 267.249 L443.591 267.249 L443.591 263.939 L446.716 263.939 L446.716 256.578 L450.999 256.578 Z" fill="#000000" fill-rule="evenodd" fill-opacity="1"></path><path clip-path="url(#clip120)" d="M486.924 274.217 L486.924 289.865 L482.665 289.865 L482.665 274.355 Q482.665 270.675 481.23 268.846 Q479.795 267.018 476.924 267.018 Q473.475 267.018 471.485 269.217 Q469.494 271.416 469.494 275.212 L469.494 289.865 L465.211 289.865 L465.211 253.846 L469.494 253.846 L469.494 267.967 Q471.022 265.629 473.082 264.471 Q475.165 263.314 477.873 263.314 Q482.341 263.314 484.633 266.092 Q486.924 268.846 486.924 274.217 Z" fill="#000000" fill-rule="evenodd" fill-opacity="1"></path><path clip-path="url(#clip120)" d="M505.466 266.925 Q502.04 266.925 500.049 269.61 Q498.059 272.272 498.059 276.925 Q498.059 281.578 500.026 284.263 Q502.017 286.925 505.466 286.925 Q508.869 286.925 510.859 284.24 Q512.85 281.555 512.85 276.925 Q512.85 272.318 510.859 269.633 Q508.869 266.925 505.466 266.925 M505.466 263.314 Q511.021 263.314 514.193 266.925 Q517.364 270.536 517.364 276.925 Q517.364 283.291 514.193 286.925 Q511.021 290.536 505.466 290.536 Q499.887 290.536 496.716 286.925 Q493.568 283.291 493.568 276.925 Q493.568 270.536 496.716 266.925 Q499.887 263.314 505.466 263.314 Z" fill="#000000" fill-rule="evenodd" fill-opacity="1"></path><path clip-path="url(#clip120)" d="M523.984 279.633 L523.984 263.939 L528.244 263.939 L528.244 279.471 Q528.244 283.152 529.679 285.004 Q531.114 286.832 533.984 286.832 Q537.433 286.832 539.424 284.633 Q541.438 282.434 541.438 278.638 L541.438 263.939 L545.697 263.939 L545.697 289.865 L541.438 289.865 L541.438 285.883 Q539.887 288.244 537.827 289.402 Q535.79 290.536 533.081 290.536 Q528.614 290.536 526.299 287.758 Q523.984 284.98 523.984 279.633 M534.702 263.314 L534.702 263.314 Z" fill="#000000" fill-rule="evenodd" fill-opacity="1"></path><path clip-path="url(#clip120)" d="M558.683 256.578 L558.683 263.939 L567.456 263.939 L567.456 267.249 L558.683 267.249 L558.683 281.323 Q558.683 284.494 559.54 285.397 Q560.419 286.3 563.081 286.3 L567.456 286.3 L567.456 289.865 L563.081 289.865 Q558.151 289.865 556.276 288.036 Q554.401 286.184 554.401 281.323 L554.401 267.249 L551.276 267.249 L551.276 263.939 L554.401 263.939 L554.401 256.578 L558.683 256.578 Z" fill="#000000" fill-rule="evenodd" fill-opacity="1"></path><path clip-path="url(#clip120)" d="M614.192 257.967 L614.192 262.897 Q611.831 260.698 609.146 259.61 Q606.484 258.522 603.475 258.522 Q597.549 258.522 594.401 262.156 Q591.252 265.768 591.252 272.619 Q591.252 279.448 594.401 283.082 Q597.549 286.693 603.475 286.693 Q606.484 286.693 609.146 285.605 Q611.831 284.517 614.192 282.318 L614.192 287.203 Q611.738 288.869 608.984 289.703 Q606.252 290.536 603.197 290.536 Q595.35 290.536 590.836 285.744 Q586.322 280.93 586.322 272.619 Q586.322 264.286 590.836 259.494 Q595.35 254.68 603.197 254.68 Q606.299 254.68 609.03 255.513 Q611.785 256.323 614.192 257.967 Z" fill="#000000" fill-rule="evenodd" fill-opacity="1"></path><path clip-path="url(#clip120)" d="M631.275 266.925 Q627.849 266.925 625.859 269.61 Q623.868 272.272 623.868 276.925 Q623.868 281.578 625.836 284.263 Q627.826 286.925 631.275 286.925 Q634.678 286.925 636.669 284.24 Q638.66 281.555 638.66 276.925 Q638.66 272.318 636.669 269.633 Q634.678 266.925 631.275 266.925 M631.275 263.314 Q636.831 263.314 640.002 266.925 Q643.173 270.536 643.173 276.925 Q643.173 283.291 640.002 286.925 Q636.831 290.536 631.275 290.536 Q625.697 290.536 622.525 286.925 Q619.377 283.291 619.377 276.925 Q619.377 270.536 622.525 266.925 Q625.697 263.314 631.275 263.314 Z" fill="#000000" fill-rule="evenodd" fill-opacity="1"></path><path clip-path="url(#clip120)" d="M671.784 274.217 L671.784 289.865 L667.525 289.865 L667.525 274.355 Q667.525 270.675 666.09 268.846 Q664.655 267.018 661.784 267.018 Q658.335 267.018 656.345 269.217 Q654.354 271.416 654.354 275.212 L654.354 289.865 L650.072 289.865 L650.072 263.939 L654.354 263.939 L654.354 267.967 Q655.882 265.629 657.942 264.471 Q660.025 263.314 662.734 263.314 Q667.201 263.314 669.493 266.092 Q671.784 268.846 671.784 274.217 Z" fill="#000000" fill-rule="evenodd" fill-opacity="1"></path><path clip-path="url(#clip120)" d="M696.807 264.703 L696.807 268.731 Q695.002 267.805 693.057 267.342 Q691.113 266.879 689.03 266.879 Q685.858 266.879 684.261 267.851 Q682.687 268.823 682.687 270.768 Q682.687 272.249 683.821 273.105 Q684.956 273.939 688.382 274.703 L689.84 275.027 Q694.377 275.999 696.275 277.781 Q698.196 279.541 698.196 282.712 Q698.196 286.323 695.326 288.429 Q692.479 290.536 687.479 290.536 Q685.395 290.536 683.127 290.119 Q680.882 289.726 678.382 288.916 L678.382 284.517 Q680.743 285.744 683.034 286.369 Q685.326 286.971 687.571 286.971 Q690.581 286.971 692.201 285.953 Q693.821 284.911 693.821 283.036 Q693.821 281.3 692.641 280.374 Q691.483 279.448 687.525 278.592 L686.044 278.244 Q682.085 277.411 680.326 275.698 Q678.567 273.962 678.567 270.953 Q678.567 267.295 681.159 265.305 Q683.752 263.314 688.52 263.314 Q690.882 263.314 692.965 263.661 Q695.048 264.008 696.807 264.703 Z" fill="#000000" fill-rule="evenodd" fill-opacity="1"></path><path clip-path="url(#clip120)" d="M709.192 256.578 L709.192 263.939 L717.965 263.939 L717.965 267.249 L709.192 267.249 L709.192 281.323 Q709.192 284.494 710.048 285.397 Q710.928 286.3 713.59 286.3 L717.965 286.3 L717.965 289.865 L713.59 289.865 Q708.659 289.865 706.784 288.036 Q704.909 286.184 704.909 281.323 L704.909 267.249 L701.784 267.249 L701.784 263.939 L704.909 263.939 L704.909 256.578 L709.192 256.578 Z" fill="#000000" fill-rule="evenodd" fill-opacity="1"></path><path clip-path="url(#clip120)" d="M738.59 267.92 Q737.872 267.504 737.016 267.318 Q736.182 267.11 735.164 267.11 Q731.553 267.11 729.608 269.471 Q727.687 271.809 727.687 276.207 L727.687 289.865 L723.405 289.865 L723.405 263.939 L727.687 263.939 L727.687 267.967 Q729.03 265.606 731.182 264.471 Q733.335 263.314 736.414 263.314 Q736.854 263.314 737.386 263.383 Q737.918 263.43 738.566 263.545 L738.59 267.92 Z" fill="#000000" fill-rule="evenodd" fill-opacity="1"></path><path clip-path="url(#clip120)" d="M754.84 276.832 Q749.678 276.832 747.687 278.013 Q745.696 279.193 745.696 282.041 Q745.696 284.309 747.178 285.652 Q748.682 286.971 751.252 286.971 Q754.793 286.971 756.923 284.471 Q759.076 281.948 759.076 277.781 L759.076 276.832 L754.84 276.832 M763.335 275.073 L763.335 289.865 L759.076 289.865 L759.076 285.929 Q757.617 288.291 755.441 289.425 Q753.265 290.536 750.117 290.536 Q746.136 290.536 743.775 288.314 Q741.437 286.068 741.437 282.318 Q741.437 277.943 744.354 275.721 Q747.293 273.499 753.103 273.499 L759.076 273.499 L759.076 273.082 Q759.076 270.143 757.131 268.545 Q755.21 266.925 751.715 266.925 Q749.492 266.925 747.386 267.457 Q745.279 267.99 743.335 269.055 L743.335 265.119 Q745.673 264.217 747.872 263.777 Q750.071 263.314 752.154 263.314 Q757.779 263.314 760.557 266.231 Q763.335 269.147 763.335 275.073 Z" fill="#000000" fill-rule="evenodd" fill-opacity="1"></path><path clip-path="url(#clip120)" d="M772.108 263.939 L776.367 263.939 L776.367 289.865 L772.108 289.865 L772.108 263.939 M772.108 253.846 L776.367 253.846 L776.367 259.24 L772.108 259.24 L772.108 253.846 Z" fill="#000000" fill-rule="evenodd" fill-opacity="1"></path><path clip-path="url(#clip120)" d="M806.83 274.217 L806.83 289.865 L802.571 289.865 L802.571 274.355 Q802.571 270.675 801.136 268.846 Q799.7 267.018 796.83 267.018 Q793.381 267.018 791.39 269.217 Q789.4 271.416 789.4 275.212 L789.4 289.865 L785.117 289.865 L785.117 263.939 L789.4 263.939 L789.4 267.967 Q790.927 265.629 792.987 264.471 Q795.071 263.314 797.779 263.314 Q802.247 263.314 804.538 266.092 Q806.83 268.846 806.83 274.217 Z" fill="#000000" fill-rule="evenodd" fill-opacity="1"></path><path clip-path="url(#clip120)" d="M819.538 256.578 L819.538 263.939 L828.311 263.939 L828.311 267.249 L819.538 267.249 L819.538 281.323 Q819.538 284.494 820.395 285.397 Q821.274 286.3 823.936 286.3 L828.311 286.3 L828.311 289.865 L823.936 289.865 Q819.006 289.865 817.131 288.036 Q815.256 286.184 815.256 281.323 L815.256 267.249 L812.131 267.249 L812.131 263.939 L815.256 263.939 L815.256 256.578 L819.538 256.578 Z" fill="#000000" fill-rule="evenodd" fill-opacity="1"></path><path clip-path="url(#clip120)" d="M850.441 264.703 L850.441 268.731 Q848.635 267.805 846.691 267.342 Q844.746 266.879 842.663 266.879 Q839.492 266.879 837.895 267.851 Q836.321 268.823 836.321 270.768 Q836.321 272.249 837.455 273.105 Q838.589 273.939 842.015 274.703 L843.473 275.027 Q848.01 275.999 849.908 277.781 Q851.83 279.541 851.83 282.712 Q851.83 286.323 848.959 288.429 Q846.112 290.536 841.112 290.536 Q839.029 290.536 836.76 290.119 Q834.515 289.726 832.015 288.916 L832.015 284.517 Q834.376 285.744 836.668 286.369 Q838.959 286.971 841.205 286.971 Q844.214 286.971 845.834 285.953 Q847.455 284.911 847.455 283.036 Q847.455 281.3 846.274 280.374 Q845.117 279.448 841.159 278.592 L839.677 278.244 Q835.719 277.411 833.96 275.698 Q832.2 273.962 832.2 270.953 Q832.2 267.295 834.793 265.305 Q837.385 263.314 842.154 263.314 Q844.515 263.314 846.598 263.661 Q848.682 264.008 850.441 264.703 Z" fill="#000000" fill-rule="evenodd" fill-opacity="1"></path><polyline clip-path="url(#clip120)" style="stroke:#3da44d; stroke-linecap:round; stroke-linejoin:round; stroke-width:4; stroke-opacity:1; fill:none" points="
  210.52,324.425 359.978,324.425 
  "></polyline>
<path clip-path="url(#clip120)" d="M384.888 307.145 L414.124 307.145 L414.124 311.08 L401.855 311.08 L401.855 341.705 L397.156 341.705 L397.156 311.08 L384.888 311.08 L384.888 307.145 Z" fill="#000000" fill-rule="evenodd" fill-opacity="1"></path><path clip-path="url(#clip120)" d="M426.508 319.76 Q425.79 319.344 424.934 319.158 Q424.101 318.95 423.082 318.95 Q419.471 318.95 417.527 321.311 Q415.605 323.649 415.605 328.047 L415.605 341.705 L411.323 341.705 L411.323 315.779 L415.605 315.779 L415.605 319.807 Q416.948 317.446 419.101 316.311 Q421.253 315.154 424.332 315.154 Q424.772 315.154 425.304 315.223 Q425.837 315.27 426.485 315.385 L426.508 319.76 Z" fill="#000000" fill-rule="evenodd" fill-opacity="1"></path><path clip-path="url(#clip120)" d="M430.536 331.473 L430.536 315.779 L434.795 315.779 L434.795 331.311 Q434.795 334.992 436.23 336.844 Q437.665 338.672 440.536 338.672 Q443.985 338.672 445.975 336.473 Q447.989 334.274 447.989 330.478 L447.989 315.779 L452.249 315.779 L452.249 341.705 L447.989 341.705 L447.989 337.723 Q446.438 340.084 444.378 341.242 Q442.341 342.376 439.633 342.376 Q435.165 342.376 432.851 339.598 Q430.536 336.82 430.536 331.473 M441.253 315.154 L441.253 315.154 Z" fill="#000000" fill-rule="evenodd" fill-opacity="1"></path><path clip-path="url(#clip120)" d="M483.197 327.677 L483.197 329.76 L463.614 329.76 Q463.892 334.158 466.253 336.473 Q468.637 338.765 472.873 338.765 Q475.327 338.765 477.619 338.163 Q479.934 337.561 482.202 336.357 L482.202 340.385 Q479.91 341.357 477.503 341.867 Q475.096 342.376 472.619 342.376 Q466.415 342.376 462.781 338.765 Q459.17 335.154 459.17 328.996 Q459.17 322.631 462.596 318.904 Q466.045 315.154 471.878 315.154 Q477.11 315.154 480.142 318.533 Q483.197 321.89 483.197 327.677 M478.938 326.427 Q478.892 322.932 476.971 320.848 Q475.073 318.765 471.924 318.765 Q468.36 318.765 466.207 320.779 Q464.077 322.793 463.753 326.45 L478.938 326.427 Z" fill="#000000" fill-rule="evenodd" fill-opacity="1"></path><path clip-path="url(#clip120)" d="M526.16 308.279 L526.16 312.839 Q523.498 311.566 521.137 310.941 Q518.776 310.316 516.577 310.316 Q512.758 310.316 510.674 311.797 Q508.614 313.279 508.614 316.01 Q508.614 318.302 509.98 319.483 Q511.369 320.64 515.211 321.358 L518.035 321.936 Q523.267 322.932 525.744 325.455 Q528.244 327.955 528.244 332.168 Q528.244 337.191 524.864 339.783 Q521.507 342.376 515.003 342.376 Q512.549 342.376 509.771 341.82 Q507.017 341.265 504.054 340.177 L504.054 335.362 Q506.901 336.959 509.633 337.769 Q512.364 338.58 515.003 338.58 Q519.007 338.58 521.183 337.006 Q523.359 335.432 523.359 332.515 Q523.359 329.969 521.785 328.533 Q520.234 327.098 516.67 326.381 L513.822 325.825 Q508.591 324.783 506.253 322.561 Q503.915 320.339 503.915 316.381 Q503.915 311.797 507.133 309.159 Q510.373 306.52 516.045 306.52 Q518.475 306.52 520.998 306.959 Q523.521 307.399 526.16 308.279 Z" fill="#000000" fill-rule="evenodd" fill-opacity="1"></path><path clip-path="url(#clip120)" d="M535.35 315.779 L539.609 315.779 L539.609 341.705 L535.35 341.705 L535.35 315.779 M535.35 305.686 L539.609 305.686 L539.609 311.08 L535.35 311.08 L535.35 305.686 Z" fill="#000000" fill-rule="evenodd" fill-opacity="1"></path><path clip-path="url(#clip120)" d="M565.581 328.441 Q565.581 323.811 563.66 321.265 Q561.762 318.719 558.313 318.719 Q554.887 318.719 552.966 321.265 Q551.067 323.811 551.067 328.441 Q551.067 333.047 552.966 335.594 Q554.887 338.14 558.313 338.14 Q561.762 338.14 563.66 335.594 Q565.581 333.047 565.581 328.441 M569.841 338.487 Q569.841 345.107 566.901 348.325 Q563.961 351.566 557.896 351.566 Q555.651 351.566 553.66 351.218 Q551.669 350.894 549.794 350.2 L549.794 346.056 Q551.669 347.075 553.498 347.561 Q555.327 348.047 557.225 348.047 Q561.415 348.047 563.498 345.848 Q565.581 343.672 565.581 339.251 L565.581 337.144 Q564.262 339.436 562.202 340.57 Q560.142 341.705 557.271 341.705 Q552.503 341.705 549.586 338.07 Q546.669 334.436 546.669 328.441 Q546.669 322.422 549.586 318.788 Q552.503 315.154 557.271 315.154 Q560.142 315.154 562.202 316.288 Q564.262 317.422 565.581 319.714 L565.581 315.779 L569.841 315.779 L569.841 338.487 Z" fill="#000000" fill-rule="evenodd" fill-opacity="1"></path><path clip-path="url(#clip120)" d="M600.164 326.057 L600.164 341.705 L595.905 341.705 L595.905 326.195 Q595.905 322.515 594.47 320.686 Q593.035 318.858 590.165 318.858 Q586.715 318.858 584.725 321.057 Q582.734 323.256 582.734 327.052 L582.734 341.705 L578.452 341.705 L578.452 315.779 L582.734 315.779 L582.734 319.807 Q584.262 317.469 586.322 316.311 Q588.405 315.154 591.114 315.154 Q595.581 315.154 597.873 317.932 Q600.164 320.686 600.164 326.057 Z" fill="#000000" fill-rule="evenodd" fill-opacity="1"></path><path clip-path="url(#clip120)" d="M620.442 328.672 Q615.28 328.672 613.289 329.853 Q611.299 331.033 611.299 333.881 Q611.299 336.149 612.78 337.492 Q614.285 338.811 616.854 338.811 Q620.396 338.811 622.525 336.311 Q624.678 333.788 624.678 329.621 L624.678 328.672 L620.442 328.672 M628.937 326.913 L628.937 341.705 L624.678 341.705 L624.678 337.769 Q623.22 340.131 621.044 341.265 Q618.868 342.376 615.72 342.376 Q611.738 342.376 609.377 340.154 Q607.039 337.908 607.039 334.158 Q607.039 329.783 609.956 327.561 Q612.896 325.339 618.706 325.339 L624.678 325.339 L624.678 324.922 Q624.678 321.983 622.734 320.385 Q620.812 318.765 617.317 318.765 Q615.095 318.765 612.988 319.297 Q610.882 319.83 608.938 320.895 L608.938 316.959 Q611.276 316.057 613.475 315.617 Q615.674 315.154 617.757 315.154 Q623.382 315.154 626.16 318.071 Q628.937 320.987 628.937 326.913 Z" fill="#000000" fill-rule="evenodd" fill-opacity="1"></path><path clip-path="url(#clip120)" d="M637.711 305.686 L641.97 305.686 L641.97 341.705 L637.711 341.705 L637.711 305.686 Z" fill="#000000" fill-rule="evenodd" fill-opacity="1"></path></svg>